{"glyphs":{"0":{"ha":935,"x_min":114,"x_max":819,"o":"m 467 -11 q 220 24 290 -11 q 132 151 150 58 q 114 478 114 243 q 132 805 114 713 q 220 932 150 897 q 467 967 290 967 q 713 932 643 967 q 801 805 783 897 q 819 478 819 713 q 801 151 819 243 q 713 24 783 58 q 467 -11 643 -11 m 467 72 q 656 92 607 72 q 717 188 704 113 q 731 478 731 263 q 717 768 731 693 q 656 863 704 843 q 467 883 607 883 q 278 863 326 883 q 217 768 231 843 q 203 478 203 693 q 217 188 203 263 q 278 92 231 113 q 467 72 326 72 z "},"1":{"ha":515,"x_min":60,"x_max":350,"o":"m 261 0 l 261 844 l 60 743 l 60 832 l 285 956 l 350 956 l 350 0 l 261 0 z "},"2":{"ha":844,"x_min":103,"x_max":742,"o":"m 190 83 l 742 83 l 742 0 l 103 0 l 103 107 q 111 278 103 226 q 152 363 119 329 q 264 431 185 397 l 531 544 q 608 588 582 567 q 643 638 633 608 q 653 717 653 667 q 632 824 653 789 q 560 871 611 858 q 404 883 508 883 q 270 878 351 883 q 122 867 189 874 l 122 944 q 265 960 179 954 q 431 967 351 967 q 599 952 535 967 q 702 885 663 938 q 742 729 742 833 q 725 601 742 649 q 672 524 708 553 q 568 465 636 494 l 265 336 q 201 279 214 315 q 192 231 194 257 q 190 158 190 204 l 190 83 z "},"3":{"ha":832,"x_min":86,"x_max":721,"o":"m 364 -11 q 222 -5 301 -11 q 86 11 143 1 l 86 89 q 358 72 249 72 q 514 85 457 72 q 601 137 571 97 q 632 254 632 176 q 588 400 632 357 q 436 443 543 443 l 251 443 l 251 526 l 436 526 q 569 565 518 526 q 621 703 621 603 q 593 820 621 782 q 508 871 565 858 q 344 883 451 883 q 218 878 289 883 q 92 867 147 874 l 92 944 q 226 960 149 954 q 365 967 304 967 q 572 940 497 967 q 679 860 647 914 q 711 715 711 806 q 670 561 711 614 q 549 492 629 508 l 549 486 q 677 418 633 471 q 721 256 721 365 q 693 107 721 164 q 588 19 665 50 q 364 -11 510 -11 z "},"4":{"ha":889,"x_min":69,"x_max":819,"o":"m 585 0 l 585 231 l 69 231 l 69 306 l 447 956 l 547 956 l 169 314 l 586 314 l 600 682 l 675 682 l 675 314 l 819 314 l 819 231 l 675 231 l 675 0 l 585 0 z "},"5":{"ha":857,"x_min":118,"x_max":754,"o":"m 118 89 q 392 72 285 72 q 564 91 506 72 q 644 153 622 110 q 665 279 665 196 q 642 410 665 369 q 560 464 619 450 q 369 478 500 478 q 129 458 292 478 l 129 956 l 683 956 l 683 872 l 214 872 l 214 546 q 435 561 303 561 q 640 532 571 561 q 731 447 708 503 q 754 292 754 390 q 725 111 754 175 q 619 18 696 47 q 397 -11 543 -11 q 256 -5 335 -11 q 118 11 178 1 l 118 89 z "},"6":{"ha":906,"x_min":114,"x_max":822,"o":"m 483 -11 q 313 -1 376 -11 q 206 42 249 10 q 142 139 164 74 q 120 260 126 182 q 114 467 114 339 q 121 669 114 589 q 146 801 128 749 q 211 903 168 867 q 321 953 254 939 q 493 967 388 967 q 769 944 601 967 l 769 865 q 511 883 632 883 q 307 855 369 883 q 224 749 244 826 q 204 493 204 671 l 213 493 q 302 544 239 525 q 493 564 365 564 q 692 545 625 564 q 791 470 760 526 q 822 299 822 414 q 797 107 822 171 q 699 16 771 43 q 483 -11 628 -11 m 472 72 q 640 85 588 72 q 713 140 692 99 q 735 272 735 181 q 715 415 735 372 q 644 469 694 457 q 472 481 593 481 q 297 465 353 481 q 225 415 242 449 q 208 315 208 382 q 231 155 208 206 q 307 88 254 104 q 472 72 360 72 z "},"7":{"ha":779,"x_min":60,"x_max":706,"o":"m 206 0 l 606 872 l 60 872 l 60 956 l 706 956 l 706 881 l 306 0 l 206 0 z "},"8":{"ha":947,"x_min":110,"x_max":838,"o":"m 474 -11 q 244 18 322 -11 q 138 103 165 47 q 110 256 110 160 q 128 381 110 336 q 184 449 147 426 q 283 485 221 471 l 283 490 q 157 558 196 506 q 118 715 118 611 q 149 860 118 806 q 258 940 181 914 q 474 967 335 967 q 690 940 613 967 q 798 860 767 914 q 829 715 829 806 q 790 559 829 613 q 664 490 750 506 l 664 485 q 763 449 726 471 q 818 381 799 426 q 838 256 838 336 q 810 104 838 161 q 703 18 782 47 q 474 -11 624 -11 m 474 525 q 639 540 583 525 q 717 593 694 556 q 739 703 739 631 q 718 815 739 778 q 642 868 697 853 q 474 883 586 883 q 306 868 361 883 q 229 815 250 853 q 208 703 208 778 q 231 592 208 629 q 308 540 253 556 q 474 525 364 525 m 474 72 q 642 86 585 72 q 723 138 699 100 q 747 254 747 176 q 725 376 747 338 q 647 428 703 415 q 474 442 590 442 q 300 428 356 442 q 222 376 244 415 q 200 254 200 338 q 224 138 200 176 q 306 86 249 100 q 474 72 363 72 z "},"9":{"ha":906,"x_min":83,"x_max":792,"o":"m 414 -11 q 283 -5 361 -11 q 136 11 206 1 l 136 90 q 394 72 271 72 q 599 101 538 72 q 681 207 661 129 q 701 463 701 285 l 693 463 q 604 411 667 431 q 413 392 542 392 q 214 410 282 392 q 115 485 146 429 q 83 657 83 542 q 110 849 83 785 q 207 940 136 913 q 424 967 278 967 q 597 956 532 967 q 703 914 661 946 q 765 817 744 882 q 786 691 781 767 q 792 489 792 615 q 784 279 792 361 q 756 140 776 197 q 645 21 724 53 q 414 -11 567 -11 m 435 475 q 608 491 553 475 q 681 540 664 507 q 697 640 697 574 q 675 801 697 750 q 599 867 653 851 q 435 883 546 883 q 267 870 319 883 q 193 816 214 857 q 172 683 172 775 q 192 541 172 583 q 263 487 213 499 q 435 475 314 475 z "},"\u0000":{"ha":0,"x_min":0,"x_max":0,"o":""},"\r":{"ha":319,"x_min":0,"x_max":0,"o":""}," ":{"ha":319,"x_min":0,"x_max":0,"o":""},"A":{"ha":949,"x_min":46,"x_max":903,"o":"m 808 0 l 699 278 l 247 278 l 138 0 l 46 0 l 421 956 l 528 956 l 903 0 l 808 0 m 476 851 l 469 851 l 276 361 l 669 361 l 476 851 z "},"Á":{"ha":949,"x_min":46,"x_max":903,"o":"m 808 0 l 699 278 l 247 278 l 138 0 l 46 0 l 421 956 l 528 956 l 903 0 l 808 0 m 476 851 l 469 851 l 276 361 l 669 361 l 476 851 m 419 1042 l 419 1049 l 563 1236 l 660 1236 l 660 1229 l 483 1042 l 419 1042 z "},"Ă":{"ha":949,"x_min":46,"x_max":903,"o":"m 808 0 l 699 278 l 247 278 l 138 0 l 46 0 l 421 956 l 528 956 l 903 0 l 808 0 m 476 851 l 469 851 l 276 361 l 669 361 l 476 851 m 660 1233 q 649 1123 660 1163 q 599 1059 639 1083 q 474 1035 558 1035 q 349 1059 389 1035 q 299 1123 308 1083 q 289 1233 289 1163 l 349 1233 q 355 1151 349 1178 q 388 1110 361 1125 q 474 1094 414 1094 q 560 1110 533 1094 q 594 1152 588 1125 q 600 1233 600 1179 l 660 1233 z "},"Ắ":{"ha":949,"x_min":46,"x_max":903,"o":"m 808 0 l 699 278 l 247 278 l 138 0 l 46 0 l 421 956 l 528 956 l 903 0 l 808 0 m 476 851 l 469 851 l 276 361 l 669 361 l 476 851 m 657 1233 q 647 1123 657 1163 q 596 1059 636 1083 q 471 1035 556 1035 q 346 1059 386 1035 q 296 1123 306 1083 q 286 1233 286 1163 l 346 1233 q 352 1151 346 1178 q 385 1110 358 1125 q 471 1094 411 1094 q 558 1110 531 1094 q 591 1152 585 1125 q 597 1233 597 1179 l 657 1233 m 433 1279 l 433 1286 l 576 1474 l 674 1474 l 674 1467 l 497 1279 l 433 1279 z "},"Ặ":{"ha":949,"x_min":46,"x_max":903,"o":"m 808 0 l 699 278 l 247 278 l 138 0 l 46 0 l 421 956 l 528 956 l 903 0 l 808 0 m 476 851 l 469 851 l 276 361 l 669 361 l 476 851 m 424 -207 l 424 -86 l 526 -86 l 526 -207 l 424 -207 m 660 1233 q 649 1123 660 1163 q 599 1059 639 1083 q 474 1035 558 1035 q 349 1059 389 1035 q 299 1123 308 1083 q 289 1233 289 1163 l 349 1233 q 355 1151 349 1178 q 388 1110 361 1125 q 474 1094 414 1094 q 560 1110 533 1094 q 594 1152 588 1125 q 600 1233 600 1179 l 660 1233 z "},"Ằ":{"ha":949,"x_min":46,"x_max":903,"o":"m 808 0 l 699 278 l 247 278 l 138 0 l 46 0 l 421 956 l 528 956 l 903 0 l 808 0 m 476 851 l 469 851 l 276 361 l 669 361 l 476 851 m 664 1233 q 653 1123 664 1163 q 603 1059 643 1083 q 478 1035 563 1035 q 353 1059 393 1035 q 303 1123 313 1083 q 293 1233 293 1163 l 353 1233 q 359 1151 353 1178 q 392 1110 365 1125 q 478 1094 418 1094 q 565 1110 538 1094 q 598 1152 592 1125 q 604 1233 604 1179 l 664 1233 m 467 1279 l 290 1467 l 290 1474 l 388 1474 l 531 1286 l 531 1279 l 467 1279 z "},"Ẳ":{"ha":949,"x_min":46,"x_max":903,"o":"m 808 0 l 699 278 l 247 278 l 138 0 l 46 0 l 421 956 l 528 956 l 903 0 l 808 0 m 476 851 l 469 851 l 276 361 l 669 361 l 476 851 m 660 1233 q 649 1123 660 1163 q 599 1059 639 1083 q 474 1035 558 1035 q 349 1059 389 1035 q 299 1123 308 1083 q 289 1233 289 1163 l 349 1233 q 355 1151 349 1178 q 388 1110 361 1125 q 474 1094 414 1094 q 560 1110 533 1094 q 594 1152 588 1125 q 600 1233 600 1179 l 660 1233 m 411 1247 q 423 1296 411 1282 q 471 1319 435 1310 l 504 1329 q 568 1352 554 1342 q 582 1389 582 1363 q 571 1427 582 1415 q 537 1442 560 1439 q 464 1444 514 1444 q 310 1438 400 1444 l 310 1489 q 467 1499 372 1499 q 572 1492 535 1499 q 627 1463 608 1485 q 646 1397 646 1442 q 630 1331 646 1351 q 563 1296 614 1310 l 525 1285 q 483 1272 494 1276 q 468 1259 471 1267 q 465 1233 465 1251 l 411 1233 l 411 1247 z "},"Ẵ":{"ha":949,"x_min":46,"x_max":903,"o":"m 808 0 l 699 278 l 247 278 l 138 0 l 46 0 l 421 956 l 528 956 l 903 0 l 808 0 m 476 851 l 469 851 l 276 361 l 669 361 l 476 851 m 657 1233 q 647 1123 657 1163 q 596 1059 636 1083 q 471 1035 556 1035 q 346 1059 386 1035 q 296 1123 306 1083 q 286 1233 286 1163 l 346 1233 q 352 1151 346 1178 q 385 1110 358 1125 q 471 1094 411 1094 q 558 1110 531 1094 q 591 1152 585 1125 q 597 1233 597 1179 l 657 1233 m 719 1483 q 701 1367 719 1400 q 624 1335 683 1335 q 551 1344 586 1335 q 458 1371 515 1353 q 420 1382 449 1374 q 369 1394 392 1390 q 328 1399 346 1399 q 290 1382 299 1399 q 282 1319 282 1365 l 229 1319 q 236 1407 229 1376 q 263 1453 243 1438 q 324 1468 283 1468 q 394 1460 360 1468 q 490 1433 429 1451 q 565 1411 536 1418 q 621 1404 593 1404 q 658 1421 650 1404 q 667 1483 667 1438 l 719 1483 z "},"Ǎ":{"ha":949,"x_min":46,"x_max":903,"o":"m 808 0 l 699 278 l 247 278 l 138 0 l 46 0 l 421 956 l 528 956 l 903 0 l 808 0 m 476 851 l 469 851 l 276 361 l 669 361 l 476 851 m 428 1039 l 283 1225 l 283 1233 l 343 1233 l 475 1093 l 607 1233 l 667 1233 l 667 1225 l 522 1039 l 428 1039 z "},"Â":{"ha":949,"x_min":46,"x_max":903,"o":"m 808 0 l 699 278 l 247 278 l 138 0 l 46 0 l 421 956 l 528 956 l 903 0 l 808 0 m 476 851 l 469 851 l 276 361 l 669 361 l 476 851 m 282 1042 l 282 1050 l 426 1236 l 521 1236 l 665 1050 l 665 1042 l 606 1042 l 474 1182 l 342 1042 l 282 1042 z "},"Ấ":{"ha":949,"x_min":46,"x_max":903,"o":"m 808 0 l 699 278 l 247 278 l 138 0 l 46 0 l 421 956 l 528 956 l 903 0 l 808 0 m 476 851 l 469 851 l 276 361 l 669 361 l 476 851 m 278 1039 l 278 1047 l 422 1233 l 517 1233 l 661 1047 l 661 1039 l 601 1039 l 469 1179 l 338 1039 l 278 1039 m 556 1247 l 556 1254 l 699 1442 l 796 1442 l 796 1435 l 619 1247 l 556 1247 z "},"Ậ":{"ha":949,"x_min":46,"x_max":903,"o":"m 808 0 l 699 278 l 247 278 l 138 0 l 46 0 l 421 956 l 528 956 l 903 0 l 808 0 m 476 851 l 469 851 l 276 361 l 669 361 l 476 851 m 424 -207 l 424 -86 l 526 -86 l 526 -207 l 424 -207 m 283 1039 l 283 1047 l 428 1233 l 522 1233 l 667 1047 l 667 1039 l 607 1039 l 475 1179 l 343 1039 l 283 1039 z "},"Ầ":{"ha":949,"x_min":46,"x_max":903,"o":"m 808 0 l 699 278 l 247 278 l 138 0 l 46 0 l 421 956 l 528 956 l 903 0 l 808 0 m 476 851 l 469 851 l 276 361 l 669 361 l 476 851 m 278 1039 l 278 1047 l 422 1233 l 517 1233 l 661 1047 l 661 1039 l 601 1039 l 469 1179 l 338 1039 l 278 1039 m 607 1247 l 431 1435 l 431 1442 l 528 1442 l 671 1254 l 671 1247 l 607 1247 z "},"Ẩ":{"ha":949,"x_min":46,"x_max":903,"o":"m 808 0 l 699 278 l 247 278 l 138 0 l 46 0 l 421 956 l 528 956 l 903 0 l 808 0 m 476 851 l 469 851 l 276 361 l 669 361 l 476 851 m 283 1039 l 283 1047 l 428 1233 l 522 1233 l 667 1047 l 667 1039 l 607 1039 l 475 1179 l 343 1039 l 283 1039 m 533 1257 q 545 1306 533 1292 q 593 1329 557 1319 l 626 1339 q 690 1362 676 1351 q 704 1399 704 1372 q 693 1437 704 1425 q 659 1451 682 1449 q 586 1454 636 1454 q 432 1447 522 1454 l 432 1499 q 589 1508 494 1508 q 694 1501 657 1508 q 749 1473 731 1494 q 768 1407 768 1451 q 752 1340 768 1361 q 685 1306 736 1319 l 647 1294 q 605 1281 617 1286 q 590 1269 593 1276 q 588 1243 588 1261 l 533 1243 l 533 1257 z "},"Ẫ":{"ha":949,"x_min":46,"x_max":903,"o":"m 808 0 l 699 278 l 247 278 l 138 0 l 46 0 l 421 956 l 528 956 l 903 0 l 808 0 m 476 851 l 469 851 l 276 361 l 669 361 l 476 851 m 281 1039 l 281 1047 l 425 1233 l 519 1233 l 664 1047 l 664 1039 l 604 1039 l 472 1179 l 340 1039 l 281 1039 m 719 1474 q 701 1358 719 1390 q 624 1325 683 1325 q 551 1334 586 1325 q 458 1361 515 1343 q 420 1372 449 1364 q 369 1385 392 1381 q 328 1389 346 1389 q 290 1372 299 1389 q 282 1310 282 1356 l 229 1310 q 236 1397 229 1367 q 263 1443 243 1428 q 324 1458 283 1458 q 394 1450 360 1458 q 490 1424 429 1442 q 565 1401 536 1408 q 621 1394 593 1394 q 658 1411 650 1394 q 667 1474 667 1428 l 719 1474 z "},"Ȁ":{"ha":949,"x_min":46,"x_max":903,"o":"m 808 0 l 699 278 l 247 278 l 138 0 l 46 0 l 421 956 l 528 956 l 903 0 l 808 0 m 476 851 l 469 851 l 276 361 l 669 361 l 476 851 m 388 1043 l 329 1043 l 158 1222 l 158 1229 l 247 1229 l 388 1050 l 388 1043 m 654 1043 l 597 1043 l 426 1222 l 426 1229 l 514 1229 l 654 1050 l 654 1043 z "},"Ä":{"ha":949,"x_min":46,"x_max":903,"o":"m 808 0 l 699 278 l 247 278 l 138 0 l 46 0 l 421 956 l 528 956 l 903 0 l 808 0 m 476 851 l 469 851 l 276 361 l 669 361 l 476 851 m 303 1074 l 303 1176 l 389 1176 l 389 1074 l 303 1074 m 560 1074 l 560 1176 l 646 1176 l 646 1074 l 560 1074 z "},"Ạ":{"ha":949,"x_min":46,"x_max":903,"o":"m 808 0 l 699 278 l 247 278 l 138 0 l 46 0 l 421 956 l 528 956 l 903 0 l 808 0 m 476 851 l 469 851 l 276 361 l 669 361 l 476 851 m 424 -207 l 424 -86 l 526 -86 l 526 -207 l 424 -207 z "},"À":{"ha":949,"x_min":46,"x_max":903,"o":"m 808 0 l 699 278 l 247 278 l 138 0 l 46 0 l 421 956 l 528 956 l 903 0 l 808 0 m 476 851 l 469 851 l 276 361 l 669 361 l 476 851 m 464 1042 l 288 1229 l 288 1236 l 385 1236 l 528 1049 l 528 1042 l 464 1042 z "},"Ả":{"ha":949,"x_min":46,"x_max":903,"o":"m 808 0 l 699 278 l 247 278 l 138 0 l 46 0 l 421 956 l 528 956 l 903 0 l 808 0 m 476 851 l 469 851 l 276 361 l 669 361 l 476 851 m 408 1028 q 420 1076 408 1063 q 468 1100 432 1089 l 501 1110 q 565 1133 551 1122 q 579 1169 579 1143 q 568 1208 579 1196 q 534 1222 557 1219 q 461 1225 511 1225 q 307 1218 397 1225 l 307 1269 q 464 1279 369 1279 q 569 1272 532 1279 q 624 1244 606 1265 q 643 1178 643 1222 q 627 1111 643 1132 q 560 1076 611 1090 l 522 1065 q 480 1052 492 1057 q 465 1040 468 1047 q 463 1014 463 1032 l 408 1014 l 408 1028 z "},"Ȃ":{"ha":949,"x_min":46,"x_max":903,"o":"m 808 0 l 699 278 l 247 278 l 138 0 l 46 0 l 421 956 l 528 956 l 903 0 l 808 0 m 476 851 l 469 851 l 276 361 l 669 361 l 476 851 m 289 1043 q 299 1153 289 1114 q 350 1217 310 1193 q 475 1242 390 1242 q 600 1217 560 1242 q 650 1153 640 1193 q 660 1043 660 1114 l 600 1043 q 594 1125 600 1099 q 561 1167 588 1151 q 475 1182 535 1182 q 388 1167 415 1182 q 355 1124 361 1151 q 349 1043 349 1097 l 289 1043 z "},"Ā":{"ha":949,"x_min":46,"x_max":903,"o":"m 808 0 l 699 278 l 247 278 l 138 0 l 46 0 l 421 956 l 528 956 l 903 0 l 808 0 m 476 851 l 469 851 l 276 361 l 669 361 l 476 851 m 311 1147 l 311 1232 l 638 1232 l 638 1147 l 311 1147 z "},"Ą":{"ha":949,"x_min":46,"x_max":903,"o":"m 801 -149 q 867 -208 801 -208 q 890 -207 879 -208 l 890 -269 q 846 -272 871 -272 q 753 -244 782 -272 q 725 -168 725 -215 q 748 -82 725 -128 q 807 1 771 -36 l 699 278 l 247 278 l 138 0 l 46 0 l 421 956 l 528 956 l 903 0 l 883 0 q 827 -71 853 -28 q 801 -149 801 -114 m 276 361 l 669 361 l 476 851 l 469 851 l 276 361 z "},"Å":{"ha":949,"x_min":46,"x_max":903,"o":"m 903 0 l 808 0 l 699 278 l 247 278 l 138 0 l 46 0 l 407 928 q 340 949 361 933 q 313 990 319 964 q 307 1065 307 1017 q 317 1151 307 1124 q 361 1192 326 1179 q 474 1206 396 1206 q 587 1192 551 1206 q 632 1151 622 1179 q 642 1065 642 1124 q 636 990 642 1015 q 609 949 631 964 q 540 928 588 933 l 903 0 m 368 1065 q 373 1010 368 1026 q 400 985 378 993 q 474 978 422 978 q 548 985 526 978 q 575 1010 569 993 q 581 1065 581 1026 q 575 1121 581 1104 q 548 1145 569 1138 q 474 1153 526 1153 q 400 1145 422 1153 q 373 1121 378 1138 q 368 1065 368 1104 m 276 361 l 669 361 l 476 851 l 469 851 l 276 361 z "},"Ǻ":{"ha":949,"x_min":46,"x_max":903,"o":"m 903 0 l 808 0 l 699 278 l 247 278 l 138 0 l 46 0 l 407 928 q 340 949 361 933 q 313 990 319 964 q 307 1065 307 1017 q 317 1151 307 1124 q 361 1192 326 1179 q 474 1206 396 1206 q 587 1192 551 1206 q 632 1151 622 1179 q 642 1065 642 1124 q 636 990 642 1015 q 609 949 631 964 q 540 928 588 933 l 903 0 m 368 1065 q 373 1010 368 1026 q 400 985 378 993 q 474 978 422 978 q 548 985 526 978 q 575 1010 569 993 q 581 1065 581 1026 q 575 1121 581 1104 q 548 1145 569 1138 q 474 1153 526 1153 q 400 1145 422 1153 q 373 1121 378 1138 q 368 1065 368 1104 m 276 361 l 669 361 l 476 851 l 469 851 l 276 361 m 433 1289 l 433 1296 l 576 1483 l 674 1483 l 674 1476 l 497 1289 l 433 1289 z "},"Ã":{"ha":949,"x_min":46,"x_max":903,"o":"m 808 0 l 699 278 l 247 278 l 138 0 l 46 0 l 421 956 l 528 956 l 903 0 l 808 0 m 476 851 l 469 851 l 276 361 l 669 361 l 476 851 m 719 1206 q 701 1090 719 1122 q 624 1057 683 1057 q 551 1066 586 1057 q 458 1093 515 1075 q 420 1104 449 1096 q 369 1117 392 1113 q 328 1121 346 1121 q 290 1104 299 1121 q 282 1042 282 1088 l 229 1042 q 236 1129 229 1099 q 263 1175 243 1160 q 324 1190 283 1190 q 394 1182 360 1190 q 490 1156 429 1174 q 565 1133 536 1140 q 621 1126 593 1126 q 658 1143 650 1126 q 667 1206 667 1160 l 719 1206 z "},"Æ":{"ha":1321,"x_min":-6,"x_max":1242,"o":"m 757 0 l 676 278 l 225 278 l 86 0 l -6 0 l 471 956 l 1242 956 l 1242 872 l 599 872 l 703 525 l 1176 525 l 1176 442 l 722 442 l 829 83 l 1242 83 l 1242 0 l 757 0 m 515 851 l 508 851 l 263 361 l 656 361 l 515 851 z "},"Ǽ":{"ha":1321,"x_min":-6,"x_max":1242,"o":"m 757 0 l 676 278 l 225 278 l 86 0 l -6 0 l 471 956 l 1242 956 l 1242 872 l 599 872 l 703 525 l 1176 525 l 1176 442 l 722 442 l 829 83 l 1242 83 l 1242 0 l 757 0 m 515 851 l 508 851 l 263 361 l 656 361 l 515 851 m 615 1039 l 615 1046 l 758 1233 l 856 1233 l 856 1226 l 679 1039 l 615 1039 z "},"B":{"ha":949,"x_min":147,"x_max":842,"o":"m 147 956 l 583 956 q 774 894 718 956 q 831 717 831 832 q 792 565 831 622 q 668 492 753 508 l 668 486 q 806 408 769 468 q 842 251 842 347 q 785 68 842 136 q 575 0 729 0 l 147 0 l 147 956 m 557 526 q 742 699 742 526 q 702 832 742 792 q 557 872 663 872 l 236 872 l 236 526 l 557 526 m 563 83 q 710 125 668 83 q 753 263 753 167 q 708 401 753 358 q 563 443 664 443 l 236 443 l 236 83 l 563 83 z "},"C":{"ha":800,"x_min":114,"x_max":715,"o":"m 715 6 q 609 -6 672 -1 q 493 -11 546 -11 q 245 24 322 -11 q 141 158 168 58 q 114 478 114 257 q 141 797 114 697 q 245 931 168 896 q 493 967 322 967 q 608 961 547 967 q 710 947 668 956 l 710 869 q 515 883 610 883 q 302 859 363 883 q 222 756 242 835 q 203 478 203 676 q 222 200 203 279 q 302 97 242 121 q 515 72 363 72 q 715 86 625 72 l 715 6 z "},"Ć":{"ha":800,"x_min":114,"x_max":715,"o":"m 715 6 q 609 -6 672 -1 q 493 -11 546 -11 q 245 24 322 -11 q 141 158 168 58 q 114 478 114 257 q 141 797 114 697 q 245 931 168 896 q 493 967 322 967 q 608 961 547 967 q 710 947 668 956 l 710 869 q 515 883 610 883 q 302 859 363 883 q 222 756 242 835 q 203 478 203 676 q 222 200 203 279 q 302 97 242 121 q 515 72 363 72 q 715 86 625 72 l 715 6 m 360 1039 l 360 1046 l 503 1233 l 600 1233 l 600 1226 l 424 1039 l 360 1039 z "},"Č":{"ha":800,"x_min":114,"x_max":715,"o":"m 715 6 q 609 -6 672 -1 q 493 -11 546 -11 q 245 24 322 -11 q 141 158 168 58 q 114 478 114 257 q 141 797 114 697 q 245 931 168 896 q 493 967 322 967 q 608 961 547 967 q 710 947 668 956 l 710 869 q 515 883 610 883 q 302 859 363 883 q 222 756 242 835 q 203 478 203 676 q 222 200 203 279 q 302 97 242 121 q 515 72 363 72 q 715 86 625 72 l 715 6 m 353 1039 l 208 1225 l 208 1233 l 268 1233 l 400 1093 l 532 1233 l 592 1233 l 592 1225 l 447 1039 l 353 1039 z "},"Ç":{"ha":800,"x_min":114,"x_max":715,"o":"m 515 72 q 715 86 625 72 l 715 6 q 609 -6 672 -1 q 493 -11 546 -11 q 429 -10 449 -11 l 374 -264 l 286 -264 l 286 -257 l 367 -6 q 206 50 258 6 q 133 191 153 94 q 114 478 114 288 q 141 797 114 697 q 245 931 168 896 q 493 967 322 967 q 608 961 547 967 q 710 947 668 956 l 710 869 q 515 883 610 883 q 302 859 363 883 q 222 756 242 835 q 203 478 203 676 q 222 200 203 279 q 302 97 242 121 q 515 72 363 72 z "},"Ĉ":{"ha":800,"x_min":114,"x_max":715,"o":"m 715 6 q 609 -6 672 -1 q 493 -11 546 -11 q 245 24 322 -11 q 141 158 168 58 q 114 478 114 257 q 141 797 114 697 q 245 931 168 896 q 493 967 322 967 q 608 961 547 967 q 710 947 668 956 l 710 869 q 515 883 610 883 q 302 859 363 883 q 222 756 242 835 q 203 478 203 676 q 222 200 203 279 q 302 97 242 121 q 515 72 363 72 q 715 86 625 72 l 715 6 m 208 1039 l 208 1047 l 353 1233 l 447 1233 l 592 1047 l 592 1039 l 532 1039 l 400 1179 l 268 1039 l 208 1039 z "},"Ċ":{"ha":800,"x_min":114,"x_max":715,"o":"m 715 6 q 609 -6 672 -1 q 493 -11 546 -11 q 245 24 322 -11 q 141 158 168 58 q 114 478 114 257 q 141 797 114 697 q 245 931 168 896 q 493 967 322 967 q 608 961 547 967 q 710 947 668 956 l 710 869 q 515 883 610 883 q 302 859 363 883 q 222 756 242 835 q 203 478 203 676 q 222 200 203 279 q 302 97 242 121 q 515 72 363 72 q 715 86 625 72 l 715 6 m 357 1114 l 357 1217 l 443 1217 l 443 1114 l 357 1114 z "},"D":{"ha":958,"x_min":147,"x_max":843,"o":"m 147 956 l 443 956 q 719 922 639 956 q 821 797 799 889 q 843 478 843 706 q 821 158 843 250 q 719 33 799 67 q 443 0 639 0 l 147 0 l 147 956 m 419 83 q 657 102 596 83 q 736 194 718 121 q 754 478 754 268 q 735 760 754 685 q 655 853 717 835 q 419 872 593 872 l 236 872 l 236 83 l 419 83 z "},"Ǳ":{"ha":1796,"x_min":147,"x_max":1724,"o":"m 147 956 l 443 956 q 719 922 639 956 q 821 797 799 889 q 843 478 843 706 q 821 158 843 250 q 719 33 799 67 q 443 0 639 0 l 147 0 l 147 956 m 419 83 q 657 102 596 83 q 736 194 718 121 q 754 478 754 268 q 735 760 754 685 q 655 853 717 835 q 419 872 593 872 l 236 872 l 236 83 l 419 83 m 1036 0 l 1036 79 l 1601 872 l 1051 872 l 1051 956 l 1714 956 l 1714 878 l 1149 83 l 1724 83 l 1724 0 l 1036 0 z "},"Ǆ":{"ha":1796,"x_min":147,"x_max":1724,"o":"m 147 956 l 443 956 q 719 922 639 956 q 821 797 799 889 q 843 478 843 706 q 821 158 843 250 q 719 33 799 67 q 443 0 639 0 l 147 0 l 147 956 m 419 83 q 657 102 596 83 q 736 194 718 121 q 754 478 754 268 q 735 760 754 685 q 655 853 717 835 q 419 872 593 872 l 236 872 l 236 83 l 419 83 m 1036 0 l 1036 79 l 1601 872 l 1051 872 l 1051 956 l 1714 956 l 1714 878 l 1149 83 l 1724 83 l 1724 0 l 1036 0 m 1335 1039 l 1190 1225 l 1190 1233 l 1250 1233 l 1382 1093 l 1514 1233 l 1574 1233 l 1574 1225 l 1429 1039 l 1335 1039 z "},"Ð":{"ha":958,"x_min":51,"x_max":843,"o":"m 147 444 l 51 444 l 51 525 l 147 525 l 147 956 l 443 956 q 719 922 639 956 q 821 797 799 889 q 843 478 843 706 q 821 158 843 250 q 719 33 799 67 q 443 0 639 0 l 147 0 l 147 444 m 419 83 q 657 102 596 83 q 736 194 718 121 q 754 478 754 268 q 735 760 754 685 q 655 853 717 835 q 419 872 593 872 l 236 872 l 236 525 l 401 525 l 401 444 l 236 444 l 236 83 l 419 83 z "},"Ď":{"ha":958,"x_min":147,"x_max":843,"o":"m 147 956 l 443 956 q 719 922 639 956 q 821 797 799 889 q 843 478 843 706 q 821 158 843 250 q 719 33 799 67 q 443 0 639 0 l 147 0 l 147 956 m 419 83 q 657 102 596 83 q 736 194 718 121 q 754 478 754 268 q 735 760 754 685 q 655 853 717 835 q 419 872 593 872 l 236 872 l 236 83 l 419 83 m 433 1039 l 289 1225 l 289 1233 l 349 1233 l 481 1093 l 613 1233 l 672 1233 l 672 1225 l 528 1039 l 433 1039 z "},"Đ":{"ha":958,"x_min":51,"x_max":843,"o":"m 147 444 l 51 444 l 51 525 l 147 525 l 147 956 l 443 956 q 719 922 639 956 q 821 797 799 889 q 843 478 843 706 q 821 158 843 250 q 719 33 799 67 q 443 0 639 0 l 147 0 l 147 444 m 419 83 q 657 102 596 83 q 736 194 718 121 q 754 478 754 268 q 735 760 754 685 q 655 853 717 835 q 419 872 593 872 l 236 872 l 236 525 l 401 525 l 401 444 l 236 444 l 236 83 l 419 83 z "},"Ḍ":{"ha":958,"x_min":147,"x_max":843,"o":"m 147 956 l 443 956 q 719 922 639 956 q 821 797 799 889 q 843 478 843 706 q 821 158 843 250 q 719 33 799 67 q 443 0 639 0 l 147 0 l 147 956 m 419 83 q 657 102 596 83 q 736 194 718 121 q 754 478 754 268 q 735 760 754 685 q 655 853 717 835 q 419 872 593 872 l 236 872 l 236 83 l 419 83 m 429 -207 l 429 -86 l 532 -86 l 532 -207 l 429 -207 z "},"ǲ":{"ha":1656,"x_min":147,"x_max":1582,"o":"m 147 956 l 443 956 q 719 922 639 956 q 821 797 799 889 q 843 478 843 706 q 821 158 843 250 q 719 33 799 67 q 443 0 639 0 l 147 0 l 147 956 m 419 83 q 657 102 596 83 q 736 194 718 121 q 754 478 754 268 q 735 760 754 685 q 655 853 717 835 q 419 872 593 872 l 236 872 l 236 83 l 419 83 m 1032 0 l 1032 71 l 1468 631 l 1049 631 l 1049 708 l 1579 708 l 1579 638 l 1144 78 l 1582 78 l 1582 0 l 1032 0 z "},"ǅ":{"ha":1656,"x_min":147,"x_max":1582,"o":"m 147 956 l 443 956 q 719 922 639 956 q 821 797 799 889 q 843 478 843 706 q 821 158 843 250 q 719 33 799 67 q 443 0 639 0 l 147 0 l 147 956 m 419 83 q 657 102 596 83 q 736 194 718 121 q 754 478 754 268 q 735 760 754 685 q 655 853 717 835 q 419 872 593 872 l 236 872 l 236 83 l 419 83 m 1032 0 l 1032 71 l 1468 631 l 1049 631 l 1049 708 l 1579 708 l 1579 638 l 1144 78 l 1582 78 l 1582 0 l 1032 0 m 1274 838 l 1129 1024 l 1129 1032 l 1189 1032 l 1321 892 l 1453 1032 l 1513 1032 l 1513 1024 l 1368 838 l 1274 838 z "},"E":{"ha":835,"x_min":147,"x_max":756,"o":"m 147 0 l 147 956 l 756 956 l 756 872 l 236 872 l 236 525 l 690 525 l 690 442 l 236 442 l 236 83 l 756 83 l 756 0 l 147 0 z "},"É":{"ha":835,"x_min":147,"x_max":756,"o":"m 147 0 l 147 956 l 756 956 l 756 872 l 236 872 l 236 525 l 690 525 l 690 442 l 236 442 l 236 83 l 756 83 l 756 0 l 147 0 m 407 1042 l 407 1049 l 550 1236 l 647 1236 l 647 1229 l 471 1042 l 407 1042 z "},"Ĕ":{"ha":835,"x_min":147,"x_max":756,"o":"m 147 0 l 147 956 l 756 956 l 756 872 l 236 872 l 236 525 l 690 525 l 690 442 l 236 442 l 236 83 l 756 83 l 756 0 l 147 0 m 636 1233 q 626 1123 636 1163 q 575 1059 615 1083 q 450 1035 535 1035 q 325 1059 365 1035 q 275 1123 285 1083 q 265 1233 265 1163 l 325 1233 q 331 1151 325 1178 q 364 1110 338 1125 q 450 1094 390 1094 q 537 1110 510 1094 q 570 1152 564 1125 q 576 1233 576 1179 l 636 1233 z "},"Ě":{"ha":835,"x_min":147,"x_max":756,"o":"m 147 0 l 147 956 l 756 956 l 756 872 l 236 872 l 236 525 l 690 525 l 690 442 l 236 442 l 236 83 l 756 83 l 756 0 l 147 0 m 404 1039 l 260 1225 l 260 1233 l 319 1233 l 451 1093 l 583 1233 l 643 1233 l 643 1225 l 499 1039 l 404 1039 z "},"Ê":{"ha":835,"x_min":147,"x_max":756,"o":"m 147 0 l 147 956 l 756 956 l 756 872 l 236 872 l 236 525 l 690 525 l 690 442 l 236 442 l 236 83 l 756 83 l 756 0 l 147 0 m 264 1042 l 264 1050 l 408 1236 l 503 1236 l 647 1050 l 647 1042 l 588 1042 l 456 1182 l 324 1042 l 264 1042 z "},"Ế":{"ha":835,"x_min":147,"x_max":772,"o":"m 147 0 l 147 956 l 756 956 l 756 872 l 236 872 l 236 525 l 690 525 l 690 442 l 236 442 l 236 83 l 756 83 l 756 0 l 147 0 m 254 1039 l 254 1047 l 399 1233 l 493 1233 l 638 1047 l 638 1039 l 578 1039 l 446 1179 l 314 1039 l 254 1039 m 532 1247 l 532 1254 l 675 1442 l 772 1442 l 772 1435 l 596 1247 l 532 1247 z "},"Ệ":{"ha":835,"x_min":147,"x_max":756,"o":"m 147 0 l 147 956 l 756 956 l 756 872 l 236 872 l 236 525 l 690 525 l 690 442 l 236 442 l 236 83 l 756 83 l 756 0 l 147 0 m 400 -207 l 400 -86 l 503 -86 l 503 -207 l 400 -207 m 260 1039 l 260 1047 l 404 1233 l 499 1233 l 643 1047 l 643 1039 l 583 1039 l 451 1179 l 319 1039 l 260 1039 z "},"Ề":{"ha":835,"x_min":147,"x_max":756,"o":"m 147 0 l 147 956 l 756 956 l 756 872 l 236 872 l 236 525 l 690 525 l 690 442 l 236 442 l 236 83 l 756 83 l 756 0 l 147 0 m 254 1039 l 254 1047 l 399 1233 l 493 1233 l 638 1047 l 638 1039 l 578 1039 l 446 1179 l 314 1039 l 254 1039 m 583 1247 l 407 1435 l 407 1442 l 504 1442 l 647 1254 l 647 1247 l 583 1247 z "},"Ể":{"ha":835,"x_min":147,"x_max":756,"o":"m 147 0 l 147 956 l 756 956 l 756 872 l 236 872 l 236 525 l 690 525 l 690 442 l 236 442 l 236 83 l 756 83 l 756 0 l 147 0 m 260 1039 l 260 1047 l 404 1233 l 499 1233 l 643 1047 l 643 1039 l 583 1039 l 451 1179 l 319 1039 l 260 1039 m 510 1257 q 522 1306 510 1292 q 569 1329 533 1319 l 603 1339 q 667 1362 653 1351 q 681 1399 681 1372 q 669 1437 681 1425 q 635 1451 658 1449 q 563 1454 613 1454 q 408 1447 499 1454 l 408 1499 q 565 1508 471 1508 q 670 1501 633 1508 q 726 1473 707 1494 q 744 1407 744 1451 q 728 1340 744 1361 q 661 1306 713 1319 l 624 1294 q 581 1281 593 1286 q 567 1269 569 1276 q 564 1243 564 1261 l 510 1243 l 510 1257 z "},"Ễ":{"ha":835,"x_min":147,"x_max":756,"o":"m 147 0 l 147 956 l 756 956 l 756 872 l 236 872 l 236 525 l 690 525 l 690 442 l 236 442 l 236 83 l 756 83 l 756 0 l 147 0 m 257 1039 l 257 1047 l 401 1233 l 496 1233 l 640 1047 l 640 1039 l 581 1039 l 449 1179 l 317 1039 l 257 1039 m 696 1474 q 678 1358 696 1390 q 600 1325 660 1325 q 527 1334 563 1325 q 435 1361 492 1343 q 397 1372 425 1364 q 345 1385 368 1381 q 304 1389 322 1389 q 267 1372 275 1389 q 258 1310 258 1356 l 206 1310 q 213 1397 206 1367 q 240 1443 219 1428 q 300 1458 260 1458 q 371 1450 336 1458 q 467 1424 406 1442 q 541 1401 513 1408 q 597 1394 569 1394 q 635 1411 626 1394 q 643 1474 643 1428 l 696 1474 z "},"Ȅ":{"ha":835,"x_min":135,"x_max":756,"o":"m 147 0 l 147 956 l 756 956 l 756 872 l 236 872 l 236 525 l 690 525 l 690 442 l 236 442 l 236 83 l 756 83 l 756 0 l 147 0 m 364 1043 l 306 1043 l 135 1222 l 135 1229 l 224 1229 l 364 1050 l 364 1043 m 631 1043 l 574 1043 l 403 1222 l 403 1229 l 490 1229 l 631 1050 l 631 1043 z "},"Ë":{"ha":835,"x_min":147,"x_max":756,"o":"m 147 0 l 147 956 l 756 956 l 756 872 l 236 872 l 236 525 l 690 525 l 690 442 l 236 442 l 236 83 l 756 83 l 756 0 l 147 0 m 290 1074 l 290 1176 l 376 1176 l 376 1074 l 290 1074 m 547 1074 l 547 1176 l 633 1176 l 633 1074 l 547 1074 z "},"Ė":{"ha":835,"x_min":147,"x_max":756,"o":"m 147 0 l 147 956 l 756 956 l 756 872 l 236 872 l 236 525 l 690 525 l 690 442 l 236 442 l 236 83 l 756 83 l 756 0 l 147 0 m 408 1114 l 408 1217 l 494 1217 l 494 1114 l 408 1114 z "},"Ẹ":{"ha":835,"x_min":147,"x_max":756,"o":"m 147 0 l 147 956 l 756 956 l 756 872 l 236 872 l 236 525 l 690 525 l 690 442 l 236 442 l 236 83 l 756 83 l 756 0 l 147 0 m 400 -207 l 400 -86 l 503 -86 l 503 -207 l 400 -207 z "},"È":{"ha":835,"x_min":147,"x_max":756,"o":"m 147 0 l 147 956 l 756 956 l 756 872 l 236 872 l 236 525 l 690 525 l 690 442 l 236 442 l 236 83 l 756 83 l 756 0 l 147 0 m 444 1042 l 268 1229 l 268 1236 l 365 1236 l 508 1049 l 508 1042 l 444 1042 z "},"Ẻ":{"ha":835,"x_min":147,"x_max":756,"o":"m 147 0 l 147 956 l 756 956 l 756 872 l 236 872 l 236 525 l 690 525 l 690 442 l 236 442 l 236 83 l 756 83 l 756 0 l 147 0 m 385 1028 q 397 1076 385 1063 q 444 1100 408 1089 l 478 1110 q 542 1133 528 1122 q 556 1169 556 1143 q 544 1208 556 1196 q 510 1222 533 1219 q 438 1225 488 1225 q 283 1218 374 1225 l 283 1269 q 440 1279 346 1279 q 545 1272 508 1279 q 601 1244 582 1265 q 619 1178 619 1222 q 603 1111 619 1132 q 536 1076 588 1090 l 499 1065 q 456 1052 468 1057 q 442 1040 444 1047 q 439 1014 439 1032 l 385 1014 l 385 1028 z "},"Ȇ":{"ha":835,"x_min":147,"x_max":756,"o":"m 147 0 l 147 956 l 756 956 l 756 872 l 236 872 l 236 525 l 690 525 l 690 442 l 236 442 l 236 83 l 756 83 l 756 0 l 147 0 m 265 1043 q 276 1153 265 1114 q 326 1217 286 1193 q 451 1242 367 1242 q 576 1217 536 1242 q 626 1153 617 1193 q 636 1043 636 1114 l 576 1043 q 570 1125 576 1099 q 538 1167 564 1151 q 451 1182 511 1182 q 365 1167 392 1182 q 331 1124 338 1151 q 325 1043 325 1097 l 265 1043 z "},"Ē":{"ha":835,"x_min":147,"x_max":756,"o":"m 147 0 l 147 956 l 756 956 l 756 872 l 236 872 l 236 525 l 690 525 l 690 442 l 236 442 l 236 83 l 756 83 l 756 0 l 147 0 m 288 1147 l 288 1232 l 614 1232 l 614 1147 l 288 1147 z "},"Ę":{"ha":835,"x_min":147,"x_max":756,"o":"m 707 -272 q 615 -244 643 -272 q 586 -171 586 -217 q 610 -84 586 -128 q 678 0 635 -40 l 147 0 l 147 956 l 756 956 l 756 872 l 236 872 l 236 525 l 690 525 l 690 442 l 236 442 l 236 83 l 756 83 l 756 0 q 691 -69 721 -25 q 661 -151 661 -114 q 677 -192 661 -176 q 726 -208 693 -208 q 750 -207 742 -208 l 750 -269 q 707 -272 733 -272 z "},"Ẽ":{"ha":835,"x_min":147,"x_max":756,"o":"m 147 0 l 147 956 l 756 956 l 756 872 l 236 872 l 236 525 l 690 525 l 690 442 l 236 442 l 236 83 l 756 83 l 756 0 l 147 0 m 696 1233 q 678 1117 696 1150 q 600 1085 660 1085 q 527 1094 563 1085 q 435 1121 492 1103 q 397 1132 425 1124 q 345 1144 368 1140 q 304 1149 322 1149 q 267 1132 275 1149 q 258 1069 258 1115 l 206 1069 q 213 1157 206 1126 q 240 1203 219 1188 q 300 1218 260 1218 q 371 1210 336 1218 q 467 1183 406 1201 q 541 1161 513 1168 q 597 1154 569 1154 q 635 1171 626 1154 q 643 1233 643 1188 l 696 1233 z "},"F":{"ha":782,"x_min":147,"x_max":728,"o":"m 147 0 l 147 956 l 728 956 l 728 872 l 236 872 l 236 504 l 676 504 l 676 421 l 236 421 l 236 0 l 147 0 z "},"G":{"ha":943,"x_min":114,"x_max":813,"o":"m 488 421 l 488 503 l 813 503 l 813 15 q 660 -3 744 4 q 514 -11 576 -11 q 257 25 339 -11 q 144 161 175 61 q 114 478 114 261 q 145 794 114 693 q 258 931 176 896 q 514 967 340 967 q 667 959 583 967 q 808 940 750 951 l 808 861 q 564 883 658 883 q 326 864 393 883 q 231 763 258 844 q 203 478 203 681 q 224 209 203 290 q 307 99 244 128 q 514 71 369 71 q 622 75 558 71 q 726 85 686 79 l 726 421 l 488 421 z "},"Ǵ":{"ha":943,"x_min":114,"x_max":813,"o":"m 488 421 l 488 503 l 813 503 l 813 15 q 660 -3 744 4 q 514 -11 576 -11 q 257 25 339 -11 q 144 161 175 61 q 114 478 114 261 q 145 794 114 693 q 258 931 176 896 q 514 967 340 967 q 667 959 583 967 q 808 940 750 951 l 808 861 q 564 883 658 883 q 326 864 393 883 q 231 763 258 844 q 203 478 203 681 q 224 209 203 290 q 307 99 244 128 q 514 71 369 71 q 622 75 558 71 q 726 85 686 79 l 726 421 l 488 421 m 432 1039 l 432 1046 l 575 1233 l 672 1233 l 672 1226 l 496 1039 l 432 1039 z "},"Ğ":{"ha":943,"x_min":114,"x_max":813,"o":"m 488 421 l 488 503 l 813 503 l 813 15 q 660 -3 744 4 q 514 -11 576 -11 q 257 25 339 -11 q 144 161 175 61 q 114 478 114 261 q 145 794 114 693 q 258 931 176 896 q 514 967 340 967 q 667 959 583 967 q 808 940 750 951 l 808 861 q 564 883 658 883 q 326 864 393 883 q 231 763 258 844 q 203 478 203 681 q 224 209 203 290 q 307 99 244 128 q 514 71 369 71 q 622 75 558 71 q 726 85 686 79 l 726 421 l 488 421 m 657 1233 q 647 1123 657 1163 q 596 1059 636 1083 q 471 1035 556 1035 q 346 1059 386 1035 q 296 1123 306 1083 q 286 1233 286 1163 l 346 1233 q 352 1151 346 1178 q 385 1110 358 1125 q 471 1094 411 1094 q 558 1110 531 1094 q 591 1152 585 1125 q 597 1233 597 1179 l 657 1233 z "},"Ǧ":{"ha":943,"x_min":114,"x_max":813,"o":"m 488 421 l 488 503 l 813 503 l 813 15 q 660 -3 744 4 q 514 -11 576 -11 q 257 25 339 -11 q 144 161 175 61 q 114 478 114 261 q 145 794 114 693 q 258 931 176 896 q 514 967 340 967 q 667 959 583 967 q 808 940 750 951 l 808 861 q 564 883 658 883 q 326 864 393 883 q 231 763 258 844 q 203 478 203 681 q 224 209 203 290 q 307 99 244 128 q 514 71 369 71 q 622 75 558 71 q 726 85 686 79 l 726 421 l 488 421 m 425 1039 l 281 1225 l 281 1233 l 340 1233 l 472 1093 l 604 1233 l 664 1233 l 664 1225 l 519 1039 l 425 1039 z "},"Ĝ":{"ha":943,"x_min":114,"x_max":813,"o":"m 488 421 l 488 503 l 813 503 l 813 15 q 660 -3 744 4 q 514 -11 576 -11 q 257 25 339 -11 q 144 161 175 61 q 114 478 114 261 q 145 794 114 693 q 258 931 176 896 q 514 967 340 967 q 667 959 583 967 q 808 940 750 951 l 808 861 q 564 883 658 883 q 326 864 393 883 q 231 763 258 844 q 203 478 203 681 q 224 209 203 290 q 307 99 244 128 q 514 71 369 71 q 622 75 558 71 q 726 85 686 79 l 726 421 l 488 421 m 281 1039 l 281 1047 l 425 1233 l 519 1233 l 664 1047 l 664 1039 l 604 1039 l 472 1179 l 340 1039 l 281 1039 z "},"Ģ":{"ha":943,"x_min":114,"x_max":813,"o":"m 488 421 l 488 503 l 813 503 l 813 15 q 660 -3 744 4 q 514 -11 576 -11 q 257 25 339 -11 q 144 161 175 61 q 114 478 114 261 q 145 794 114 693 q 258 931 176 896 q 514 967 340 967 q 667 959 583 967 q 808 940 750 951 l 808 861 q 564 883 658 883 q 326 864 393 883 q 231 763 258 844 q 203 478 203 681 q 224 209 203 290 q 307 99 244 128 q 514 71 369 71 q 622 75 558 71 q 726 85 686 79 l 726 421 l 488 421 m 404 -303 q 467 -288 453 -303 q 481 -226 481 -274 l 481 -203 l 439 -203 l 439 -86 l 539 -86 l 539 -194 q 528 -290 539 -258 q 490 -335 518 -322 q 404 -347 463 -347 l 404 -303 z "},"Ġ":{"ha":943,"x_min":114,"x_max":813,"o":"m 488 421 l 488 503 l 813 503 l 813 15 q 660 -3 744 4 q 514 -11 576 -11 q 257 25 339 -11 q 144 161 175 61 q 114 478 114 261 q 145 794 114 693 q 258 931 176 896 q 514 967 340 967 q 667 959 583 967 q 808 940 750 951 l 808 861 q 564 883 658 883 q 326 864 393 883 q 231 763 258 844 q 203 478 203 681 q 224 209 203 290 q 307 99 244 128 q 514 71 369 71 q 622 75 558 71 q 726 85 686 79 l 726 421 l 488 421 m 429 1114 l 429 1217 l 515 1217 l 515 1114 l 429 1114 z "},"H":{"ha":1019,"x_min":147,"x_max":871,"o":"m 782 0 l 782 440 l 236 440 l 236 0 l 147 0 l 147 956 l 236 956 l 236 525 l 782 525 l 782 956 l 871 956 l 871 0 l 782 0 z "},"Ħ":{"ha":1019,"x_min":147,"x_max":871,"o":"m 782 956 l 871 956 l 871 0 l 782 0 l 782 401 l 236 401 l 236 0 l 147 0 l 147 956 l 236 956 l 236 756 l 782 756 l 782 956 m 236 488 l 782 488 l 782 675 l 236 675 l 236 488 z "},"Ĥ":{"ha":1019,"x_min":147,"x_max":871,"o":"m 782 0 l 782 440 l 236 440 l 236 0 l 147 0 l 147 956 l 236 956 l 236 525 l 782 525 l 782 956 l 871 956 l 871 0 l 782 0 m 318 1039 l 318 1047 l 463 1233 l 557 1233 l 701 1047 l 701 1039 l 642 1039 l 510 1179 l 378 1039 l 318 1039 z "},"Ḥ":{"ha":1019,"x_min":147,"x_max":871,"o":"m 782 0 l 782 440 l 236 440 l 236 0 l 147 0 l 147 956 l 236 956 l 236 525 l 782 525 l 782 956 l 871 956 l 871 0 l 782 0 m 458 -207 l 458 -86 l 561 -86 l 561 -207 l 458 -207 z "},"I":{"ha":385,"x_min":147,"x_max":236,"o":"m 147 0 l 147 956 l 236 956 l 236 0 l 147 0 z "},"Ĳ":{"ha":858,"x_min":147,"x_max":722,"o":"m 147 0 l 147 956 l 236 956 l 236 0 l 147 0 m 435 81 q 578 97 542 83 q 624 159 614 111 q 633 349 633 207 l 633 956 l 722 956 l 722 382 q 707 113 722 183 q 638 22 692 42 q 435 0 585 1 l 435 81 z "},"Í":{"ha":385,"x_min":142,"x_max":382,"o":"m 147 0 l 147 956 l 236 956 l 236 0 l 147 0 m 142 1042 l 142 1049 l 285 1236 l 382 1236 l 382 1229 l 206 1042 l 142 1042 z "},"Ĭ":{"ha":385,"x_min":6,"x_max":376,"o":"m 147 0 l 147 956 l 236 956 l 236 0 l 147 0 m 376 1233 q 366 1123 376 1163 q 315 1059 356 1083 q 190 1035 275 1035 q 65 1059 106 1035 q 15 1123 25 1083 q 6 1233 6 1163 l 65 1233 q 72 1151 65 1178 q 104 1110 78 1125 q 190 1094 131 1094 q 277 1110 250 1094 q 310 1152 304 1125 q 317 1233 317 1179 l 376 1233 z "},"Ǐ":{"ha":385,"x_min":0,"x_max":383,"o":"m 147 0 l 147 956 l 236 956 l 236 0 l 147 0 m 144 1039 l 0 1225 l 0 1233 l 60 1233 l 192 1093 l 324 1233 l 383 1233 l 383 1225 l 239 1039 l 144 1039 z "},"Î":{"ha":385,"x_min":0,"x_max":383,"o":"m 147 0 l 147 956 l 236 956 l 236 0 l 147 0 m 0 1042 l 0 1050 l 144 1236 l 239 1236 l 383 1050 l 383 1042 l 324 1042 l 192 1182 l 60 1042 l 0 1042 z "},"Ȉ":{"ha":385,"x_min":-125,"x_max":371,"o":"m 147 0 l 147 956 l 236 956 l 236 0 l 147 0 m 104 1043 l 46 1043 l -125 1222 l -125 1229 l -36 1229 l 104 1050 l 104 1043 m 371 1043 l 314 1043 l 143 1222 l 143 1229 l 231 1229 l 371 1050 l 371 1043 z "},"Ï":{"ha":385,"x_min":21,"x_max":364,"o":"m 147 0 l 147 956 l 236 956 l 236 0 l 147 0 m 21 1072 l 21 1175 l 107 1175 l 107 1072 l 21 1072 m 278 1072 l 278 1175 l 364 1175 l 364 1072 l 278 1072 z "},"İ":{"ha":385,"x_min":147,"x_max":236,"o":"m 147 0 l 147 956 l 236 956 l 236 0 l 147 0 m 149 1114 l 149 1217 l 235 1217 l 235 1114 l 149 1114 z "},"Ị":{"ha":385,"x_min":140,"x_max":243,"o":"m 147 0 l 147 956 l 236 956 l 236 0 l 147 0 m 140 -207 l 140 -86 l 243 -86 l 243 -207 l 140 -207 z "},"Ì":{"ha":385,"x_min":7,"x_max":247,"o":"m 147 0 l 147 956 l 236 956 l 236 0 l 147 0 m 183 1042 l 7 1229 l 7 1236 l 104 1236 l 247 1049 l 247 1042 l 183 1042 z "},"Ỉ":{"ha":385,"x_min":24,"x_max":360,"o":"m 147 0 l 147 956 l 236 956 l 236 0 l 147 0 m 125 1028 q 137 1076 125 1063 q 185 1100 149 1089 l 218 1110 q 282 1133 268 1122 q 296 1169 296 1143 q 285 1208 296 1196 q 251 1222 274 1219 q 178 1225 228 1225 q 24 1218 114 1225 l 24 1269 q 181 1279 86 1279 q 285 1272 249 1279 q 341 1244 322 1265 q 360 1178 360 1222 q 344 1111 360 1132 q 276 1076 328 1090 l 239 1065 q 197 1052 208 1057 q 182 1040 185 1047 q 179 1014 179 1032 l 125 1014 l 125 1028 z "},"Ȋ":{"ha":385,"x_min":6,"x_max":376,"o":"m 147 0 l 147 956 l 236 956 l 236 0 l 147 0 m 6 1043 q 16 1153 6 1114 q 67 1217 26 1193 q 192 1242 107 1242 q 317 1217 276 1242 q 367 1153 357 1193 q 376 1043 376 1114 l 317 1043 q 310 1125 317 1099 q 278 1167 304 1151 q 192 1182 251 1182 q 105 1167 132 1182 q 72 1124 78 1151 q 65 1043 65 1097 l 6 1043 z "},"Ī":{"ha":385,"x_min":28,"x_max":354,"o":"m 147 0 l 147 956 l 236 956 l 236 0 l 147 0 m 28 1147 l 28 1232 l 354 1232 l 354 1147 l 28 1147 z "},"Į":{"ha":385,"x_min":74,"x_max":238,"o":"m 194 -272 q 74 -168 74 -272 q 97 -83 74 -128 q 160 0 121 -37 l 147 0 l 147 956 l 236 956 l 236 0 q 178 -69 206 -25 q 150 -149 150 -114 q 215 -208 150 -208 q 238 -207 229 -208 l 238 -269 q 194 -272 221 -272 z "},"Ĩ":{"ha":385,"x_min":-54,"x_max":436,"o":"m 147 0 l 147 956 l 236 956 l 236 0 l 147 0 m 436 1233 q 418 1117 436 1150 q 340 1085 400 1085 q 267 1094 303 1085 q 175 1121 232 1103 q 137 1132 165 1124 q 85 1144 108 1140 q 44 1149 63 1149 q 7 1132 15 1149 q -1 1069 -1 1115 l -54 1069 q -47 1157 -54 1126 q -20 1203 -40 1188 q 40 1218 0 1218 q 111 1210 76 1218 q 207 1183 146 1201 q 281 1161 253 1168 q 338 1154 310 1154 q 375 1171 367 1154 q 383 1233 383 1188 l 436 1233 z "},"J":{"ha":474,"x_min":50,"x_max":338,"o":"m 50 81 q 193 97 157 83 q 239 159 229 111 q 249 349 249 207 l 249 956 l 338 956 l 338 382 q 322 113 338 183 q 253 22 307 42 q 50 0 200 1 l 50 81 z "},"Ĵ":{"ha":474,"x_min":50,"x_max":485,"o":"m 50 81 q 193 97 157 83 q 239 159 229 111 q 249 349 249 207 l 249 956 l 338 956 l 338 382 q 322 113 338 183 q 253 22 307 42 q 50 0 200 1 l 50 81 m 101 1039 l 101 1047 l 246 1233 l 340 1233 l 485 1047 l 485 1039 l 425 1039 l 293 1179 l 161 1039 l 101 1039 z "},"K":{"ha":928,"x_min":147,"x_max":882,"o":"m 778 0 l 439 443 l 236 443 l 236 0 l 147 0 l 147 956 l 236 956 l 236 526 l 439 526 l 778 956 l 878 956 l 511 489 l 882 0 l 778 0 z "},"Ķ":{"ha":928,"x_min":147,"x_max":882,"o":"m 778 0 l 439 443 l 236 443 l 236 0 l 147 0 l 147 956 l 236 956 l 236 526 l 439 526 l 778 956 l 878 956 l 511 489 l 882 0 l 778 0 m 396 -303 q 458 -288 444 -303 q 472 -226 472 -274 l 472 -203 l 431 -203 l 431 -86 l 531 -86 l 531 -194 q 520 -290 531 -258 q 482 -335 510 -322 q 396 -347 454 -347 l 396 -303 z "},"L":{"ha":746,"x_min":147,"x_max":700,"o":"m 147 0 l 147 956 l 236 956 l 236 86 l 700 86 l 700 0 l 147 0 z "},"Ǉ":{"ha":1219,"x_min":147,"x_max":1083,"o":"m 147 0 l 147 956 l 236 956 l 236 86 l 700 86 l 700 0 l 147 0 m 796 81 q 939 97 903 83 q 985 159 975 111 q 994 349 994 207 l 994 956 l 1083 956 l 1083 382 q 1068 113 1083 183 q 999 22 1053 42 q 796 0 946 1 l 796 81 z "},"Ĺ":{"ha":746,"x_min":147,"x_max":700,"o":"m 147 0 l 147 956 l 236 956 l 236 86 l 700 86 l 700 0 l 147 0 m 151 1039 l 151 1046 l 294 1233 l 392 1233 l 392 1226 l 215 1039 l 151 1039 z "},"Ľ":{"ha":746,"x_min":147,"x_max":700,"o":"m 147 0 l 147 956 l 236 956 l 236 86 l 700 86 l 700 0 l 147 0 m 450 621 l 468 843 l 468 956 l 553 956 l 553 843 l 507 621 l 450 621 z "},"Ļ":{"ha":746,"x_min":147,"x_max":700,"o":"m 147 0 l 147 956 l 236 956 l 236 86 l 700 86 l 700 0 l 147 0 m 332 -303 q 394 -288 381 -303 q 408 -226 408 -274 l 408 -203 l 367 -203 l 367 -86 l 467 -86 l 467 -194 q 456 -290 467 -258 q 418 -335 446 -322 q 332 -347 390 -347 l 332 -303 z "},"Ŀ":{"ha":746,"x_min":147,"x_max":700,"o":"m 147 0 l 147 956 l 236 956 l 236 86 l 700 86 l 700 0 l 147 0 m 518 446 l 518 567 l 621 567 l 621 446 l 518 446 z "},"ǈ":{"ha":1088,"x_min":147,"x_max":964,"o":"m 147 0 l 147 956 l 236 956 l 236 86 l 700 86 l 700 0 l 147 0 m 869 922 l 869 1032 l 964 1032 l 964 922 l 869 922 m 738 -206 q 828 -199 800 -206 q 865 -176 857 -192 q 874 -128 874 -161 l 874 708 l 958 708 l 958 -107 q 937 -222 958 -186 q 872 -267 915 -257 q 738 -278 828 -278 l 738 -206 z "},"Ł":{"ha":746,"x_min":56,"x_max":700,"o":"m 236 86 l 700 86 l 700 0 l 147 0 l 147 414 l 56 379 l 56 456 l 147 490 l 147 956 l 236 956 l 236 522 l 514 626 l 514 550 l 236 446 l 236 86 z "},"M":{"ha":1263,"x_min":147,"x_max":1115,"o":"m 1028 0 l 1028 797 l 1022 797 l 664 0 l 596 0 l 238 797 l 232 797 l 232 0 l 147 0 l 147 956 l 267 956 l 628 153 l 635 153 l 997 956 l 1115 956 l 1115 0 l 1028 0 z "},"N":{"ha":1019,"x_min":147,"x_max":871,"o":"m 786 0 l 239 788 l 233 788 l 233 0 l 147 0 l 147 956 l 238 956 l 781 176 l 786 176 l 786 956 l 871 956 l 871 0 l 786 0 z "},"Ǌ":{"ha":1493,"x_min":147,"x_max":1357,"o":"m 786 0 l 239 788 l 233 788 l 233 0 l 147 0 l 147 956 l 238 956 l 781 176 l 786 176 l 786 956 l 871 956 l 871 0 l 786 0 m 1069 81 q 1213 97 1176 83 q 1258 159 1249 111 q 1268 349 1268 207 l 1268 956 l 1357 956 l 1357 382 q 1342 113 1357 183 q 1273 22 1326 42 q 1069 0 1219 1 l 1069 81 z "},"Ń":{"ha":1019,"x_min":147,"x_max":871,"o":"m 786 0 l 239 788 l 233 788 l 233 0 l 147 0 l 147 956 l 238 956 l 781 176 l 786 176 l 786 956 l 871 956 l 871 0 l 786 0 m 469 1039 l 469 1046 l 613 1233 l 710 1233 l 710 1226 l 533 1039 l 469 1039 z "},"Ň":{"ha":1019,"x_min":147,"x_max":871,"o":"m 786 0 l 239 788 l 233 788 l 233 0 l 147 0 l 147 956 l 238 956 l 781 176 l 786 176 l 786 956 l 871 956 l 871 0 l 786 0 m 463 1039 l 318 1225 l 318 1233 l 378 1233 l 510 1093 l 642 1233 l 701 1233 l 701 1225 l 557 1039 l 463 1039 z "},"Ņ":{"ha":1019,"x_min":147,"x_max":871,"o":"m 786 0 l 239 788 l 233 788 l 233 0 l 147 0 l 147 956 l 238 956 l 781 176 l 786 176 l 786 956 l 871 956 l 871 0 l 786 0 m 442 -303 q 504 -288 490 -303 q 518 -226 518 -274 l 518 -203 l 476 -203 l 476 -86 l 576 -86 l 576 -194 q 566 -290 576 -258 q 528 -335 556 -322 q 442 -347 500 -347 l 442 -303 z "},"Ṅ":{"ha":1019,"x_min":147,"x_max":871,"o":"m 786 0 l 239 788 l 233 788 l 233 0 l 147 0 l 147 956 l 238 956 l 781 176 l 786 176 l 786 956 l 871 956 l 871 0 l 786 0 m 467 1114 l 467 1217 l 553 1217 l 553 1114 l 467 1114 z "},"Ŋ":{"ha":1019,"x_min":147,"x_max":871,"o":"m 871 956 l 871 -107 q 849 -222 871 -186 q 783 -267 828 -257 q 649 -278 739 -278 l 649 -206 q 740 -199 711 -206 q 777 -176 768 -192 q 786 -128 786 -161 l 786 0 l 239 788 l 233 788 l 233 0 l 147 0 l 147 956 l 238 956 l 781 176 l 786 176 l 786 956 l 871 956 z "},"Ɲ":{"ha":1019,"x_min":11,"x_max":871,"o":"m 871 956 l 871 0 l 786 0 l 239 788 l 233 788 l 233 -107 q 212 -222 233 -186 q 146 -267 190 -257 q 11 -278 101 -278 l 11 -206 q 102 -199 74 -206 q 139 -176 131 -192 q 147 -128 147 -161 l 147 956 l 238 956 l 781 176 l 786 176 l 786 956 l 871 956 z "},"ǋ":{"ha":1361,"x_min":147,"x_max":1238,"o":"m 786 0 l 239 788 l 233 788 l 233 0 l 147 0 l 147 956 l 238 956 l 781 176 l 786 176 l 786 956 l 871 956 l 871 0 l 786 0 m 1143 922 l 1143 1032 l 1238 1032 l 1238 922 l 1143 922 m 1011 -206 q 1102 -199 1074 -206 q 1139 -176 1131 -192 q 1147 -128 1147 -161 l 1147 708 l 1232 708 l 1232 -107 q 1210 -222 1232 -186 q 1145 -267 1189 -257 q 1011 -278 1101 -278 l 1011 -206 z "},"Ñ":{"ha":1019,"x_min":147,"x_max":871,"o":"m 786 0 l 239 788 l 233 788 l 233 0 l 147 0 l 147 956 l 238 956 l 781 176 l 786 176 l 786 956 l 871 956 l 871 0 l 786 0 m 758 1207 q 740 1091 758 1124 q 663 1058 722 1058 q 590 1067 625 1058 q 497 1094 554 1076 q 459 1106 488 1097 q 408 1118 431 1114 q 367 1122 385 1122 q 329 1106 338 1122 q 321 1043 321 1089 l 268 1043 q 275 1131 268 1100 q 302 1176 282 1161 q 363 1192 322 1192 q 433 1183 399 1192 q 529 1157 468 1175 q 603 1135 575 1142 q 660 1128 632 1128 q 697 1144 689 1128 q 706 1207 706 1161 l 758 1207 z "},"O":{"ha":1000,"x_min":114,"x_max":886,"o":"m 500 -11 q 235 24 313 -11 q 135 153 157 60 q 114 478 114 247 q 135 802 114 708 q 235 931 157 896 q 500 967 313 967 q 765 931 688 967 q 865 802 843 896 q 886 478 886 708 q 865 153 886 247 q 765 24 843 60 q 500 -11 688 -11 m 500 72 q 708 92 653 72 q 780 190 763 113 q 797 478 797 267 q 780 766 797 689 q 708 863 763 843 q 500 883 653 883 q 292 863 347 883 q 220 766 238 843 q 203 478 203 689 q 220 190 203 267 q 292 92 238 113 q 500 72 347 72 z "},"Ó":{"ha":1000,"x_min":114,"x_max":886,"o":"m 500 -11 q 235 24 313 -11 q 135 153 157 60 q 114 478 114 247 q 135 802 114 708 q 235 931 157 896 q 500 967 313 967 q 765 931 688 967 q 865 802 843 896 q 886 478 886 708 q 865 153 886 247 q 765 24 843 60 q 500 -11 688 -11 m 500 72 q 708 92 653 72 q 780 190 763 113 q 797 478 797 267 q 780 766 797 689 q 708 863 763 843 q 500 883 653 883 q 292 863 347 883 q 220 766 238 843 q 203 478 203 689 q 220 190 203 267 q 292 92 238 113 q 500 72 347 72 m 453 1042 l 453 1049 l 596 1236 l 693 1236 l 693 1229 l 517 1042 l 453 1042 z "},"Ŏ":{"ha":1000,"x_min":114,"x_max":886,"o":"m 500 -11 q 235 24 313 -11 q 135 153 157 60 q 114 478 114 247 q 135 802 114 708 q 235 931 157 896 q 500 967 313 967 q 765 931 688 967 q 865 802 843 896 q 886 478 886 708 q 865 153 886 247 q 765 24 843 60 q 500 -11 688 -11 m 500 72 q 708 92 653 72 q 780 190 763 113 q 797 478 797 267 q 780 766 797 689 q 708 863 763 843 q 500 883 653 883 q 292 863 347 883 q 220 766 238 843 q 203 478 203 689 q 220 190 203 267 q 292 92 238 113 q 500 72 347 72 m 685 1233 q 674 1123 685 1163 q 624 1059 664 1083 q 499 1035 583 1035 q 374 1059 414 1035 q 324 1123 333 1083 q 314 1233 314 1163 l 374 1233 q 380 1151 374 1178 q 413 1110 386 1125 q 499 1094 439 1094 q 585 1110 558 1094 q 619 1152 613 1125 q 625 1233 625 1179 l 685 1233 z "},"Ǒ":{"ha":1000,"x_min":114,"x_max":886,"o":"m 500 -11 q 235 24 313 -11 q 135 153 157 60 q 114 478 114 247 q 135 802 114 708 q 235 931 157 896 q 500 967 313 967 q 765 931 688 967 q 865 802 843 896 q 886 478 886 708 q 865 153 886 247 q 765 24 843 60 q 500 -11 688 -11 m 500 72 q 708 92 653 72 q 780 190 763 113 q 797 478 797 267 q 780 766 797 689 q 708 863 763 843 q 500 883 653 883 q 292 863 347 883 q 220 766 238 843 q 203 478 203 689 q 220 190 203 267 q 292 92 238 113 q 500 72 347 72 m 453 1039 l 308 1225 l 308 1233 l 368 1233 l 500 1093 l 632 1233 l 692 1233 l 692 1225 l 547 1039 l 453 1039 z "},"Ô":{"ha":1000,"x_min":114,"x_max":886,"o":"m 500 -11 q 235 24 313 -11 q 135 153 157 60 q 114 478 114 247 q 135 802 114 708 q 235 931 157 896 q 500 967 313 967 q 765 931 688 967 q 865 802 843 896 q 886 478 886 708 q 865 153 886 247 q 765 24 843 60 q 500 -11 688 -11 m 500 72 q 708 92 653 72 q 780 190 763 113 q 797 478 797 267 q 780 766 797 689 q 708 863 763 843 q 500 883 653 883 q 292 863 347 883 q 220 766 238 843 q 203 478 203 689 q 220 190 203 267 q 292 92 238 113 q 500 72 347 72 m 308 1042 l 308 1050 l 453 1236 l 547 1236 l 692 1050 l 692 1042 l 632 1042 l 500 1182 l 368 1042 l 308 1042 z "},"Ố":{"ha":1000,"x_min":114,"x_max":886,"o":"m 500 -11 q 235 24 313 -11 q 135 153 157 60 q 114 478 114 247 q 135 802 114 708 q 235 931 157 896 q 500 967 313 967 q 765 931 688 967 q 865 802 843 896 q 886 478 886 708 q 865 153 886 247 q 765 24 843 60 q 500 -11 688 -11 m 500 72 q 708 92 653 72 q 780 190 763 113 q 797 478 797 267 q 780 766 797 689 q 708 863 763 843 q 500 883 653 883 q 292 863 347 883 q 220 766 238 843 q 203 478 203 689 q 220 190 203 267 q 292 92 238 113 q 500 72 347 72 m 303 1039 l 303 1047 l 447 1233 l 542 1233 l 686 1047 l 686 1039 l 626 1039 l 494 1179 l 363 1039 l 303 1039 m 581 1247 l 581 1254 l 724 1442 l 821 1442 l 821 1435 l 644 1247 l 581 1247 z "},"Ộ":{"ha":1000,"x_min":114,"x_max":886,"o":"m 500 -11 q 235 24 313 -11 q 135 153 157 60 q 114 478 114 247 q 135 802 114 708 q 235 931 157 896 q 500 967 313 967 q 765 931 688 967 q 865 802 843 896 q 886 478 886 708 q 865 153 886 247 q 765 24 843 60 q 500 -11 688 -11 m 500 72 q 708 92 653 72 q 780 190 763 113 q 797 478 797 267 q 780 766 797 689 q 708 863 763 843 q 500 883 653 883 q 292 863 347 883 q 220 766 238 843 q 203 478 203 689 q 220 190 203 267 q 292 92 238 113 q 500 72 347 72 m 449 -207 l 449 -86 l 551 -86 l 551 -207 l 449 -207 m 308 1039 l 308 1047 l 453 1233 l 547 1233 l 692 1047 l 692 1039 l 632 1039 l 500 1179 l 368 1039 l 308 1039 z "},"Ồ":{"ha":1000,"x_min":114,"x_max":886,"o":"m 500 -11 q 235 24 313 -11 q 135 153 157 60 q 114 478 114 247 q 135 802 114 708 q 235 931 157 896 q 500 967 313 967 q 765 931 688 967 q 865 802 843 896 q 886 478 886 708 q 865 153 886 247 q 765 24 843 60 q 500 -11 688 -11 m 500 72 q 708 92 653 72 q 780 190 763 113 q 797 478 797 267 q 780 766 797 689 q 708 863 763 843 q 500 883 653 883 q 292 863 347 883 q 220 766 238 843 q 203 478 203 689 q 220 190 203 267 q 292 92 238 113 q 500 72 347 72 m 303 1039 l 303 1047 l 447 1233 l 542 1233 l 686 1047 l 686 1039 l 626 1039 l 494 1179 l 363 1039 l 303 1039 m 632 1247 l 456 1435 l 456 1442 l 553 1442 l 696 1254 l 696 1247 l 632 1247 z "},"Ổ":{"ha":1000,"x_min":114,"x_max":886,"o":"m 500 -11 q 235 24 313 -11 q 135 153 157 60 q 114 478 114 247 q 135 802 114 708 q 235 931 157 896 q 500 967 313 967 q 765 931 688 967 q 865 802 843 896 q 886 478 886 708 q 865 153 886 247 q 765 24 843 60 q 500 -11 688 -11 m 500 72 q 708 92 653 72 q 780 190 763 113 q 797 478 797 267 q 780 766 797 689 q 708 863 763 843 q 500 883 653 883 q 292 863 347 883 q 220 766 238 843 q 203 478 203 689 q 220 190 203 267 q 292 92 238 113 q 500 72 347 72 m 308 1039 l 308 1047 l 453 1233 l 547 1233 l 692 1047 l 692 1039 l 632 1039 l 500 1179 l 368 1039 l 308 1039 m 558 1257 q 570 1306 558 1292 q 618 1329 582 1319 l 651 1339 q 715 1362 701 1351 q 729 1399 729 1372 q 718 1437 729 1425 q 684 1451 707 1449 q 611 1454 661 1454 q 457 1447 547 1454 l 457 1499 q 614 1508 519 1508 q 719 1501 682 1508 q 774 1473 756 1494 q 793 1407 793 1451 q 777 1340 793 1361 q 710 1306 761 1319 l 672 1294 q 630 1281 642 1286 q 615 1269 618 1276 q 613 1243 613 1261 l 558 1243 l 558 1257 z "},"Ỗ":{"ha":1000,"x_min":114,"x_max":886,"o":"m 500 -11 q 235 24 313 -11 q 135 153 157 60 q 114 478 114 247 q 135 802 114 708 q 235 931 157 896 q 500 967 313 967 q 765 931 688 967 q 865 802 843 896 q 886 478 886 708 q 865 153 886 247 q 765 24 843 60 q 500 -11 688 -11 m 500 72 q 708 92 653 72 q 780 190 763 113 q 797 478 797 267 q 780 766 797 689 q 708 863 763 843 q 500 883 653 883 q 292 863 347 883 q 220 766 238 843 q 203 478 203 689 q 220 190 203 267 q 292 92 238 113 q 500 72 347 72 m 306 1039 l 306 1047 l 450 1233 l 544 1233 l 689 1047 l 689 1039 l 629 1039 l 497 1179 l 365 1039 l 306 1039 m 744 1474 q 726 1358 744 1390 q 649 1325 708 1325 q 576 1334 611 1325 q 483 1361 540 1343 q 445 1372 474 1364 q 394 1385 417 1381 q 353 1389 371 1389 q 315 1372 324 1389 q 307 1310 307 1356 l 254 1310 q 261 1397 254 1367 q 288 1443 268 1428 q 349 1458 308 1458 q 419 1450 385 1458 q 515 1424 454 1442 q 590 1401 561 1408 q 646 1394 618 1394 q 683 1411 675 1394 q 692 1474 692 1428 l 744 1474 z "},"Ȍ":{"ha":1000,"x_min":114,"x_max":886,"o":"m 500 -11 q 235 24 313 -11 q 135 153 157 60 q 114 478 114 247 q 135 802 114 708 q 235 931 157 896 q 500 967 313 967 q 765 931 688 967 q 865 802 843 896 q 886 478 886 708 q 865 153 886 247 q 765 24 843 60 q 500 -11 688 -11 m 500 72 q 708 92 653 72 q 780 190 763 113 q 797 478 797 267 q 780 766 797 689 q 708 863 763 843 q 500 883 653 883 q 292 863 347 883 q 220 766 238 843 q 203 478 203 689 q 220 190 203 267 q 292 92 238 113 q 500 72 347 72 m 413 1043 l 354 1043 l 183 1222 l 183 1229 l 272 1229 l 413 1050 l 413 1043 m 679 1043 l 622 1043 l 451 1222 l 451 1229 l 539 1229 l 679 1050 l 679 1043 z "},"Ö":{"ha":1000,"x_min":114,"x_max":886,"o":"m 500 -11 q 235 24 313 -11 q 135 153 157 60 q 114 478 114 247 q 135 802 114 708 q 235 931 157 896 q 500 967 313 967 q 765 931 688 967 q 865 802 843 896 q 886 478 886 708 q 865 153 886 247 q 765 24 843 60 q 500 -11 688 -11 m 500 72 q 708 92 653 72 q 780 190 763 113 q 797 478 797 267 q 780 766 797 689 q 708 863 763 843 q 500 883 653 883 q 292 863 347 883 q 220 766 238 843 q 203 478 203 689 q 220 190 203 267 q 292 92 238 113 q 500 72 347 72 m 329 1074 l 329 1176 l 415 1176 l 415 1074 l 329 1074 m 586 1074 l 586 1176 l 672 1176 l 672 1074 l 586 1074 z "},"Ọ":{"ha":1000,"x_min":114,"x_max":886,"o":"m 500 -11 q 235 24 313 -11 q 135 153 157 60 q 114 478 114 247 q 135 802 114 708 q 235 931 157 896 q 500 967 313 967 q 765 931 688 967 q 865 802 843 896 q 886 478 886 708 q 865 153 886 247 q 765 24 843 60 q 500 -11 688 -11 m 500 72 q 708 92 653 72 q 780 190 763 113 q 797 478 797 267 q 780 766 797 689 q 708 863 763 843 q 500 883 653 883 q 292 863 347 883 q 220 766 238 843 q 203 478 203 689 q 220 190 203 267 q 292 92 238 113 q 500 72 347 72 m 449 -207 l 449 -86 l 551 -86 l 551 -207 l 449 -207 z "},"Ò":{"ha":1000,"x_min":114,"x_max":886,"o":"m 500 -11 q 235 24 313 -11 q 135 153 157 60 q 114 478 114 247 q 135 802 114 708 q 235 931 157 896 q 500 967 313 967 q 765 931 688 967 q 865 802 843 896 q 886 478 886 708 q 865 153 886 247 q 765 24 843 60 q 500 -11 688 -11 m 500 72 q 708 92 653 72 q 780 190 763 113 q 797 478 797 267 q 780 766 797 689 q 708 863 763 843 q 500 883 653 883 q 292 863 347 883 q 220 766 238 843 q 203 478 203 689 q 220 190 203 267 q 292 92 238 113 q 500 72 347 72 m 475 1042 l 299 1229 l 299 1236 l 396 1236 l 539 1049 l 539 1042 l 475 1042 z "},"Ỏ":{"ha":1000,"x_min":114,"x_max":886,"o":"m 500 -11 q 235 24 313 -11 q 135 153 157 60 q 114 478 114 247 q 135 802 114 708 q 235 931 157 896 q 500 967 313 967 q 765 931 688 967 q 865 802 843 896 q 886 478 886 708 q 865 153 886 247 q 765 24 843 60 q 500 -11 688 -11 m 500 72 q 708 92 653 72 q 780 190 763 113 q 797 478 797 267 q 780 766 797 689 q 708 863 763 843 q 500 883 653 883 q 292 863 347 883 q 220 766 238 843 q 203 478 203 689 q 220 190 203 267 q 292 92 238 113 q 500 72 347 72 m 433 1028 q 445 1076 433 1063 q 493 1100 457 1089 l 526 1110 q 590 1133 576 1122 q 604 1169 604 1143 q 593 1208 604 1196 q 559 1222 582 1219 q 486 1225 536 1225 q 332 1218 422 1225 l 332 1269 q 489 1279 394 1279 q 594 1272 557 1279 q 649 1244 631 1265 q 668 1178 668 1222 q 652 1111 668 1132 q 585 1076 636 1090 l 547 1065 q 505 1052 517 1057 q 490 1040 493 1047 q 488 1014 488 1032 l 433 1014 l 433 1028 z "},"Ơ":{"ha":1000,"x_min":114,"x_max":903,"o":"m 903 1053 q 883 944 903 975 q 803 908 863 914 q 858 824 840 878 q 881 693 875 771 q 886 478 886 615 q 865 153 886 247 q 765 24 843 60 q 500 -11 688 -11 q 235 24 313 -11 q 135 153 157 60 q 114 478 114 247 q 135 802 114 708 q 235 931 157 896 q 500 967 313 967 q 683 956 618 967 l 763 956 q 811 963 796 956 q 831 988 826 971 q 836 1043 836 1006 l 836 1089 l 903 1089 l 903 1053 m 500 72 q 708 92 653 72 q 780 190 763 113 q 797 478 797 267 q 780 766 797 689 q 708 863 763 843 q 500 883 653 883 q 292 863 347 883 q 220 766 238 843 q 203 478 203 689 q 220 190 203 267 q 292 92 238 113 q 500 72 347 72 z "},"Ớ":{"ha":1000,"x_min":114,"x_max":903,"o":"m 903 1053 q 883 944 903 975 q 803 908 863 914 q 858 824 840 878 q 881 693 875 771 q 886 478 886 615 q 865 153 886 247 q 765 24 843 60 q 500 -11 688 -11 q 235 24 313 -11 q 135 153 157 60 q 114 478 114 247 q 135 802 114 708 q 235 931 157 896 q 500 967 313 967 q 683 956 618 967 l 763 956 q 811 963 796 956 q 831 988 826 971 q 836 1043 836 1006 l 836 1089 l 903 1089 l 903 1053 m 500 72 q 708 92 653 72 q 780 190 763 113 q 797 478 797 267 q 780 766 797 689 q 708 863 763 843 q 500 883 653 883 q 292 863 347 883 q 220 766 238 843 q 203 478 203 689 q 220 190 203 267 q 292 92 238 113 q 500 72 347 72 m 460 1039 l 460 1046 l 603 1233 l 700 1233 l 700 1226 l 524 1039 l 460 1039 z "},"Ợ":{"ha":1000,"x_min":114,"x_max":903,"o":"m 903 1053 q 883 944 903 975 q 803 908 863 914 q 858 824 840 878 q 881 693 875 771 q 886 478 886 615 q 865 153 886 247 q 765 24 843 60 q 500 -11 688 -11 q 235 24 313 -11 q 135 153 157 60 q 114 478 114 247 q 135 802 114 708 q 235 931 157 896 q 500 967 313 967 q 683 956 618 967 l 763 956 q 811 963 796 956 q 831 988 826 971 q 836 1043 836 1006 l 836 1089 l 903 1089 l 903 1053 m 500 72 q 708 92 653 72 q 780 190 763 113 q 797 478 797 267 q 780 766 797 689 q 708 863 763 843 q 500 883 653 883 q 292 863 347 883 q 220 766 238 843 q 203 478 203 689 q 220 190 203 267 q 292 92 238 113 q 500 72 347 72 m 449 -207 l 449 -86 l 551 -86 l 551 -207 l 449 -207 z "},"Ờ":{"ha":1000,"x_min":114,"x_max":903,"o":"m 903 1053 q 883 944 903 975 q 803 908 863 914 q 858 824 840 878 q 881 693 875 771 q 886 478 886 615 q 865 153 886 247 q 765 24 843 60 q 500 -11 688 -11 q 235 24 313 -11 q 135 153 157 60 q 114 478 114 247 q 135 802 114 708 q 235 931 157 896 q 500 967 313 967 q 683 956 618 967 l 763 956 q 811 963 796 956 q 831 988 826 971 q 836 1043 836 1006 l 836 1089 l 903 1089 l 903 1053 m 500 72 q 708 92 653 72 q 780 190 763 113 q 797 478 797 267 q 780 766 797 689 q 708 863 763 843 q 500 883 653 883 q 292 863 347 883 q 220 766 238 843 q 203 478 203 689 q 220 190 203 267 q 292 92 238 113 q 500 72 347 72 m 482 1039 l 306 1226 l 306 1233 l 403 1233 l 546 1046 l 546 1039 l 482 1039 z "},"Ở":{"ha":1000,"x_min":114,"x_max":903,"o":"m 903 1053 q 883 944 903 975 q 803 908 863 914 q 858 824 840 878 q 881 693 875 771 q 886 478 886 615 q 865 153 886 247 q 765 24 843 60 q 500 -11 688 -11 q 235 24 313 -11 q 135 153 157 60 q 114 478 114 247 q 135 802 114 708 q 235 931 157 896 q 500 967 313 967 q 683 956 618 967 l 763 956 q 811 963 796 956 q 831 988 826 971 q 836 1043 836 1006 l 836 1089 l 903 1089 l 903 1053 m 500 72 q 708 92 653 72 q 780 190 763 113 q 797 478 797 267 q 780 766 797 689 q 708 863 763 843 q 500 883 653 883 q 292 863 347 883 q 220 766 238 843 q 203 478 203 689 q 220 190 203 267 q 292 92 238 113 q 500 72 347 72 m 433 1028 q 445 1076 433 1063 q 493 1100 457 1089 l 526 1110 q 590 1133 576 1122 q 604 1169 604 1143 q 593 1208 604 1196 q 559 1222 582 1219 q 486 1225 536 1225 q 332 1218 422 1225 l 332 1269 q 489 1279 394 1279 q 594 1272 557 1279 q 649 1244 631 1265 q 668 1178 668 1222 q 652 1111 668 1132 q 585 1076 636 1090 l 547 1065 q 505 1052 517 1057 q 490 1040 493 1047 q 488 1014 488 1032 l 433 1014 l 433 1028 z "},"Ỡ":{"ha":1000,"x_min":114,"x_max":903,"o":"m 903 1053 q 883 944 903 975 q 803 908 863 914 q 858 824 840 878 q 881 693 875 771 q 886 478 886 615 q 865 153 886 247 q 765 24 843 60 q 500 -11 688 -11 q 235 24 313 -11 q 135 153 157 60 q 114 478 114 247 q 135 802 114 708 q 235 931 157 896 q 500 967 313 967 q 683 956 618 967 l 763 956 q 811 963 796 956 q 831 988 826 971 q 836 1043 836 1006 l 836 1089 l 903 1089 l 903 1053 m 500 72 q 708 92 653 72 q 780 190 763 113 q 797 478 797 267 q 780 766 797 689 q 708 863 763 843 q 500 883 653 883 q 292 863 347 883 q 220 766 238 843 q 203 478 203 689 q 220 190 203 267 q 292 92 238 113 q 500 72 347 72 m 744 1233 q 726 1117 744 1150 q 649 1085 708 1085 q 576 1094 611 1085 q 483 1121 540 1103 q 445 1132 474 1124 q 394 1144 417 1140 q 353 1149 371 1149 q 315 1132 324 1149 q 307 1069 307 1115 l 254 1069 q 261 1157 254 1126 q 288 1203 268 1188 q 349 1218 308 1218 q 419 1210 385 1218 q 515 1183 454 1201 q 590 1161 561 1168 q 646 1154 618 1154 q 683 1171 675 1154 q 692 1233 692 1188 l 744 1233 z "},"Ő":{"ha":1000,"x_min":114,"x_max":886,"o":"m 500 -11 q 235 24 313 -11 q 135 153 157 60 q 114 478 114 247 q 135 802 114 708 q 235 931 157 896 q 500 967 313 967 q 765 931 688 967 q 865 802 843 896 q 886 478 886 708 q 865 153 886 247 q 765 24 843 60 q 500 -11 688 -11 m 500 72 q 708 92 653 72 q 780 190 763 113 q 797 478 797 267 q 780 766 797 689 q 708 863 763 843 q 500 883 653 883 q 292 863 347 883 q 220 766 238 843 q 203 478 203 689 q 220 190 203 267 q 292 92 238 113 q 500 72 347 72 m 335 1043 l 335 1050 l 475 1229 l 563 1229 l 563 1222 l 392 1043 l 335 1043 m 601 1043 l 601 1050 l 742 1229 l 831 1229 l 831 1222 l 660 1043 l 601 1043 z "},"Ȏ":{"ha":1000,"x_min":114,"x_max":886,"o":"m 500 -11 q 235 24 313 -11 q 135 153 157 60 q 114 478 114 247 q 135 802 114 708 q 235 931 157 896 q 500 967 313 967 q 765 931 688 967 q 865 802 843 896 q 886 478 886 708 q 865 153 886 247 q 765 24 843 60 q 500 -11 688 -11 m 500 72 q 708 92 653 72 q 780 190 763 113 q 797 478 797 267 q 780 766 797 689 q 708 863 763 843 q 500 883 653 883 q 292 863 347 883 q 220 766 238 843 q 203 478 203 689 q 220 190 203 267 q 292 92 238 113 q 500 72 347 72 m 314 1043 q 324 1153 314 1114 q 375 1217 335 1193 q 500 1242 415 1242 q 625 1217 585 1242 q 675 1153 665 1193 q 685 1043 685 1114 l 625 1043 q 619 1125 625 1099 q 586 1167 613 1151 q 500 1182 560 1182 q 413 1167 440 1182 q 380 1124 386 1151 q 374 1043 374 1097 l 314 1043 z "},"Ō":{"ha":1000,"x_min":114,"x_max":886,"o":"m 500 -11 q 235 24 313 -11 q 135 153 157 60 q 114 478 114 247 q 135 802 114 708 q 235 931 157 896 q 500 967 313 967 q 765 931 688 967 q 865 802 843 896 q 886 478 886 708 q 865 153 886 247 q 765 24 843 60 q 500 -11 688 -11 m 500 72 q 708 92 653 72 q 780 190 763 113 q 797 478 797 267 q 780 766 797 689 q 708 863 763 843 q 500 883 653 883 q 292 863 347 883 q 220 766 238 843 q 203 478 203 689 q 220 190 203 267 q 292 92 238 113 q 500 72 347 72 m 336 1147 l 336 1232 l 663 1232 l 663 1147 l 336 1147 z "},"Ǫ":{"ha":1000,"x_min":114,"x_max":886,"o":"m 696 -272 q 603 -244 632 -272 q 575 -171 575 -217 q 665 -1 575 -89 q 500 -11 603 -11 q 235 24 313 -11 q 135 153 157 60 q 114 478 114 247 q 135 802 114 708 q 235 931 157 896 q 500 967 313 967 q 765 931 688 967 q 865 802 843 896 q 886 478 886 708 q 879 246 886 328 q 850 111 872 164 q 779 31 828 58 q 688 -52 726 0 q 650 -151 650 -104 q 665 -192 650 -176 q 715 -208 681 -208 q 739 -207 729 -208 l 739 -269 q 696 -272 719 -272 m 500 72 q 708 92 653 72 q 780 190 763 113 q 797 478 797 267 q 780 766 797 689 q 708 863 763 843 q 500 883 653 883 q 292 863 347 883 q 220 766 238 843 q 203 478 203 689 q 220 190 203 267 q 292 92 238 113 q 500 72 347 72 z "},"Ø":{"ha":1000,"x_min":114,"x_max":886,"o":"m 807 904 q 872 768 857 860 q 886 478 886 676 q 865 153 886 247 q 765 24 843 60 q 500 -11 688 -11 q 253 17 326 -11 l 194 -76 l 114 -76 l 193 51 q 128 188 143 96 q 114 478 114 279 q 135 802 114 708 q 235 931 157 896 q 500 967 313 967 q 746 939 672 967 l 804 1032 l 886 1032 l 807 904 m 203 478 q 211 247 203 322 q 244 132 219 171 l 701 865 q 626 880 671 876 q 500 883 581 883 q 292 863 347 883 q 220 766 238 843 q 203 478 203 689 m 500 72 q 708 92 653 72 q 780 190 763 113 q 797 478 797 267 q 789 709 797 633 q 756 824 781 785 l 299 90 q 374 76 329 79 q 500 72 419 72 z "},"Ǿ":{"ha":1000,"x_min":114,"x_max":886,"o":"m 807 904 q 872 768 857 860 q 886 478 886 676 q 865 153 886 247 q 765 24 843 60 q 500 -11 688 -11 q 253 17 326 -11 l 194 -76 l 114 -76 l 193 51 q 128 188 143 96 q 114 478 114 279 q 135 802 114 708 q 235 931 157 896 q 500 967 313 967 q 746 939 672 967 l 804 1032 l 886 1032 l 807 904 m 203 478 q 211 247 203 322 q 244 132 219 171 l 701 865 q 626 880 671 876 q 500 883 581 883 q 292 863 347 883 q 220 766 238 843 q 203 478 203 689 m 500 72 q 708 92 653 72 q 780 190 763 113 q 797 478 797 267 q 789 709 797 633 q 756 824 781 785 l 299 90 q 374 76 329 79 q 500 72 419 72 m 460 1039 l 460 1046 l 603 1233 l 700 1233 l 700 1226 l 524 1039 l 460 1039 z "},"Õ":{"ha":1000,"x_min":114,"x_max":886,"o":"m 500 -11 q 235 24 313 -11 q 135 153 157 60 q 114 478 114 247 q 135 802 114 708 q 235 931 157 896 q 500 967 313 967 q 765 931 688 967 q 865 802 843 896 q 886 478 886 708 q 865 153 886 247 q 765 24 843 60 q 500 -11 688 -11 m 500 72 q 708 92 653 72 q 780 190 763 113 q 797 478 797 267 q 780 766 797 689 q 708 863 763 843 q 500 883 653 883 q 292 863 347 883 q 220 766 238 843 q 203 478 203 689 q 220 190 203 267 q 292 92 238 113 q 500 72 347 72 m 746 1206 q 728 1090 746 1122 q 650 1057 710 1057 q 577 1066 613 1057 q 485 1093 542 1075 q 447 1104 475 1096 q 395 1117 418 1113 q 354 1121 372 1121 q 317 1104 325 1121 q 308 1042 308 1088 l 256 1042 q 263 1129 256 1099 q 290 1175 269 1160 q 350 1190 310 1190 q 421 1182 386 1190 q 517 1156 456 1174 q 591 1133 563 1140 q 647 1126 619 1126 q 685 1143 676 1126 q 693 1206 693 1160 l 746 1206 z "},"Œ":{"ha":1467,"x_min":114,"x_max":1389,"o":"m 500 0 q 235 34 313 0 q 135 160 157 68 q 114 478 114 253 q 135 795 114 703 q 235 922 157 888 q 500 956 313 956 l 1389 956 l 1389 872 l 904 872 q 803 879 842 872 q 869 759 853 838 q 886 525 885 681 l 1324 525 l 1324 442 l 886 442 q 869 197 885 276 q 803 76 854 118 q 904 83 842 83 l 1389 83 l 1389 0 l 500 0 m 500 83 q 708 103 653 83 q 780 198 763 122 q 797 478 797 274 q 780 758 797 682 q 708 853 763 833 q 500 872 653 872 q 292 853 347 872 q 220 758 238 833 q 203 478 203 682 q 220 198 203 274 q 292 103 238 122 q 500 83 347 83 z "},"P":{"ha":907,"x_min":147,"x_max":825,"o":"m 147 956 l 558 956 q 733 918 675 956 q 808 819 790 881 q 825 658 825 757 q 808 501 825 564 q 732 401 790 439 q 557 363 674 363 l 236 363 l 236 0 l 147 0 l 147 956 m 533 446 q 668 469 625 446 q 724 535 711 492 q 736 658 736 578 q 724 784 736 742 q 670 849 713 826 q 535 872 628 872 l 236 872 l 236 446 l 533 446 z "},"Þ":{"ha":907,"x_min":147,"x_max":825,"o":"m 147 956 l 236 956 l 236 783 l 558 783 q 733 746 675 783 q 808 647 790 708 q 825 486 825 585 q 808 329 825 392 q 732 228 790 267 q 557 190 674 190 l 236 190 l 236 0 l 147 0 l 147 956 m 533 274 q 668 297 625 274 q 724 363 711 319 q 736 486 736 406 q 724 612 736 569 q 670 677 713 654 q 535 700 628 700 l 236 700 l 236 274 l 533 274 z "},"Q":{"ha":1000,"x_min":114,"x_max":907,"o":"m 907 -157 l 907 -160 l 804 -160 l 686 0 q 500 -11 619 -11 q 235 24 313 -11 q 135 153 157 60 q 114 478 114 247 q 135 802 114 708 q 235 931 157 896 q 500 967 313 967 q 765 931 688 967 q 865 802 843 896 q 886 478 886 708 q 879 240 886 322 q 847 105 872 157 q 769 26 822 53 l 907 -157 m 500 72 q 631 75 596 72 l 463 303 l 561 303 l 718 94 q 769 153 753 113 q 792 267 786 194 q 797 478 797 340 q 780 766 797 689 q 708 863 763 843 q 500 883 653 883 q 292 863 347 883 q 220 766 238 843 q 203 478 203 689 q 220 190 203 267 q 292 92 238 113 q 500 72 347 72 z "},"R":{"ha":947,"x_min":147,"x_max":849,"o":"m 753 0 l 599 390 l 560 390 l 236 390 l 236 0 l 147 0 l 147 956 l 581 956 q 749 919 693 956 q 821 823 804 882 q 838 672 838 764 q 808 500 838 569 q 685 406 779 431 l 849 0 l 753 0 m 542 474 q 678 496 633 474 q 735 559 722 518 q 749 672 749 600 q 738 788 749 747 q 685 850 726 828 q 556 872 643 872 l 236 872 l 236 474 l 542 474 z "},"Ŕ":{"ha":947,"x_min":147,"x_max":849,"o":"m 753 0 l 599 390 l 560 390 l 236 390 l 236 0 l 147 0 l 147 956 l 581 956 q 749 919 693 956 q 821 823 804 882 q 838 672 838 764 q 808 500 838 569 q 685 406 779 431 l 849 0 l 753 0 m 542 474 q 678 496 633 474 q 735 559 722 518 q 749 672 749 600 q 738 788 749 747 q 685 850 726 828 q 556 872 643 872 l 236 872 l 236 474 l 542 474 m 435 1039 l 435 1046 l 578 1233 l 675 1233 l 675 1226 l 499 1039 l 435 1039 z "},"Ř":{"ha":947,"x_min":147,"x_max":849,"o":"m 753 0 l 599 390 l 560 390 l 236 390 l 236 0 l 147 0 l 147 956 l 581 956 q 749 919 693 956 q 821 823 804 882 q 838 672 838 764 q 808 500 838 569 q 685 406 779 431 l 849 0 l 753 0 m 542 474 q 678 496 633 474 q 735 559 722 518 q 749 672 749 600 q 738 788 749 747 q 685 850 726 828 q 556 872 643 872 l 236 872 l 236 474 l 542 474 m 428 1039 l 283 1225 l 283 1233 l 343 1233 l 475 1093 l 607 1233 l 667 1233 l 667 1225 l 522 1039 l 428 1039 z "},"Ŗ":{"ha":947,"x_min":147,"x_max":849,"o":"m 753 0 l 599 390 l 560 390 l 236 390 l 236 0 l 147 0 l 147 956 l 581 956 q 749 919 693 956 q 821 823 804 882 q 838 672 838 764 q 808 500 838 569 q 685 406 779 431 l 849 0 l 753 0 m 542 474 q 678 496 633 474 q 735 559 722 518 q 749 672 749 600 q 738 788 749 747 q 685 850 726 828 q 556 872 643 872 l 236 872 l 236 474 l 542 474 m 407 -303 q 469 -288 456 -303 q 483 -226 483 -274 l 483 -203 l 442 -203 l 442 -86 l 542 -86 l 542 -194 q 531 -290 542 -258 q 493 -335 521 -322 q 407 -347 465 -347 l 407 -303 z "},"Ȑ":{"ha":947,"x_min":147,"x_max":849,"o":"m 753 0 l 599 390 l 560 390 l 236 390 l 236 0 l 147 0 l 147 956 l 581 956 q 749 919 693 956 q 821 823 804 882 q 838 672 838 764 q 808 500 838 569 q 685 406 779 431 l 849 0 l 753 0 m 542 474 q 678 496 633 474 q 735 559 722 518 q 749 672 749 600 q 738 788 749 747 q 685 850 726 828 q 556 872 643 872 l 236 872 l 236 474 l 542 474 m 388 1043 l 329 1043 l 158 1222 l 158 1229 l 247 1229 l 388 1050 l 388 1043 m 654 1043 l 597 1043 l 426 1222 l 426 1229 l 514 1229 l 654 1050 l 654 1043 z "},"Ṛ":{"ha":947,"x_min":147,"x_max":849,"o":"m 753 0 l 599 390 l 560 390 l 236 390 l 236 0 l 147 0 l 147 956 l 581 956 q 749 919 693 956 q 821 823 804 882 q 838 672 838 764 q 808 500 838 569 q 685 406 779 431 l 849 0 l 753 0 m 542 474 q 678 496 633 474 q 735 559 722 518 q 749 672 749 600 q 738 788 749 747 q 685 850 726 828 q 556 872 643 872 l 236 872 l 236 474 l 542 474 m 424 -207 l 424 -86 l 526 -86 l 526 -207 l 424 -207 z "},"Ȓ":{"ha":947,"x_min":147,"x_max":849,"o":"m 753 0 l 599 390 l 560 390 l 236 390 l 236 0 l 147 0 l 147 956 l 581 956 q 749 919 693 956 q 821 823 804 882 q 838 672 838 764 q 808 500 838 569 q 685 406 779 431 l 849 0 l 753 0 m 542 474 q 678 496 633 474 q 735 559 722 518 q 749 672 749 600 q 738 788 749 747 q 685 850 726 828 q 556 872 643 872 l 236 872 l 236 474 l 542 474 m 289 1043 q 299 1153 289 1114 q 350 1217 310 1193 q 475 1242 390 1242 q 600 1217 560 1242 q 650 1153 640 1193 q 660 1043 660 1114 l 600 1043 q 594 1125 600 1099 q 561 1167 588 1151 q 475 1182 535 1182 q 388 1167 415 1182 q 355 1124 361 1151 q 349 1043 349 1097 l 289 1043 z "},"S":{"ha":876,"x_min":101,"x_max":775,"o":"m 458 -11 q 288 -6 379 -11 q 129 7 196 -1 l 129 90 q 289 78 201 83 q 433 72 376 72 q 555 78 510 72 q 633 104 600 85 q 676 160 665 122 q 686 261 686 199 q 678 369 686 339 q 641 413 671 400 q 536 435 611 426 l 293 461 q 166 500 207 469 q 113 577 125 531 q 101 706 101 624 q 138 872 101 815 q 246 947 175 928 q 438 967 317 967 q 599 961 518 967 q 728 946 681 956 l 728 867 q 594 878 672 874 q 451 883 517 883 q 319 875 369 883 q 240 849 269 867 q 200 796 210 829 q 190 706 190 763 q 199 613 190 643 q 234 570 208 583 q 317 550 260 557 l 553 525 q 694 496 647 515 q 760 421 740 476 q 775 268 775 375 q 738 83 775 143 q 635 6 700 22 q 458 -11 571 -11 z "},"Ś":{"ha":876,"x_min":101,"x_max":775,"o":"m 458 -11 q 288 -6 379 -11 q 129 7 196 -1 l 129 90 q 289 78 201 83 q 433 72 376 72 q 555 78 510 72 q 633 104 600 85 q 676 160 665 122 q 686 261 686 199 q 678 369 686 339 q 641 413 671 400 q 536 435 611 426 l 293 461 q 166 500 207 469 q 113 577 125 531 q 101 706 101 624 q 138 872 101 815 q 246 947 175 928 q 438 967 317 967 q 599 961 518 967 q 728 946 681 956 l 728 867 q 594 878 672 874 q 451 883 517 883 q 319 875 369 883 q 240 849 269 867 q 200 796 210 829 q 190 706 190 763 q 199 613 190 643 q 234 570 208 583 q 317 550 260 557 l 553 525 q 694 496 647 515 q 760 421 740 476 q 775 268 775 375 q 738 83 775 143 q 635 6 700 22 q 458 -11 571 -11 m 399 1039 l 399 1046 l 542 1233 l 639 1233 l 639 1226 l 463 1039 l 399 1039 z "},"Ꞌ":{"ha":176,"x_min":46,"x_max":131,"o":"m 46 399 l 46 956 l 131 956 l 131 708 l 104 399 l 46 399 z "},"Š":{"ha":876,"x_min":101,"x_max":775,"o":"m 458 -11 q 288 -6 379 -11 q 129 7 196 -1 l 129 90 q 289 78 201 83 q 433 72 376 72 q 555 78 510 72 q 633 104 600 85 q 676 160 665 122 q 686 261 686 199 q 678 369 686 339 q 641 413 671 400 q 536 435 611 426 l 293 461 q 166 500 207 469 q 113 577 125 531 q 101 706 101 624 q 138 872 101 815 q 246 947 175 928 q 438 967 317 967 q 599 961 518 967 q 728 946 681 956 l 728 867 q 594 878 672 874 q 451 883 517 883 q 319 875 369 883 q 240 849 269 867 q 200 796 210 829 q 190 706 190 763 q 199 613 190 643 q 234 570 208 583 q 317 550 260 557 l 553 525 q 694 496 647 515 q 760 421 740 476 q 775 268 775 375 q 738 83 775 143 q 635 6 700 22 q 458 -11 571 -11 m 404 1042 l 260 1228 l 260 1236 l 319 1236 l 451 1096 l 583 1236 l 643 1236 l 643 1228 l 499 1042 l 404 1042 z "},"Ş":{"ha":876,"x_min":101,"x_max":775,"o":"m 775 268 q 739 84 775 144 q 640 6 703 24 q 468 -11 576 -11 l 413 -264 l 325 -264 l 325 -257 l 404 -11 q 129 7 228 -6 l 129 90 q 289 78 201 83 q 433 72 376 72 q 555 78 510 72 q 633 104 600 85 q 676 160 665 122 q 686 261 686 199 q 678 369 686 339 q 641 413 671 400 q 536 435 611 426 l 293 461 q 166 500 207 469 q 113 577 125 531 q 101 706 101 624 q 138 872 101 815 q 246 947 175 928 q 438 967 317 967 q 599 961 518 967 q 728 946 681 956 l 728 867 q 594 878 672 874 q 451 883 517 883 q 319 875 369 883 q 240 849 269 867 q 200 796 210 829 q 190 706 190 763 q 199 613 190 643 q 234 570 208 583 q 317 550 260 557 l 553 525 q 694 496 647 515 q 760 421 740 476 q 775 268 775 375 z "},"Ŝ":{"ha":876,"x_min":101,"x_max":775,"o":"m 458 -11 q 288 -6 379 -11 q 129 7 196 -1 l 129 90 q 289 78 201 83 q 433 72 376 72 q 555 78 510 72 q 633 104 600 85 q 676 160 665 122 q 686 261 686 199 q 678 369 686 339 q 641 413 671 400 q 536 435 611 426 l 293 461 q 166 500 207 469 q 113 577 125 531 q 101 706 101 624 q 138 872 101 815 q 246 947 175 928 q 438 967 317 967 q 599 961 518 967 q 728 946 681 956 l 728 867 q 594 878 672 874 q 451 883 517 883 q 319 875 369 883 q 240 849 269 867 q 200 796 210 829 q 190 706 190 763 q 199 613 190 643 q 234 570 208 583 q 317 550 260 557 l 553 525 q 694 496 647 515 q 760 421 740 476 q 775 268 775 375 q 738 83 775 143 q 635 6 700 22 q 458 -11 571 -11 m 247 1039 l 247 1047 l 392 1233 l 486 1233 l 631 1047 l 631 1039 l 571 1039 l 439 1179 l 307 1039 l 247 1039 z "},"Ș":{"ha":876,"x_min":101,"x_max":775,"o":"m 458 -11 q 288 -6 379 -11 q 129 7 196 -1 l 129 90 q 289 78 201 83 q 433 72 376 72 q 555 78 510 72 q 633 104 600 85 q 676 160 665 122 q 686 261 686 199 q 678 369 686 339 q 641 413 671 400 q 536 435 611 426 l 293 461 q 166 500 207 469 q 113 577 125 531 q 101 706 101 624 q 138 872 101 815 q 246 947 175 928 q 438 967 317 967 q 599 961 518 967 q 728 946 681 956 l 728 867 q 594 878 672 874 q 451 883 517 883 q 319 875 369 883 q 240 849 269 867 q 200 796 210 829 q 190 706 190 763 q 199 613 190 643 q 234 570 208 583 q 317 550 260 557 l 553 525 q 694 496 647 515 q 760 421 740 476 q 775 268 775 375 q 738 83 775 143 q 635 6 700 22 q 458 -11 571 -11 m 371 -303 q 433 -288 419 -303 q 447 -226 447 -274 l 447 -203 l 406 -203 l 406 -86 l 506 -86 l 506 -194 q 495 -290 506 -258 q 457 -335 485 -322 q 371 -347 429 -347 l 371 -303 z "},"Ṣ":{"ha":876,"x_min":101,"x_max":775,"o":"m 458 -11 q 288 -6 379 -11 q 129 7 196 -1 l 129 90 q 289 78 201 83 q 433 72 376 72 q 555 78 510 72 q 633 104 600 85 q 676 160 665 122 q 686 261 686 199 q 678 369 686 339 q 641 413 671 400 q 536 435 611 426 l 293 461 q 166 500 207 469 q 113 577 125 531 q 101 706 101 624 q 138 872 101 815 q 246 947 175 928 q 438 967 317 967 q 599 961 518 967 q 728 946 681 956 l 728 867 q 594 878 672 874 q 451 883 517 883 q 319 875 369 883 q 240 849 269 867 q 200 796 210 829 q 190 706 190 763 q 199 613 190 643 q 234 570 208 583 q 317 550 260 557 l 553 525 q 694 496 647 515 q 760 421 740 476 q 775 268 775 375 q 738 83 775 143 q 635 6 700 22 q 458 -11 571 -11 m 388 -207 l 388 -86 l 490 -86 l 490 -207 l 388 -207 z "},"ẞ":{"ha":993,"x_min":135,"x_max":886,"o":"m 621 514 q 822 453 758 514 q 886 251 886 392 q 813 52 886 115 q 572 -11 740 -11 q 460 -5 522 -11 q 354 11 399 1 l 354 89 q 572 72 481 72 q 706 90 658 72 q 775 147 754 107 q 796 257 796 186 q 755 401 796 358 q 615 443 714 443 l 457 443 l 457 508 l 721 851 q 601 876 657 869 q 481 883 544 883 q 306 856 357 883 q 240 750 256 829 q 224 476 224 671 l 224 0 l 135 0 l 135 476 q 160 788 135 686 q 253 928 186 890 q 460 967 321 967 q 653 951 560 967 q 815 910 747 935 l 815 839 l 567 514 l 621 514 z "},"Ə":{"ha":972,"x_min":114,"x_max":858,"o":"m 467 967 q 723 932 643 967 q 831 798 803 897 q 858 478 858 699 q 838 153 858 247 q 742 24 817 60 q 486 -11 668 -11 q 230 24 304 -11 q 135 153 156 60 q 114 478 114 247 l 114 525 l 769 525 q 746 769 768 697 q 660 862 724 840 q 443 883 596 883 q 328 876 390 883 q 219 860 265 869 l 219 942 q 337 960 268 953 q 467 967 406 967 m 486 72 q 681 90 628 72 q 751 180 733 108 q 769 442 768 251 l 203 442 q 222 180 204 251 q 292 90 240 108 q 486 72 344 72 z "},"T":{"ha":807,"x_min":47,"x_max":760,"o":"m 358 0 l 358 869 l 47 869 l 47 956 l 760 956 l 760 869 l 449 869 l 449 0 l 358 0 z "},"Ŧ":{"ha":807,"x_min":47,"x_max":760,"o":"m 760 869 l 449 869 l 449 522 l 721 522 l 721 446 l 449 446 l 449 0 l 358 0 l 358 446 l 86 446 l 86 522 l 358 522 l 358 869 l 47 869 l 47 956 l 760 956 l 760 869 z "},"Ť":{"ha":807,"x_min":47,"x_max":760,"o":"m 358 0 l 358 869 l 47 869 l 47 956 l 760 956 l 760 869 l 449 869 l 449 0 l 358 0 m 356 1039 l 211 1225 l 211 1233 l 271 1233 l 403 1093 l 535 1233 l 594 1233 l 594 1225 l 450 1039 l 356 1039 z "},"Ţ":{"ha":807,"x_min":47,"x_max":760,"o":"m 47 956 l 760 956 l 760 869 l 449 869 l 449 0 l 433 0 l 376 -264 l 289 -264 l 289 -257 l 371 0 l 358 0 l 358 869 l 47 869 l 47 956 z "},"Ț":{"ha":807,"x_min":47,"x_max":760,"o":"m 358 0 l 358 869 l 47 869 l 47 956 l 760 956 l 760 869 l 449 869 l 449 0 l 358 0 m 335 -303 q 397 -288 383 -303 q 411 -226 411 -274 l 411 -203 l 369 -203 l 369 -86 l 469 -86 l 469 -194 q 459 -290 469 -258 q 421 -335 449 -322 q 335 -347 393 -347 l 335 -303 z "},"Ṭ":{"ha":807,"x_min":47,"x_max":760,"o":"m 358 0 l 358 869 l 47 869 l 47 956 l 760 956 l 760 869 l 449 869 l 449 0 l 358 0 m 351 -207 l 351 -86 l 454 -86 l 454 -207 l 351 -207 z "},"U":{"ha":989,"x_min":135,"x_max":853,"o":"m 853 956 l 853 414 q 830 144 853 229 q 733 24 807 58 q 494 -11 660 -11 q 255 24 329 -11 q 158 144 181 60 q 135 414 135 229 l 135 956 l 224 956 l 224 369 q 240 177 224 235 q 310 96 256 119 q 494 72 365 72 q 678 96 624 72 q 749 177 733 119 q 764 369 764 235 l 764 956 l 853 956 z "},"Ú":{"ha":989,"x_min":135,"x_max":853,"o":"m 853 956 l 853 414 q 830 144 853 229 q 733 24 807 58 q 494 -11 660 -11 q 255 24 329 -11 q 158 144 181 60 q 135 414 135 229 l 135 956 l 224 956 l 224 369 q 240 177 224 235 q 310 96 256 119 q 494 72 365 72 q 678 96 624 72 q 749 177 733 119 q 764 369 764 235 l 764 956 l 853 956 m 447 1042 l 447 1049 l 590 1236 l 688 1236 l 688 1229 l 511 1042 l 447 1042 z "},"Ŭ":{"ha":989,"x_min":135,"x_max":853,"o":"m 853 956 l 853 414 q 830 144 853 229 q 733 24 807 58 q 494 -11 660 -11 q 255 24 329 -11 q 158 144 181 60 q 135 414 135 229 l 135 956 l 224 956 l 224 369 q 240 177 224 235 q 310 96 256 119 q 494 72 365 72 q 678 96 624 72 q 749 177 733 119 q 764 369 764 235 l 764 956 l 853 956 m 679 1233 q 669 1123 679 1163 q 618 1059 658 1083 q 493 1035 578 1035 q 368 1059 408 1035 q 318 1123 328 1083 q 308 1233 308 1163 l 368 1233 q 374 1151 368 1178 q 407 1110 381 1125 q 493 1094 433 1094 q 580 1110 553 1094 q 613 1152 607 1125 q 619 1233 619 1179 l 679 1233 z "},"Ǔ":{"ha":989,"x_min":135,"x_max":853,"o":"m 853 956 l 853 414 q 830 144 853 229 q 733 24 807 58 q 494 -11 660 -11 q 255 24 329 -11 q 158 144 181 60 q 135 414 135 229 l 135 956 l 224 956 l 224 369 q 240 177 224 235 q 310 96 256 119 q 494 72 365 72 q 678 96 624 72 q 749 177 733 119 q 764 369 764 235 l 764 956 l 853 956 m 447 1039 l 303 1225 l 303 1233 l 363 1233 l 494 1093 l 626 1233 l 686 1233 l 686 1225 l 542 1039 l 447 1039 z "},"Û":{"ha":989,"x_min":135,"x_max":853,"o":"m 853 956 l 853 414 q 830 144 853 229 q 733 24 807 58 q 494 -11 660 -11 q 255 24 329 -11 q 158 144 181 60 q 135 414 135 229 l 135 956 l 224 956 l 224 369 q 240 177 224 235 q 310 96 256 119 q 494 72 365 72 q 678 96 624 72 q 749 177 733 119 q 764 369 764 235 l 764 956 l 853 956 m 304 1042 l 304 1050 l 449 1236 l 543 1236 l 688 1050 l 688 1042 l 628 1042 l 496 1182 l 364 1042 l 304 1042 z "},"Ȕ":{"ha":989,"x_min":135,"x_max":853,"o":"m 853 956 l 853 414 q 830 144 853 229 q 733 24 807 58 q 494 -11 660 -11 q 255 24 329 -11 q 158 144 181 60 q 135 414 135 229 l 135 956 l 224 956 l 224 369 q 240 177 224 235 q 310 96 256 119 q 494 72 365 72 q 678 96 624 72 q 749 177 733 119 q 764 369 764 235 l 764 956 l 853 956 m 407 1043 l 349 1043 l 178 1222 l 178 1229 l 267 1229 l 407 1050 l 407 1043 m 674 1043 l 617 1043 l 446 1222 l 446 1229 l 533 1229 l 674 1050 l 674 1043 z "},"Ü":{"ha":989,"x_min":135,"x_max":853,"o":"m 853 956 l 853 414 q 830 144 853 229 q 733 24 807 58 q 494 -11 660 -11 q 255 24 329 -11 q 158 144 181 60 q 135 414 135 229 l 135 956 l 224 956 l 224 369 q 240 177 224 235 q 310 96 256 119 q 494 72 365 72 q 678 96 624 72 q 749 177 733 119 q 764 369 764 235 l 764 956 l 853 956 m 322 1074 l 322 1176 l 408 1176 l 408 1074 l 322 1074 m 579 1074 l 579 1176 l 665 1176 l 665 1074 l 579 1074 z "},"Ǘ":{"ha":989,"x_min":135,"x_max":853,"o":"m 853 956 l 853 414 q 830 144 853 229 q 733 24 807 58 q 494 -11 660 -11 q 255 24 329 -11 q 158 144 181 60 q 135 414 135 229 l 135 956 l 224 956 l 224 369 q 240 177 224 235 q 310 96 256 119 q 494 72 365 72 q 678 96 624 72 q 749 177 733 119 q 764 369 764 235 l 764 956 l 853 956 m 322 1114 l 322 1217 l 408 1217 l 408 1114 l 322 1114 m 579 1114 l 579 1217 l 665 1217 l 665 1114 l 579 1114 m 457 1217 l 457 1224 l 600 1411 l 697 1411 l 697 1404 l 521 1217 l 457 1217 z "},"Ǚ":{"ha":989,"x_min":135,"x_max":853,"o":"m 853 956 l 853 414 q 830 144 853 229 q 733 24 807 58 q 494 -11 660 -11 q 255 24 329 -11 q 158 144 181 60 q 135 414 135 229 l 135 956 l 224 956 l 224 369 q 240 177 224 235 q 310 96 256 119 q 494 72 365 72 q 678 96 624 72 q 749 177 733 119 q 764 369 764 235 l 764 956 l 853 956 m 322 1114 l 322 1217 l 408 1217 l 408 1114 l 322 1114 m 579 1114 l 579 1217 l 665 1217 l 665 1114 l 579 1114 m 450 1217 l 306 1403 l 306 1411 l 365 1411 l 497 1271 l 629 1411 l 689 1411 l 689 1403 l 544 1217 l 450 1217 z "},"Ǜ":{"ha":989,"x_min":135,"x_max":853,"o":"m 853 956 l 853 414 q 830 144 853 229 q 733 24 807 58 q 494 -11 660 -11 q 255 24 329 -11 q 158 144 181 60 q 135 414 135 229 l 135 956 l 224 956 l 224 369 q 240 177 224 235 q 310 96 256 119 q 494 72 365 72 q 678 96 624 72 q 749 177 733 119 q 764 369 764 235 l 764 956 l 853 956 m 322 1114 l 322 1217 l 408 1217 l 408 1114 l 322 1114 m 579 1114 l 579 1217 l 665 1217 l 665 1114 l 579 1114 m 479 1217 l 303 1404 l 303 1411 l 400 1411 l 543 1224 l 543 1217 l 479 1217 z "},"Ǖ":{"ha":989,"x_min":135,"x_max":853,"o":"m 853 956 l 853 414 q 830 144 853 229 q 733 24 807 58 q 494 -11 660 -11 q 255 24 329 -11 q 158 144 181 60 q 135 414 135 229 l 135 956 l 224 956 l 224 369 q 240 177 224 235 q 310 96 256 119 q 494 72 365 72 q 678 96 624 72 q 749 177 733 119 q 764 369 764 235 l 764 956 l 853 956 m 322 1114 l 322 1217 l 408 1217 l 408 1114 l 322 1114 m 579 1114 l 579 1217 l 665 1217 l 665 1114 l 579 1114 m 333 1325 l 333 1410 l 660 1410 l 660 1325 l 333 1325 z "},"Ụ":{"ha":989,"x_min":135,"x_max":853,"o":"m 853 956 l 853 414 q 830 144 853 229 q 733 24 807 58 q 494 -11 660 -11 q 255 24 329 -11 q 158 144 181 60 q 135 414 135 229 l 135 956 l 224 956 l 224 369 q 240 177 224 235 q 310 96 256 119 q 494 72 365 72 q 678 96 624 72 q 749 177 733 119 q 764 369 764 235 l 764 956 l 853 956 m 443 -207 l 443 -86 l 546 -86 l 546 -207 l 443 -207 z "},"Ù":{"ha":989,"x_min":135,"x_max":853,"o":"m 853 956 l 853 414 q 830 144 853 229 q 733 24 807 58 q 494 -11 660 -11 q 255 24 329 -11 q 158 144 181 60 q 135 414 135 229 l 135 956 l 224 956 l 224 369 q 240 177 224 235 q 310 96 256 119 q 494 72 365 72 q 678 96 624 72 q 749 177 733 119 q 764 369 764 235 l 764 956 l 853 956 m 500 1042 l 324 1229 l 324 1236 l 421 1236 l 564 1049 l 564 1042 l 500 1042 z "},"Ủ":{"ha":989,"x_min":135,"x_max":853,"o":"m 853 956 l 853 414 q 830 144 853 229 q 733 24 807 58 q 494 -11 660 -11 q 255 24 329 -11 q 158 144 181 60 q 135 414 135 229 l 135 956 l 224 956 l 224 369 q 240 177 224 235 q 310 96 256 119 q 494 72 365 72 q 678 96 624 72 q 749 177 733 119 q 764 369 764 235 l 764 956 l 853 956 m 428 1028 q 440 1076 428 1063 q 488 1100 451 1089 l 521 1110 q 585 1133 571 1122 q 599 1169 599 1143 q 588 1208 599 1196 q 553 1222 576 1219 q 481 1225 531 1225 q 326 1218 417 1225 l 326 1269 q 483 1279 389 1279 q 588 1272 551 1279 q 644 1244 625 1265 q 663 1178 663 1222 q 647 1111 663 1132 q 579 1076 631 1090 l 542 1065 q 499 1052 511 1057 q 485 1040 488 1047 q 482 1014 482 1032 l 428 1014 l 428 1028 z "},"Ư":{"ha":989,"x_min":135,"x_max":1004,"o":"m 1004 1089 l 1004 1053 q 993 963 1004 993 q 953 919 982 932 q 864 907 924 907 l 853 907 l 853 414 q 830 144 853 229 q 733 24 807 58 q 494 -11 660 -11 q 255 24 329 -11 q 158 144 181 60 q 135 414 135 229 l 135 956 l 224 956 l 224 369 q 240 177 224 235 q 310 96 256 119 q 494 72 365 72 q 678 96 624 72 q 749 177 733 119 q 764 369 764 235 l 764 956 l 864 956 q 913 963 897 956 q 933 988 928 971 q 938 1043 938 1006 l 938 1089 l 1004 1089 z "},"Ứ":{"ha":989,"x_min":135,"x_max":1004,"o":"m 1004 1089 l 1004 1053 q 993 963 1004 993 q 953 919 982 932 q 864 907 924 907 l 853 907 l 853 414 q 830 144 853 229 q 733 24 807 58 q 494 -11 660 -11 q 255 24 329 -11 q 158 144 181 60 q 135 414 135 229 l 135 956 l 224 956 l 224 369 q 240 177 224 235 q 310 96 256 119 q 494 72 365 72 q 678 96 624 72 q 749 177 733 119 q 764 369 764 235 l 764 956 l 864 956 q 913 963 897 956 q 933 988 928 971 q 938 1043 938 1006 l 938 1089 l 1004 1089 m 454 1039 l 454 1046 l 597 1233 l 694 1233 l 694 1226 l 518 1039 l 454 1039 z "},"Ự":{"ha":989,"x_min":135,"x_max":1004,"o":"m 1004 1089 l 1004 1053 q 993 963 1004 993 q 953 919 982 932 q 864 907 924 907 l 853 907 l 853 414 q 830 144 853 229 q 733 24 807 58 q 494 -11 660 -11 q 255 24 329 -11 q 158 144 181 60 q 135 414 135 229 l 135 956 l 224 956 l 224 369 q 240 177 224 235 q 310 96 256 119 q 494 72 365 72 q 678 96 624 72 q 749 177 733 119 q 764 369 764 235 l 764 956 l 864 956 q 913 963 897 956 q 933 988 928 971 q 938 1043 938 1006 l 938 1089 l 1004 1089 m 443 -207 l 443 -86 l 546 -86 l 546 -207 l 443 -207 z "},"Ừ":{"ha":989,"x_min":135,"x_max":1004,"o":"m 1004 1089 l 1004 1053 q 993 963 1004 993 q 953 919 982 932 q 864 907 924 907 l 853 907 l 853 414 q 830 144 853 229 q 733 24 807 58 q 494 -11 660 -11 q 255 24 329 -11 q 158 144 181 60 q 135 414 135 229 l 135 956 l 224 956 l 224 369 q 240 177 224 235 q 310 96 256 119 q 494 72 365 72 q 678 96 624 72 q 749 177 733 119 q 764 369 764 235 l 764 956 l 864 956 q 913 963 897 956 q 933 988 928 971 q 938 1043 938 1006 l 938 1089 l 1004 1089 m 476 1039 l 300 1226 l 300 1233 l 397 1233 l 540 1046 l 540 1039 l 476 1039 z "},"Ử":{"ha":989,"x_min":135,"x_max":1004,"o":"m 1004 1089 l 1004 1053 q 993 963 1004 993 q 953 919 982 932 q 864 907 924 907 l 853 907 l 853 414 q 830 144 853 229 q 733 24 807 58 q 494 -11 660 -11 q 255 24 329 -11 q 158 144 181 60 q 135 414 135 229 l 135 956 l 224 956 l 224 369 q 240 177 224 235 q 310 96 256 119 q 494 72 365 72 q 678 96 624 72 q 749 177 733 119 q 764 369 764 235 l 764 956 l 864 956 q 913 963 897 956 q 933 988 928 971 q 938 1043 938 1006 l 938 1089 l 1004 1089 m 428 1028 q 440 1076 428 1063 q 488 1100 451 1089 l 521 1110 q 585 1133 571 1122 q 599 1169 599 1143 q 588 1208 599 1196 q 553 1222 576 1219 q 481 1225 531 1225 q 326 1218 417 1225 l 326 1269 q 483 1279 389 1279 q 588 1272 551 1279 q 644 1244 625 1265 q 663 1178 663 1222 q 647 1111 663 1132 q 579 1076 631 1090 l 542 1065 q 499 1052 511 1057 q 485 1040 488 1047 q 482 1014 482 1032 l 428 1014 l 428 1028 z "},"Ữ":{"ha":989,"x_min":135,"x_max":1004,"o":"m 1004 1089 l 1004 1053 q 993 963 1004 993 q 953 919 982 932 q 864 907 924 907 l 853 907 l 853 414 q 830 144 853 229 q 733 24 807 58 q 494 -11 660 -11 q 255 24 329 -11 q 158 144 181 60 q 135 414 135 229 l 135 956 l 224 956 l 224 369 q 240 177 224 235 q 310 96 256 119 q 494 72 365 72 q 678 96 624 72 q 749 177 733 119 q 764 369 764 235 l 764 956 l 864 956 q 913 963 897 956 q 933 988 928 971 q 938 1043 938 1006 l 938 1089 l 1004 1089 m 739 1233 q 721 1117 739 1150 q 643 1085 703 1085 q 570 1094 606 1085 q 478 1121 535 1103 q 440 1132 468 1124 q 388 1144 411 1140 q 347 1149 365 1149 q 310 1132 318 1149 q 301 1069 301 1115 l 249 1069 q 256 1157 249 1126 q 283 1203 263 1188 q 343 1218 303 1218 q 414 1210 379 1218 q 510 1183 449 1201 q 584 1161 556 1168 q 640 1154 613 1154 q 678 1171 669 1154 q 686 1233 686 1188 l 739 1233 z "},"Ű":{"ha":989,"x_min":135,"x_max":853,"o":"m 853 956 l 853 414 q 830 144 853 229 q 733 24 807 58 q 494 -11 660 -11 q 255 24 329 -11 q 158 144 181 60 q 135 414 135 229 l 135 956 l 224 956 l 224 369 q 240 177 224 235 q 310 96 256 119 q 494 72 365 72 q 678 96 624 72 q 749 177 733 119 q 764 369 764 235 l 764 956 l 853 956 m 329 1043 l 329 1050 l 469 1229 l 557 1229 l 557 1222 l 386 1043 l 329 1043 m 596 1043 l 596 1050 l 736 1229 l 825 1229 l 825 1222 l 654 1043 l 596 1043 z "},"Ȗ":{"ha":989,"x_min":135,"x_max":853,"o":"m 853 956 l 853 414 q 830 144 853 229 q 733 24 807 58 q 494 -11 660 -11 q 255 24 329 -11 q 158 144 181 60 q 135 414 135 229 l 135 956 l 224 956 l 224 369 q 240 177 224 235 q 310 96 256 119 q 494 72 365 72 q 678 96 624 72 q 749 177 733 119 q 764 369 764 235 l 764 956 l 853 956 m 308 1043 q 319 1153 308 1114 q 369 1217 329 1193 q 494 1242 410 1242 q 619 1217 579 1242 q 669 1153 660 1193 q 679 1043 679 1114 l 619 1043 q 613 1125 619 1099 q 581 1167 607 1151 q 494 1182 554 1182 q 408 1167 435 1182 q 374 1124 381 1151 q 368 1043 368 1097 l 308 1043 z "},"Ū":{"ha":989,"x_min":135,"x_max":853,"o":"m 853 956 l 853 414 q 830 144 853 229 q 733 24 807 58 q 494 -11 660 -11 q 255 24 329 -11 q 158 144 181 60 q 135 414 135 229 l 135 956 l 224 956 l 224 369 q 240 177 224 235 q 310 96 256 119 q 494 72 365 72 q 678 96 624 72 q 749 177 733 119 q 764 369 764 235 l 764 956 l 853 956 m 331 1147 l 331 1232 l 657 1232 l 657 1147 l 331 1147 z "},"Ų":{"ha":989,"x_min":135,"x_max":853,"o":"m 853 956 l 853 414 q 845 223 853 294 q 815 103 838 151 q 744 31 792 56 q 659 -45 697 4 q 621 -149 621 -94 q 686 -208 621 -208 q 710 -207 699 -208 l 710 -269 q 665 -272 690 -272 q 573 -244 601 -272 q 544 -168 544 -215 q 567 -85 544 -129 q 629 -3 590 -42 q 494 -11 574 -11 q 255 24 329 -11 q 158 144 181 60 q 135 414 135 229 l 135 956 l 224 956 l 224 369 q 240 177 224 235 q 310 96 256 119 q 494 72 365 72 q 678 96 624 72 q 749 177 733 119 q 764 369 764 235 l 764 956 l 853 956 z "},"Ů":{"ha":989,"x_min":135,"x_max":853,"o":"m 853 956 l 853 414 q 830 144 853 229 q 733 24 807 58 q 494 -11 660 -11 q 255 24 329 -11 q 158 144 181 60 q 135 414 135 229 l 135 956 l 224 956 l 224 369 q 240 177 224 235 q 310 96 256 119 q 494 72 365 72 q 678 96 624 72 q 749 177 733 119 q 764 369 764 235 l 764 956 l 853 956 m 493 1001 q 381 1015 415 1001 q 336 1056 346 1028 q 326 1142 326 1083 q 336 1228 326 1200 q 381 1269 346 1256 q 493 1282 415 1282 q 606 1269 571 1282 q 651 1228 642 1256 q 661 1142 661 1200 q 651 1056 661 1083 q 606 1015 642 1028 q 493 1001 571 1001 m 493 1054 q 567 1061 546 1054 q 594 1085 589 1068 q 600 1142 600 1101 q 594 1197 600 1181 q 567 1222 589 1214 q 493 1229 546 1229 q 419 1222 442 1229 q 392 1197 397 1214 q 388 1142 388 1181 q 392 1085 388 1101 q 419 1061 397 1068 q 493 1054 442 1054 z "},"Ũ":{"ha":989,"x_min":135,"x_max":853,"o":"m 853 956 l 853 414 q 830 144 853 229 q 733 24 807 58 q 494 -11 660 -11 q 255 24 329 -11 q 158 144 181 60 q 135 414 135 229 l 135 956 l 224 956 l 224 369 q 240 177 224 235 q 310 96 256 119 q 494 72 365 72 q 678 96 624 72 q 749 177 733 119 q 764 369 764 235 l 764 956 l 853 956 m 739 1233 q 721 1117 739 1150 q 643 1085 703 1085 q 570 1094 606 1085 q 478 1121 535 1103 q 440 1132 468 1124 q 388 1144 411 1140 q 347 1149 365 1149 q 310 1132 318 1149 q 301 1069 301 1115 l 249 1069 q 256 1157 249 1126 q 283 1203 263 1188 q 343 1218 303 1218 q 414 1210 379 1218 q 510 1183 449 1201 q 584 1161 556 1168 q 640 1154 613 1154 q 678 1171 669 1154 q 686 1233 686 1188 l 739 1233 z "},"V":{"ha":919,"x_min":47,"x_max":872,"o":"m 407 0 l 47 956 l 140 956 l 457 117 l 464 117 l 782 956 l 872 956 l 513 0 l 407 0 z "},"W":{"ha":1368,"x_min":57,"x_max":1311,"o":"m 940 0 l 688 806 l 682 806 l 429 0 l 328 0 l 57 956 l 150 956 l 379 132 l 388 132 l 639 956 l 733 956 l 988 132 l 994 132 l 1221 956 l 1311 956 l 1042 0 l 940 0 z "},"Ẃ":{"ha":1368,"x_min":57,"x_max":1311,"o":"m 940 0 l 688 806 l 682 806 l 429 0 l 328 0 l 57 956 l 150 956 l 379 132 l 388 132 l 639 956 l 733 956 l 988 132 l 994 132 l 1221 956 l 1311 956 l 1042 0 l 940 0 m 644 1039 l 644 1046 l 788 1233 l 885 1233 l 885 1226 l 708 1039 l 644 1039 z "},"Ŵ":{"ha":1368,"x_min":57,"x_max":1311,"o":"m 940 0 l 688 806 l 682 806 l 429 0 l 328 0 l 57 956 l 150 956 l 379 132 l 388 132 l 639 956 l 733 956 l 988 132 l 994 132 l 1221 956 l 1311 956 l 1042 0 l 940 0 m 493 1039 l 493 1047 l 638 1233 l 732 1233 l 876 1047 l 876 1039 l 817 1039 l 685 1179 l 553 1039 l 493 1039 z "},"Ẅ":{"ha":1368,"x_min":57,"x_max":1311,"o":"m 940 0 l 688 806 l 682 806 l 429 0 l 328 0 l 57 956 l 150 956 l 379 132 l 388 132 l 639 956 l 733 956 l 988 132 l 994 132 l 1221 956 l 1311 956 l 1042 0 l 940 0 m 513 1114 l 513 1217 l 599 1217 l 599 1114 l 513 1114 m 769 1114 l 769 1217 l 856 1217 l 856 1114 l 769 1114 z "},"Ẁ":{"ha":1368,"x_min":57,"x_max":1311,"o":"m 940 0 l 688 806 l 682 806 l 429 0 l 328 0 l 57 956 l 150 956 l 379 132 l 388 132 l 639 956 l 733 956 l 988 132 l 994 132 l 1221 956 l 1311 956 l 1042 0 l 940 0 m 667 1039 l 490 1226 l 490 1233 l 588 1233 l 731 1046 l 731 1039 l 667 1039 z "},"X":{"ha":936,"x_min":47,"x_max":889,"o":"m 782 0 l 472 401 l 461 401 l 150 0 l 47 0 l 414 481 l 53 956 l 160 956 l 464 561 l 475 561 l 781 956 l 885 956 l 522 482 l 889 0 l 782 0 z "},"Y":{"ha":839,"x_min":21,"x_max":818,"o":"m 374 0 l 374 374 l 21 956 l 119 956 l 415 469 l 425 469 l 722 956 l 818 956 l 464 374 l 464 0 l 374 0 z "},"Ý":{"ha":839,"x_min":21,"x_max":818,"o":"m 374 0 l 374 374 l 21 956 l 119 956 l 415 469 l 425 469 l 722 956 l 818 956 l 464 374 l 464 0 l 374 0 m 386 1042 l 386 1049 l 529 1236 l 626 1236 l 626 1229 l 450 1042 l 386 1042 z "},"Ŷ":{"ha":839,"x_min":21,"x_max":818,"o":"m 374 0 l 374 374 l 21 956 l 119 956 l 415 469 l 425 469 l 722 956 l 818 956 l 464 374 l 464 0 l 374 0 m 229 1039 l 229 1047 l 374 1233 l 468 1233 l 613 1047 l 613 1039 l 553 1039 l 421 1179 l 289 1039 l 229 1039 z "},"Ÿ":{"ha":839,"x_min":21,"x_max":818,"o":"m 374 0 l 374 374 l 21 956 l 119 956 l 415 469 l 425 469 l 722 956 l 818 956 l 464 374 l 464 0 l 374 0 m 253 1074 l 253 1176 l 339 1176 l 339 1074 l 253 1074 m 510 1074 l 510 1176 l 596 1176 l 596 1074 l 510 1074 z "},"Ỵ":{"ha":839,"x_min":21,"x_max":818,"o":"m 374 0 l 374 374 l 21 956 l 119 956 l 415 469 l 425 469 l 722 956 l 818 956 l 464 374 l 464 0 l 374 0 m 369 -207 l 369 -86 l 472 -86 l 472 -207 l 369 -207 z "},"Ỳ":{"ha":839,"x_min":21,"x_max":818,"o":"m 374 0 l 374 374 l 21 956 l 119 956 l 415 469 l 425 469 l 722 956 l 818 956 l 464 374 l 464 0 l 374 0 m 403 1039 l 226 1226 l 226 1233 l 324 1233 l 467 1046 l 467 1039 l 403 1039 z "},"Ỷ":{"ha":839,"x_min":21,"x_max":818,"o":"m 374 0 l 374 374 l 21 956 l 119 956 l 415 469 l 425 469 l 722 956 l 818 956 l 464 374 l 464 0 l 374 0 m 354 1028 q 366 1076 354 1063 q 414 1100 378 1089 l 447 1110 q 511 1133 497 1122 q 525 1169 525 1143 q 514 1208 525 1196 q 480 1222 503 1219 q 407 1225 457 1225 q 253 1218 343 1225 l 253 1269 q 410 1279 315 1279 q 515 1272 478 1279 q 570 1244 551 1265 q 589 1178 589 1222 q 573 1111 589 1132 q 506 1076 557 1090 l 468 1065 q 426 1052 438 1057 q 411 1040 414 1047 q 408 1014 408 1032 l 354 1014 l 354 1028 z "},"Ȳ":{"ha":839,"x_min":21,"x_max":818,"o":"m 374 0 l 374 374 l 21 956 l 119 956 l 415 469 l 425 469 l 722 956 l 818 956 l 464 374 l 464 0 l 374 0 m 257 1147 l 257 1232 l 583 1232 l 583 1147 l 257 1147 z "},"Ỹ":{"ha":839,"x_min":21,"x_max":818,"o":"m 374 0 l 374 374 l 21 956 l 119 956 l 415 469 l 425 469 l 722 956 l 818 956 l 464 374 l 464 0 l 374 0 m 665 1233 q 647 1117 665 1150 q 569 1085 629 1085 q 497 1094 532 1085 q 404 1121 461 1103 q 366 1132 394 1124 q 315 1144 338 1140 q 274 1149 292 1149 q 236 1132 244 1149 q 228 1069 228 1115 l 175 1069 q 182 1157 175 1126 q 209 1203 189 1188 q 269 1218 229 1218 q 340 1210 306 1218 q 436 1183 375 1201 q 510 1161 482 1168 q 567 1154 539 1154 q 604 1171 596 1154 q 613 1233 613 1188 l 665 1233 z "},"Z":{"ha":838,"x_min":78,"x_max":765,"o":"m 78 0 l 78 79 l 643 872 l 93 872 l 93 956 l 756 956 l 756 878 l 190 83 l 765 83 l 765 0 l 78 0 z "},"Ź":{"ha":838,"x_min":78,"x_max":765,"o":"m 78 0 l 78 79 l 643 872 l 93 872 l 93 956 l 756 956 l 756 878 l 190 83 l 765 83 l 765 0 l 78 0 m 379 1039 l 379 1046 l 522 1233 l 619 1233 l 619 1226 l 443 1039 l 379 1039 z "},"Ž":{"ha":838,"x_min":78,"x_max":765,"o":"m 78 0 l 78 79 l 643 872 l 93 872 l 93 956 l 756 956 l 756 878 l 190 83 l 765 83 l 765 0 l 78 0 m 381 1040 l 236 1226 l 236 1235 l 296 1235 l 428 1094 l 560 1235 l 619 1235 l 619 1226 l 475 1040 l 381 1040 z "},"Ż":{"ha":838,"x_min":78,"x_max":765,"o":"m 78 0 l 78 79 l 643 872 l 93 872 l 93 956 l 756 956 l 756 878 l 190 83 l 765 83 l 765 0 l 78 0 m 376 1114 l 376 1217 l 463 1217 l 463 1114 l 376 1114 z "},"Ẓ":{"ha":838,"x_min":78,"x_max":765,"o":"m 78 0 l 78 79 l 643 872 l 93 872 l 93 956 l 756 956 l 756 878 l 190 83 l 765 83 l 765 0 l 78 0 m 368 -207 l 368 -86 l 471 -86 l 471 -207 l 368 -207 z "},"a":{"ha":793,"x_min":82,"x_max":664,"o":"m 325 -11 q 187 6 239 -11 q 108 68 135 24 q 82 193 82 113 q 101 319 82 275 q 165 383 119 364 q 296 403 211 403 q 579 396 336 403 l 579 447 q 563 579 579 540 q 501 630 546 618 q 350 642 457 642 q 236 637 304 642 q 131 625 168 632 l 131 701 q 382 719 235 719 q 563 696 504 719 q 643 617 622 672 q 664 450 664 561 l 664 0 l 590 0 l 586 106 l 579 106 q 484 12 551 35 q 325 -11 417 -11 m 349 65 q 477 79 428 65 q 549 136 526 93 q 572 206 565 169 q 579 290 579 242 l 579 333 l 318 333 q 222 324 253 333 q 179 288 192 315 q 167 200 167 260 q 181 115 167 143 q 233 76 196 86 q 349 65 271 65 z "},"á":{"ha":793,"x_min":82,"x_max":664,"o":"m 325 -11 q 187 6 239 -11 q 108 68 135 24 q 82 193 82 113 q 101 319 82 275 q 165 383 119 364 q 296 403 211 403 q 579 396 336 403 l 579 447 q 563 579 579 540 q 501 630 546 618 q 350 642 457 642 q 236 637 304 642 q 131 625 168 632 l 131 701 q 382 719 235 719 q 563 696 504 719 q 643 617 622 672 q 664 450 664 561 l 664 0 l 590 0 l 586 106 l 579 106 q 484 12 551 35 q 325 -11 417 -11 m 349 65 q 477 79 428 65 q 549 136 526 93 q 572 206 565 169 q 579 290 579 242 l 579 333 l 318 333 q 222 324 253 333 q 179 288 192 315 q 167 200 167 260 q 181 115 167 143 q 233 76 196 86 q 349 65 271 65 m 342 838 l 342 844 l 485 1032 l 582 1032 l 582 1025 l 406 838 l 342 838 z "},"ă":{"ha":793,"x_min":82,"x_max":664,"o":"m 325 -11 q 187 6 239 -11 q 108 68 135 24 q 82 193 82 113 q 101 319 82 275 q 165 383 119 364 q 296 403 211 403 q 579 396 336 403 l 579 447 q 563 579 579 540 q 501 630 546 618 q 350 642 457 642 q 236 637 304 642 q 131 625 168 632 l 131 701 q 382 719 235 719 q 563 696 504 719 q 643 617 622 672 q 664 450 664 561 l 664 0 l 590 0 l 586 106 l 579 106 q 484 12 551 35 q 325 -11 417 -11 m 349 65 q 477 79 428 65 q 549 136 526 93 q 572 206 565 169 q 579 290 579 242 l 579 333 l 318 333 q 222 324 253 333 q 179 288 192 315 q 167 200 167 260 q 181 115 167 143 q 233 76 196 86 q 349 65 271 65 m 582 1032 q 572 922 582 961 q 521 858 561 882 q 396 833 481 833 q 271 858 311 833 q 221 922 231 882 q 211 1032 211 961 l 271 1032 q 277 950 271 976 q 310 908 283 924 q 396 893 336 893 q 483 908 456 893 q 516 951 510 924 q 522 1032 522 978 l 582 1032 z "},"ắ":{"ha":793,"x_min":82,"x_max":664,"o":"m 325 -11 q 187 6 239 -11 q 108 68 135 24 q 82 193 82 113 q 101 319 82 275 q 165 383 119 364 q 296 403 211 403 q 579 396 336 403 l 579 447 q 563 579 579 540 q 501 630 546 618 q 350 642 457 642 q 236 637 304 642 q 131 625 168 632 l 131 701 q 382 719 235 719 q 563 696 504 719 q 643 617 622 672 q 664 450 664 561 l 664 0 l 590 0 l 586 106 l 579 106 q 484 12 551 35 q 325 -11 417 -11 m 349 65 q 477 79 428 65 q 549 136 526 93 q 572 206 565 169 q 579 290 579 242 l 579 333 l 318 333 q 222 324 253 333 q 179 288 192 315 q 167 200 167 260 q 181 115 167 143 q 233 76 196 86 q 349 65 271 65 m 574 1032 q 563 922 574 961 q 513 858 553 882 q 388 833 472 833 q 263 858 303 833 q 213 922 222 882 q 203 1032 203 961 l 263 1032 q 269 950 263 976 q 301 908 275 924 q 388 893 328 893 q 474 908 447 893 q 508 951 501 924 q 514 1032 514 978 l 574 1032 m 350 1078 l 350 1085 l 493 1272 l 590 1272 l 590 1265 l 414 1078 l 350 1078 z "},"ặ":{"ha":793,"x_min":82,"x_max":664,"o":"m 325 -11 q 187 6 239 -11 q 108 68 135 24 q 82 193 82 113 q 101 319 82 275 q 165 383 119 364 q 296 403 211 403 q 579 396 336 403 l 579 447 q 563 579 579 540 q 501 630 546 618 q 350 642 457 642 q 236 637 304 642 q 131 625 168 632 l 131 701 q 382 719 235 719 q 563 696 504 719 q 643 617 622 672 q 664 450 664 561 l 664 0 l 590 0 l 586 106 l 579 106 q 484 12 551 35 q 325 -11 417 -11 m 349 65 q 477 79 428 65 q 549 136 526 93 q 572 206 565 169 q 579 290 579 242 l 579 333 l 318 333 q 222 324 253 333 q 179 288 192 315 q 167 200 167 260 q 181 115 167 143 q 233 76 196 86 q 349 65 271 65 m 346 -207 l 346 -86 l 449 -86 l 449 -207 l 346 -207 m 582 1032 q 572 922 582 961 q 521 858 561 882 q 396 833 481 833 q 271 858 311 833 q 221 922 231 882 q 211 1032 211 961 l 271 1032 q 277 950 271 976 q 310 908 283 924 q 396 893 336 893 q 483 908 456 893 q 516 951 510 924 q 522 1032 522 978 l 582 1032 z "},"ằ":{"ha":793,"x_min":82,"x_max":664,"o":"m 325 -11 q 187 6 239 -11 q 108 68 135 24 q 82 193 82 113 q 101 319 82 275 q 165 383 119 364 q 296 403 211 403 q 579 396 336 403 l 579 447 q 563 579 579 540 q 501 630 546 618 q 350 642 457 642 q 236 637 304 642 q 131 625 168 632 l 131 701 q 382 719 235 719 q 563 696 504 719 q 643 617 622 672 q 664 450 664 561 l 664 0 l 590 0 l 586 106 l 579 106 q 484 12 551 35 q 325 -11 417 -11 m 349 65 q 477 79 428 65 q 549 136 526 93 q 572 206 565 169 q 579 290 579 242 l 579 333 l 318 333 q 222 324 253 333 q 179 288 192 315 q 167 200 167 260 q 181 115 167 143 q 233 76 196 86 q 349 65 271 65 m 586 1032 q 576 922 586 961 q 525 858 565 882 q 400 833 485 833 q 275 858 315 833 q 225 922 235 882 q 215 1032 215 961 l 275 1032 q 281 950 275 976 q 314 908 288 924 q 400 893 340 893 q 487 908 460 893 q 520 951 514 924 q 526 1032 526 978 l 586 1032 m 389 1078 l 213 1265 l 213 1272 l 310 1272 l 453 1085 l 453 1078 l 389 1078 z "},"ẳ":{"ha":793,"x_min":82,"x_max":664,"o":"m 325 -11 q 187 6 239 -11 q 108 68 135 24 q 82 193 82 113 q 101 319 82 275 q 165 383 119 364 q 296 403 211 403 q 579 396 336 403 l 579 447 q 563 579 579 540 q 501 630 546 618 q 350 642 457 642 q 236 637 304 642 q 131 625 168 632 l 131 701 q 382 719 235 719 q 563 696 504 719 q 643 617 622 672 q 664 450 664 561 l 664 0 l 590 0 l 586 106 l 579 106 q 484 12 551 35 q 325 -11 417 -11 m 349 65 q 477 79 428 65 q 549 136 526 93 q 572 206 565 169 q 579 290 579 242 l 579 333 l 318 333 q 222 324 253 333 q 179 288 192 315 q 167 200 167 260 q 181 115 167 143 q 233 76 196 86 q 349 65 271 65 m 582 1032 q 572 922 582 961 q 521 858 561 882 q 396 833 481 833 q 271 858 311 833 q 221 922 231 882 q 211 1032 211 961 l 271 1032 q 277 950 271 976 q 310 908 283 924 q 396 893 336 893 q 483 908 456 893 q 516 951 510 924 q 522 1032 522 978 l 582 1032 m 333 1046 q 345 1094 333 1081 q 393 1118 357 1108 l 426 1128 q 490 1151 476 1140 q 504 1188 504 1161 q 493 1226 504 1214 q 459 1240 482 1238 q 386 1243 436 1243 q 232 1236 322 1243 l 232 1288 q 389 1297 294 1297 q 494 1290 457 1297 q 549 1262 531 1283 q 568 1196 568 1240 q 552 1129 568 1150 q 485 1094 536 1108 l 447 1083 q 405 1070 417 1075 q 390 1058 393 1065 q 388 1032 388 1050 l 333 1032 l 333 1046 z "},"ẵ":{"ha":793,"x_min":82,"x_max":664,"o":"m 325 -11 q 187 6 239 -11 q 108 68 135 24 q 82 193 82 113 q 101 319 82 275 q 165 383 119 364 q 296 403 211 403 q 579 396 336 403 l 579 447 q 563 579 579 540 q 501 630 546 618 q 350 642 457 642 q 236 637 304 642 q 131 625 168 632 l 131 701 q 382 719 235 719 q 563 696 504 719 q 643 617 622 672 q 664 450 664 561 l 664 0 l 590 0 l 586 106 l 579 106 q 484 12 551 35 q 325 -11 417 -11 m 349 65 q 477 79 428 65 q 549 136 526 93 q 572 206 565 169 q 579 290 579 242 l 579 333 l 318 333 q 222 324 253 333 q 179 288 192 315 q 167 200 167 260 q 181 115 167 143 q 233 76 196 86 q 349 65 271 65 m 579 1032 q 569 922 579 961 q 518 858 558 882 q 393 833 478 833 q 268 858 308 833 q 218 922 228 882 q 208 1032 208 961 l 268 1032 q 274 950 268 976 q 307 908 281 924 q 393 893 333 893 q 480 908 453 893 q 513 951 507 924 q 519 1032 519 978 l 579 1032 m 642 1282 q 624 1166 642 1199 q 546 1133 606 1133 q 473 1142 508 1133 q 381 1169 438 1151 q 342 1181 371 1172 q 291 1193 314 1189 q 250 1197 268 1197 q 213 1181 221 1197 q 204 1118 204 1164 l 151 1118 q 158 1206 151 1175 q 185 1251 165 1236 q 246 1267 206 1267 q 317 1258 282 1267 q 413 1232 351 1250 q 487 1210 458 1217 q 543 1203 515 1203 q 581 1219 572 1203 q 589 1282 589 1236 l 642 1282 z "},"ǎ":{"ha":793,"x_min":82,"x_max":664,"o":"m 325 -11 q 187 6 239 -11 q 108 68 135 24 q 82 193 82 113 q 101 319 82 275 q 165 383 119 364 q 296 403 211 403 q 579 396 336 403 l 579 447 q 563 579 579 540 q 501 630 546 618 q 350 642 457 642 q 236 637 304 642 q 131 625 168 632 l 131 701 q 382 719 235 719 q 563 696 504 719 q 643 617 622 672 q 664 450 664 561 l 664 0 l 590 0 l 586 106 l 579 106 q 484 12 551 35 q 325 -11 417 -11 m 349 65 q 477 79 428 65 q 549 136 526 93 q 572 206 565 169 q 579 290 579 242 l 579 333 l 318 333 q 222 324 253 333 q 179 288 192 315 q 167 200 167 260 q 181 115 167 143 q 233 76 196 86 q 349 65 271 65 m 350 838 l 206 1024 l 206 1032 l 265 1032 l 397 892 l 529 1032 l 589 1032 l 589 1024 l 444 838 l 350 838 z "},"â":{"ha":793,"x_min":82,"x_max":664,"o":"m 325 -11 q 187 6 239 -11 q 108 68 135 24 q 82 193 82 113 q 101 319 82 275 q 165 383 119 364 q 296 403 211 403 q 579 396 336 403 l 579 447 q 563 579 579 540 q 501 630 546 618 q 350 642 457 642 q 236 637 304 642 q 131 625 168 632 l 131 701 q 382 719 235 719 q 563 696 504 719 q 643 617 622 672 q 664 450 664 561 l 664 0 l 590 0 l 586 106 l 579 106 q 484 12 551 35 q 325 -11 417 -11 m 349 65 q 477 79 428 65 q 549 136 526 93 q 572 206 565 169 q 579 290 579 242 l 579 333 l 318 333 q 222 324 253 333 q 179 288 192 315 q 167 200 167 260 q 181 115 167 143 q 233 76 196 86 q 349 65 271 65 m 208 838 l 208 846 l 353 1032 l 447 1032 l 592 846 l 592 838 l 532 838 l 400 978 l 268 838 l 208 838 z "},"ấ":{"ha":793,"x_min":82,"x_max":718,"o":"m 325 -11 q 187 6 239 -11 q 108 68 135 24 q 82 193 82 113 q 101 319 82 275 q 165 383 119 364 q 296 403 211 403 q 579 396 336 403 l 579 447 q 563 579 579 540 q 501 630 546 618 q 350 642 457 642 q 236 637 304 642 q 131 625 168 632 l 131 701 q 382 719 235 719 q 563 696 504 719 q 643 617 622 672 q 664 450 664 561 l 664 0 l 590 0 l 586 106 l 579 106 q 484 12 551 35 q 325 -11 417 -11 m 349 65 q 477 79 428 65 q 549 136 526 93 q 572 206 565 169 q 579 290 579 242 l 579 333 l 318 333 q 222 324 253 333 q 179 288 192 315 q 167 200 167 260 q 181 115 167 143 q 233 76 196 86 q 349 65 271 65 m 200 838 l 200 846 l 344 1032 l 439 1032 l 583 846 l 583 838 l 524 838 l 392 978 l 260 838 l 200 838 m 478 1046 l 478 1053 l 621 1240 l 718 1240 l 718 1233 l 542 1046 l 478 1046 z "},"ậ":{"ha":793,"x_min":82,"x_max":664,"o":"m 325 -11 q 187 6 239 -11 q 108 68 135 24 q 82 193 82 113 q 101 319 82 275 q 165 383 119 364 q 296 403 211 403 q 579 396 336 403 l 579 447 q 563 579 579 540 q 501 630 546 618 q 350 642 457 642 q 236 637 304 642 q 131 625 168 632 l 131 701 q 382 719 235 719 q 563 696 504 719 q 643 617 622 672 q 664 450 664 561 l 664 0 l 590 0 l 586 106 l 579 106 q 484 12 551 35 q 325 -11 417 -11 m 349 65 q 477 79 428 65 q 549 136 526 93 q 572 206 565 169 q 579 290 579 242 l 579 333 l 318 333 q 222 324 253 333 q 179 288 192 315 q 167 200 167 260 q 181 115 167 143 q 233 76 196 86 q 349 65 271 65 m 346 -207 l 346 -86 l 449 -86 l 449 -207 l 346 -207 m 206 838 l 206 846 l 350 1032 l 444 1032 l 589 846 l 589 838 l 529 838 l 397 978 l 265 838 l 206 838 z "},"ầ":{"ha":793,"x_min":82,"x_max":664,"o":"m 325 -11 q 187 6 239 -11 q 108 68 135 24 q 82 193 82 113 q 101 319 82 275 q 165 383 119 364 q 296 403 211 403 q 579 396 336 403 l 579 447 q 563 579 579 540 q 501 630 546 618 q 350 642 457 642 q 236 637 304 642 q 131 625 168 632 l 131 701 q 382 719 235 719 q 563 696 504 719 q 643 617 622 672 q 664 450 664 561 l 664 0 l 590 0 l 586 106 l 579 106 q 484 12 551 35 q 325 -11 417 -11 m 349 65 q 477 79 428 65 q 549 136 526 93 q 572 206 565 169 q 579 290 579 242 l 579 333 l 318 333 q 222 324 253 333 q 179 288 192 315 q 167 200 167 260 q 181 115 167 143 q 233 76 196 86 q 349 65 271 65 m 200 838 l 200 846 l 344 1032 l 439 1032 l 583 846 l 583 838 l 524 838 l 392 978 l 260 838 l 200 838 m 529 1046 l 353 1233 l 353 1240 l 450 1240 l 593 1053 l 593 1046 l 529 1046 z "},"ẩ":{"ha":793,"x_min":82,"x_max":690,"o":"m 325 -11 q 187 6 239 -11 q 108 68 135 24 q 82 193 82 113 q 101 319 82 275 q 165 383 119 364 q 296 403 211 403 q 579 396 336 403 l 579 447 q 563 579 579 540 q 501 630 546 618 q 350 642 457 642 q 236 637 304 642 q 131 625 168 632 l 131 701 q 382 719 235 719 q 563 696 504 719 q 643 617 622 672 q 664 450 664 561 l 664 0 l 590 0 l 586 106 l 579 106 q 484 12 551 35 q 325 -11 417 -11 m 349 65 q 477 79 428 65 q 549 136 526 93 q 572 206 565 169 q 579 290 579 242 l 579 333 l 318 333 q 222 324 253 333 q 179 288 192 315 q 167 200 167 260 q 181 115 167 143 q 233 76 196 86 q 349 65 271 65 m 206 838 l 206 846 l 350 1032 l 444 1032 l 589 846 l 589 838 l 529 838 l 397 978 l 265 838 l 206 838 m 456 1056 q 467 1104 456 1090 q 515 1128 479 1118 l 549 1138 q 613 1160 599 1150 q 626 1197 626 1171 q 615 1235 626 1224 q 581 1250 604 1247 q 508 1253 558 1253 q 354 1246 444 1253 l 354 1297 q 511 1307 417 1307 q 616 1300 579 1307 q 672 1272 653 1293 q 690 1206 690 1250 q 674 1139 690 1160 q 607 1104 658 1118 l 569 1093 q 527 1080 539 1085 q 513 1067 515 1075 q 510 1042 510 1060 l 456 1042 l 456 1056 z "},"ẫ":{"ha":793,"x_min":82,"x_max":664,"o":"m 325 -11 q 187 6 239 -11 q 108 68 135 24 q 82 193 82 113 q 101 319 82 275 q 165 383 119 364 q 296 403 211 403 q 579 396 336 403 l 579 447 q 563 579 579 540 q 501 630 546 618 q 350 642 457 642 q 236 637 304 642 q 131 625 168 632 l 131 701 q 382 719 235 719 q 563 696 504 719 q 643 617 622 672 q 664 450 664 561 l 664 0 l 590 0 l 586 106 l 579 106 q 484 12 551 35 q 325 -11 417 -11 m 349 65 q 477 79 428 65 q 549 136 526 93 q 572 206 565 169 q 579 290 579 242 l 579 333 l 318 333 q 222 324 253 333 q 179 288 192 315 q 167 200 167 260 q 181 115 167 143 q 233 76 196 86 q 349 65 271 65 m 203 838 l 203 846 l 347 1032 l 442 1032 l 586 846 l 586 838 l 526 838 l 394 978 l 263 838 l 203 838 m 642 1272 q 624 1156 642 1189 q 546 1124 606 1124 q 473 1133 508 1124 q 381 1160 438 1142 q 342 1171 371 1163 q 291 1183 314 1179 q 250 1188 268 1188 q 213 1171 221 1188 q 204 1108 204 1154 l 151 1108 q 158 1196 151 1165 q 185 1242 165 1226 q 246 1257 206 1257 q 317 1249 282 1257 q 413 1222 351 1240 q 487 1200 458 1207 q 543 1193 515 1193 q 581 1210 572 1193 q 589 1272 589 1226 l 642 1272 z "},"ȁ":{"ha":793,"x_min":81,"x_max":664,"o":"m 325 -11 q 187 6 239 -11 q 108 68 135 24 q 82 193 82 113 q 101 319 82 275 q 165 383 119 364 q 296 403 211 403 q 579 396 336 403 l 579 447 q 563 579 579 540 q 501 630 546 618 q 350 642 457 642 q 236 637 304 642 q 131 625 168 632 l 131 701 q 382 719 235 719 q 563 696 504 719 q 643 617 622 672 q 664 450 664 561 l 664 0 l 590 0 l 586 106 l 579 106 q 484 12 551 35 q 325 -11 417 -11 m 349 65 q 477 79 428 65 q 549 136 526 93 q 572 206 565 169 q 579 290 579 242 l 579 333 l 318 333 q 222 324 253 333 q 179 288 192 315 q 167 200 167 260 q 181 115 167 143 q 233 76 196 86 q 349 65 271 65 m 310 842 l 251 842 l 81 1021 l 81 1028 l 169 1028 l 310 849 l 310 842 m 576 842 l 519 842 l 349 1021 l 349 1028 l 436 1028 l 576 849 l 576 842 z "},"ä":{"ha":793,"x_min":82,"x_max":664,"o":"m 325 -11 q 187 6 239 -11 q 108 68 135 24 q 82 193 82 113 q 101 319 82 275 q 165 383 119 364 q 296 403 211 403 q 579 396 336 403 l 579 447 q 563 579 579 540 q 501 630 546 618 q 350 642 457 642 q 236 637 304 642 q 131 625 168 632 l 131 701 q 382 719 235 719 q 563 696 504 719 q 643 617 622 672 q 664 450 664 561 l 664 0 l 590 0 l 586 106 l 579 106 q 484 12 551 35 q 325 -11 417 -11 m 349 65 q 477 79 428 65 q 549 136 526 93 q 572 206 565 169 q 579 290 579 242 l 579 333 l 318 333 q 222 324 253 333 q 179 288 192 315 q 167 200 167 260 q 181 115 167 143 q 233 76 196 86 q 349 65 271 65 m 228 913 l 228 1015 l 314 1015 l 314 913 l 228 913 m 485 913 l 485 1015 l 571 1015 l 571 913 l 485 913 z "},"ạ":{"ha":793,"x_min":82,"x_max":664,"o":"m 325 -11 q 187 6 239 -11 q 108 68 135 24 q 82 193 82 113 q 101 319 82 275 q 165 383 119 364 q 296 403 211 403 q 579 396 336 403 l 579 447 q 563 579 579 540 q 501 630 546 618 q 350 642 457 642 q 236 637 304 642 q 131 625 168 632 l 131 701 q 382 719 235 719 q 563 696 504 719 q 643 617 622 672 q 664 450 664 561 l 664 0 l 590 0 l 586 106 l 579 106 q 484 12 551 35 q 325 -11 417 -11 m 349 65 q 477 79 428 65 q 549 136 526 93 q 572 206 565 169 q 579 290 579 242 l 579 333 l 318 333 q 222 324 253 333 q 179 288 192 315 q 167 200 167 260 q 181 115 167 143 q 233 76 196 86 q 349 65 271 65 m 346 -207 l 346 -86 l 449 -86 l 449 -207 l 346 -207 z "},"à":{"ha":793,"x_min":82,"x_max":664,"o":"m 325 -11 q 187 6 239 -11 q 108 68 135 24 q 82 193 82 113 q 101 319 82 275 q 165 383 119 364 q 296 403 211 403 q 579 396 336 403 l 579 447 q 563 579 579 540 q 501 630 546 618 q 350 642 457 642 q 236 637 304 642 q 131 625 168 632 l 131 701 q 382 719 235 719 q 563 696 504 719 q 643 617 622 672 q 664 450 664 561 l 664 0 l 590 0 l 586 106 l 579 106 q 484 12 551 35 q 325 -11 417 -11 m 349 65 q 477 79 428 65 q 549 136 526 93 q 572 206 565 169 q 579 290 579 242 l 579 333 l 318 333 q 222 324 253 333 q 179 288 192 315 q 167 200 167 260 q 181 115 167 143 q 233 76 196 86 q 349 65 271 65 m 399 838 l 222 1025 l 222 1032 l 319 1032 l 463 844 l 463 838 l 399 838 z "},"ả":{"ha":793,"x_min":82,"x_max":664,"o":"m 325 -11 q 187 6 239 -11 q 108 68 135 24 q 82 193 82 113 q 101 319 82 275 q 165 383 119 364 q 296 403 211 403 q 579 396 336 403 l 579 447 q 563 579 579 540 q 501 630 546 618 q 350 642 457 642 q 236 637 304 642 q 131 625 168 632 l 131 701 q 382 719 235 719 q 563 696 504 719 q 643 617 622 672 q 664 450 664 561 l 664 0 l 590 0 l 586 106 l 579 106 q 484 12 551 35 q 325 -11 417 -11 m 349 65 q 477 79 428 65 q 549 136 526 93 q 572 206 565 169 q 579 290 579 242 l 579 333 l 318 333 q 222 324 253 333 q 179 288 192 315 q 167 200 167 260 q 181 115 167 143 q 233 76 196 86 q 349 65 271 65 m 331 857 q 342 906 331 892 q 390 929 354 919 l 424 939 q 488 962 474 951 q 501 999 501 972 q 490 1037 501 1025 q 456 1051 479 1049 q 383 1054 433 1054 q 229 1047 319 1054 l 229 1099 q 386 1108 292 1108 q 491 1101 454 1108 q 547 1073 528 1094 q 565 1007 565 1051 q 549 940 565 961 q 482 906 533 919 l 444 894 q 402 881 414 886 q 388 869 390 876 q 385 843 385 861 l 331 843 l 331 857 z "},"ȃ":{"ha":793,"x_min":82,"x_max":664,"o":"m 325 -11 q 187 6 239 -11 q 108 68 135 24 q 82 193 82 113 q 101 319 82 275 q 165 383 119 364 q 296 403 211 403 q 579 396 336 403 l 579 447 q 563 579 579 540 q 501 630 546 618 q 350 642 457 642 q 236 637 304 642 q 131 625 168 632 l 131 701 q 382 719 235 719 q 563 696 504 719 q 643 617 622 672 q 664 450 664 561 l 664 0 l 590 0 l 586 106 l 579 106 q 484 12 551 35 q 325 -11 417 -11 m 349 65 q 477 79 428 65 q 549 136 526 93 q 572 206 565 169 q 579 290 579 242 l 579 333 l 318 333 q 222 324 253 333 q 179 288 192 315 q 167 200 167 260 q 181 115 167 143 q 233 76 196 86 q 349 65 271 65 m 211 842 q 222 952 211 913 q 272 1016 232 992 q 397 1040 313 1040 q 522 1016 482 1040 q 572 952 563 992 q 582 842 582 913 l 522 842 q 516 924 522 897 q 483 965 510 950 q 397 981 457 981 q 310 965 338 981 q 277 923 283 950 q 271 842 271 896 l 211 842 z "},"ā":{"ha":793,"x_min":82,"x_max":664,"o":"m 325 -11 q 187 6 239 -11 q 108 68 135 24 q 82 193 82 113 q 101 319 82 275 q 165 383 119 364 q 296 403 211 403 q 579 396 336 403 l 579 447 q 563 579 579 540 q 501 630 546 618 q 350 642 457 642 q 236 637 304 642 q 131 625 168 632 l 131 701 q 382 719 235 719 q 563 696 504 719 q 643 617 622 672 q 664 450 664 561 l 664 0 l 590 0 l 586 106 l 579 106 q 484 12 551 35 q 325 -11 417 -11 m 349 65 q 477 79 428 65 q 549 136 526 93 q 572 206 565 169 q 579 290 579 242 l 579 333 l 318 333 q 222 324 253 333 q 179 288 192 315 q 167 200 167 260 q 181 115 167 143 q 233 76 196 86 q 349 65 271 65 m 233 946 l 233 1031 l 560 1031 l 560 946 l 233 946 z "},"ą":{"ha":793,"x_min":82,"x_max":669,"o":"m 644 -208 q 669 -207 658 -208 l 669 -269 q 625 -272 650 -272 q 533 -244 561 -272 q 504 -171 504 -215 q 528 -82 504 -128 q 590 1 551 -36 l 586 106 l 579 106 q 484 12 551 35 q 325 -11 417 -11 q 187 6 239 -11 q 108 68 135 24 q 82 193 82 113 q 101 319 82 275 q 165 383 119 364 q 296 403 211 403 q 579 396 336 403 l 579 447 q 563 579 579 540 q 501 630 546 618 q 350 642 457 642 q 236 637 304 642 q 131 625 168 632 l 131 701 q 382 719 235 719 q 563 696 504 719 q 643 617 622 672 q 664 450 664 561 l 664 0 q 608 -68 635 -24 q 581 -151 581 -112 q 644 -208 581 -208 m 579 333 l 318 333 q 222 324 253 333 q 179 288 192 315 q 167 200 167 260 q 181 115 167 143 q 233 76 196 86 q 349 65 271 65 q 477 79 428 65 q 549 136 526 93 q 572 206 565 169 q 579 290 579 242 l 579 333 z "},"å":{"ha":793,"x_min":82,"x_max":664,"o":"m 325 -11 q 187 6 239 -11 q 108 68 135 24 q 82 193 82 113 q 101 319 82 275 q 165 383 119 364 q 296 403 211 403 q 579 396 336 403 l 579 447 q 563 579 579 540 q 501 630 546 618 q 350 642 457 642 q 236 637 304 642 q 131 625 168 632 l 131 701 q 382 719 235 719 q 563 696 504 719 q 643 617 622 672 q 664 450 664 561 l 664 0 l 590 0 l 586 106 l 579 106 q 484 12 551 35 q 325 -11 417 -11 m 349 65 q 477 79 428 65 q 549 136 526 93 q 572 206 565 169 q 579 290 579 242 l 579 333 l 318 333 q 222 324 253 333 q 179 288 192 315 q 167 200 167 260 q 181 115 167 143 q 233 76 196 86 q 349 65 271 65 m 394 833 q 282 847 317 833 q 238 888 247 860 q 228 974 228 915 q 238 1060 228 1032 q 282 1101 247 1088 q 394 1114 317 1114 q 508 1101 472 1114 q 553 1060 543 1088 q 563 974 563 1032 q 553 888 563 915 q 508 847 543 860 q 394 833 472 833 m 394 886 q 469 893 447 886 q 496 917 490 900 q 501 974 501 933 q 496 1029 501 1013 q 469 1053 490 1046 q 394 1061 447 1061 q 321 1053 343 1061 q 294 1029 299 1046 q 289 974 289 1013 q 294 917 289 933 q 321 893 299 900 q 394 886 343 886 z "},"ǻ":{"ha":793,"x_min":82,"x_max":664,"o":"m 325 -11 q 187 6 239 -11 q 108 68 135 24 q 82 193 82 113 q 101 319 82 275 q 165 383 119 364 q 296 403 211 403 q 579 396 336 403 l 579 447 q 563 579 579 540 q 501 630 546 618 q 350 642 457 642 q 236 637 304 642 q 131 625 168 632 l 131 701 q 382 719 235 719 q 563 696 504 719 q 643 617 622 672 q 664 450 664 561 l 664 0 l 590 0 l 586 106 l 579 106 q 484 12 551 35 q 325 -11 417 -11 m 349 65 q 477 79 428 65 q 549 136 526 93 q 572 206 565 169 q 579 290 579 242 l 579 333 l 318 333 q 222 324 253 333 q 179 288 192 315 q 167 200 167 260 q 181 115 167 143 q 233 76 196 86 q 349 65 271 65 m 396 842 q 283 855 318 842 q 239 896 249 868 q 229 982 229 924 q 239 1068 229 1040 q 283 1109 249 1096 q 396 1122 318 1122 q 509 1109 474 1122 q 554 1068 544 1096 q 564 982 564 1040 q 554 896 564 924 q 509 855 544 868 q 396 842 474 842 m 396 894 q 470 901 449 894 q 497 925 492 908 q 503 982 503 942 q 497 1038 503 1021 q 470 1062 492 1054 q 396 1069 449 1069 q 322 1062 344 1069 q 295 1038 300 1054 q 290 982 290 1021 q 295 925 290 942 q 322 901 300 908 q 396 894 344 894 m 361 1168 l 361 1175 l 504 1363 l 601 1363 l 601 1356 l 425 1168 l 361 1168 z "},"ã":{"ha":793,"x_min":82,"x_max":664,"o":"m 325 -11 q 187 6 239 -11 q 108 68 135 24 q 82 193 82 113 q 101 319 82 275 q 165 383 119 364 q 296 403 211 403 q 579 396 336 403 l 579 447 q 563 579 579 540 q 501 630 546 618 q 350 642 457 642 q 236 637 304 642 q 131 625 168 632 l 131 701 q 382 719 235 719 q 563 696 504 719 q 643 617 622 672 q 664 450 664 561 l 664 0 l 590 0 l 586 106 l 579 106 q 484 12 551 35 q 325 -11 417 -11 m 349 65 q 477 79 428 65 q 549 136 526 93 q 572 206 565 169 q 579 290 579 242 l 579 333 l 318 333 q 222 324 253 333 q 179 288 192 315 q 167 200 167 260 q 181 115 167 143 q 233 76 196 86 q 349 65 271 65 m 642 1032 q 624 916 642 949 q 546 883 606 883 q 473 892 508 883 q 381 919 438 901 q 342 931 371 922 q 291 943 314 939 q 250 947 268 947 q 213 931 221 947 q 204 868 204 914 l 151 868 q 158 956 151 925 q 185 1001 165 986 q 246 1017 206 1017 q 317 1008 282 1017 q 413 982 351 1000 q 487 960 458 967 q 543 953 515 953 q 581 969 572 953 q 589 1032 589 986 l 642 1032 z "},"æ":{"ha":1263,"x_min":82,"x_max":1165,"o":"m 1165 328 l 665 328 q 680 160 665 213 q 744 88 694 108 q 907 67 794 67 q 1024 72 960 67 q 1138 83 1089 76 l 1138 8 q 1028 -6 1097 -1 q 890 -11 958 -11 q 701 15 764 -11 q 613 110 639 42 q 506 13 576 36 q 333 -11 435 -11 q 190 6 244 -11 q 109 68 136 24 q 82 193 82 113 q 101 317 82 272 q 165 380 119 361 q 296 399 211 399 l 579 397 l 579 447 q 563 579 579 540 q 501 630 546 618 q 350 642 457 642 q 234 636 303 642 q 131 625 165 631 l 131 701 q 382 719 236 719 q 547 701 490 719 q 628 633 603 682 q 719 699 658 679 q 889 719 779 719 q 1076 686 1018 719 q 1150 582 1135 653 q 1165 358 1165 511 l 1165 328 m 885 642 q 738 624 782 642 q 679 558 693 607 q 665 396 665 508 l 1083 396 l 1083 411 q 1066 563 1083 515 q 1009 626 1049 611 q 885 642 969 642 m 579 329 l 318 329 q 222 320 253 329 q 179 285 192 311 q 167 200 167 258 q 181 115 167 143 q 233 76 196 86 q 349 65 271 65 q 480 81 429 65 q 553 143 531 96 q 573 209 567 175 q 579 290 579 243 l 579 329 z "},"ǽ":{"ha":1263,"x_min":82,"x_max":1165,"o":"m 1165 328 l 665 328 q 680 160 665 213 q 744 88 694 108 q 907 67 794 67 q 1024 72 960 67 q 1138 83 1089 76 l 1138 8 q 1028 -6 1097 -1 q 890 -11 958 -11 q 701 15 764 -11 q 613 110 639 42 q 506 13 576 36 q 333 -11 435 -11 q 190 6 244 -11 q 109 68 136 24 q 82 193 82 113 q 101 317 82 272 q 165 380 119 361 q 296 399 211 399 l 579 397 l 579 447 q 563 579 579 540 q 501 630 546 618 q 350 642 457 642 q 234 636 303 642 q 131 625 165 631 l 131 701 q 382 719 236 719 q 547 701 490 719 q 628 633 603 682 q 719 699 658 679 q 889 719 779 719 q 1076 686 1018 719 q 1150 582 1135 653 q 1165 358 1165 511 l 1165 328 m 885 642 q 738 624 782 642 q 679 558 693 607 q 665 396 665 508 l 1083 396 l 1083 411 q 1066 563 1083 515 q 1009 626 1049 611 q 885 642 969 642 m 579 329 l 318 329 q 222 320 253 329 q 179 285 192 311 q 167 200 167 258 q 181 115 167 143 q 233 76 196 86 q 349 65 271 65 q 480 81 429 65 q 553 143 531 96 q 573 209 567 175 q 579 290 579 243 l 579 329 m 593 838 l 593 844 l 736 1032 l 833 1032 l 833 1025 l 657 838 l 593 838 z "},"b":{"ha":822,"x_min":128,"x_max":726,"o":"m 457 -11 q 303 13 365 -11 q 214 106 242 36 l 207 106 l 203 0 l 128 0 l 128 1032 l 213 1032 l 213 614 l 219 614 q 304 695 246 671 q 460 719 363 719 q 627 689 571 719 q 705 582 683 658 q 726 354 726 506 q 704 126 726 203 q 626 19 682 50 q 457 -11 569 -11 m 426 69 q 569 89 526 69 q 627 165 613 108 q 642 354 642 222 q 627 543 642 486 q 569 619 613 600 q 426 639 526 639 q 302 618 349 639 q 236 553 256 597 q 217 472 222 517 q 213 354 213 426 q 217 236 213 281 q 236 157 221 192 q 301 90 254 111 q 426 69 347 69 z "},"c":{"ha":638,"x_min":96,"x_max":568,"o":"m 568 7 q 482 -6 535 -1 q 381 -11 429 -11 q 192 25 251 -11 q 114 135 132 61 q 96 354 96 210 q 117 575 96 499 q 199 685 139 651 q 375 719 258 719 q 474 715 422 719 q 561 703 526 710 l 561 626 q 394 642 475 642 q 255 619 299 642 q 196 538 211 596 q 181 356 181 479 q 196 168 181 226 q 256 88 211 110 q 399 67 300 67 q 568 82 482 67 l 568 7 z "},"ć":{"ha":638,"x_min":96,"x_max":568,"o":"m 568 7 q 482 -6 535 -1 q 381 -11 429 -11 q 192 25 251 -11 q 114 135 132 61 q 96 354 96 210 q 117 575 96 499 q 199 685 139 651 q 375 719 258 719 q 474 715 422 719 q 561 703 526 710 l 561 626 q 394 642 475 642 q 255 619 299 642 q 196 538 211 596 q 181 356 181 479 q 196 168 181 226 q 256 88 211 110 q 399 67 300 67 q 568 82 482 67 l 568 7 m 279 838 l 279 844 l 422 1032 l 519 1032 l 519 1025 l 343 838 l 279 838 z "},"č":{"ha":638,"x_min":96,"x_max":568,"o":"m 568 7 q 482 -6 535 -1 q 381 -11 429 -11 q 192 25 251 -11 q 114 135 132 61 q 96 354 96 210 q 117 575 96 499 q 199 685 139 651 q 375 719 258 719 q 474 715 422 719 q 561 703 526 710 l 561 626 q 394 642 475 642 q 255 619 299 642 q 196 538 211 596 q 181 356 181 479 q 196 168 181 226 q 256 88 211 110 q 399 67 300 67 q 568 82 482 67 l 568 7 m 271 838 l 126 1024 l 126 1032 l 186 1032 l 318 892 l 450 1032 l 510 1032 l 510 1024 l 365 838 l 271 838 z "},"ç":{"ha":638,"x_min":96,"x_max":568,"o":"m 399 67 q 568 82 482 67 l 568 7 q 482 -6 535 -1 q 381 -11 429 -11 l 347 -11 l 292 -264 l 204 -264 l 204 -257 l 285 -6 q 161 49 201 7 q 108 160 121 90 q 96 354 96 229 q 117 575 96 499 q 199 685 139 651 q 375 719 258 719 q 474 715 422 719 q 561 703 526 710 l 561 626 q 394 642 475 642 q 255 619 299 642 q 196 538 211 596 q 181 356 181 479 q 196 168 181 226 q 256 88 211 110 q 399 67 300 67 z "},"ĉ":{"ha":638,"x_min":96,"x_max":568,"o":"m 568 7 q 482 -6 535 -1 q 381 -11 429 -11 q 192 25 251 -11 q 114 135 132 61 q 96 354 96 210 q 117 575 96 499 q 199 685 139 651 q 375 719 258 719 q 474 715 422 719 q 561 703 526 710 l 561 626 q 394 642 475 642 q 255 619 299 642 q 196 538 211 596 q 181 356 181 479 q 196 168 181 226 q 256 88 211 110 q 399 67 300 67 q 568 82 482 67 l 568 7 m 126 838 l 126 846 l 271 1032 l 365 1032 l 510 846 l 510 838 l 450 838 l 318 978 l 186 838 l 126 838 z "},"ċ":{"ha":638,"x_min":96,"x_max":568,"o":"m 568 7 q 482 -6 535 -1 q 381 -11 429 -11 q 192 25 251 -11 q 114 135 132 61 q 96 354 96 210 q 117 575 96 499 q 199 685 139 651 q 375 719 258 719 q 474 715 422 719 q 561 703 526 710 l 561 626 q 394 642 475 642 q 255 619 299 642 q 196 538 211 596 q 181 356 181 479 q 196 168 181 226 q 256 88 211 110 q 399 67 300 67 q 568 82 482 67 l 568 7 m 275 913 l 275 1015 l 361 1015 l 361 913 l 275 913 z "},"d":{"ha":822,"x_min":96,"x_max":694,"o":"m 365 -11 q 197 19 253 -11 q 118 127 140 50 q 96 354 96 204 q 118 581 96 504 q 197 688 140 657 q 364 719 253 719 q 519 695 461 719 q 603 614 576 671 l 610 614 l 610 1032 l 694 1032 l 694 0 l 621 0 l 615 106 l 608 106 q 519 13 581 36 q 365 -11 457 -11 m 396 69 q 589 158 557 69 q 606 242 603 197 q 610 367 610 288 q 606 469 610 429 q 592 539 603 508 q 524 615 572 592 q 392 639 476 639 q 252 619 294 639 q 195 542 210 600 q 181 354 181 485 q 196 165 181 222 q 254 89 211 108 q 396 69 297 69 z "},"ð":{"ha":804,"x_min":96,"x_max":707,"o":"m 401 -11 q 194 19 257 -11 q 113 119 131 49 q 96 353 96 190 q 113 583 96 510 q 190 688 129 656 q 386 719 250 719 q 578 678 510 719 l 585 681 q 486 871 549 788 l 321 843 l 321 910 l 444 931 q 378 997 408 971 q 343 1026 347 1022 l 343 1032 l 439 1032 q 529 944 493 986 l 675 971 l 675 904 l 571 886 q 644 750 611 828 q 690 592 676 672 q 707 381 707 490 q 691 126 707 201 q 613 20 675 51 q 401 -11 550 -11 m 401 67 q 558 87 515 67 q 612 159 601 107 q 622 353 622 211 q 612 530 622 475 q 555 613 601 585 q 401 642 508 642 q 245 621 289 642 q 191 547 201 600 q 181 353 181 494 q 191 159 181 211 q 244 87 201 107 q 401 67 288 67 z "},"ď":{"ha":826,"x_min":96,"x_max":864,"o":"m 365 -11 q 197 19 253 -11 q 118 127 140 50 q 96 354 96 204 q 118 581 96 504 q 197 688 140 657 q 364 719 253 719 q 519 695 461 719 q 603 614 576 671 l 610 614 l 610 1032 l 694 1032 l 694 0 l 621 0 l 615 106 l 608 106 q 519 13 581 36 q 365 -11 457 -11 m 396 69 q 589 158 557 69 q 606 242 603 197 q 610 367 610 288 q 606 469 610 429 q 592 539 603 508 q 524 615 572 592 q 392 639 476 639 q 252 619 294 639 q 195 542 210 600 q 181 354 181 485 q 196 165 181 222 q 254 89 211 108 q 396 69 297 69 m 761 621 l 779 843 l 779 956 l 864 956 l 864 843 l 818 621 l 761 621 z "},"đ":{"ha":822,"x_min":96,"x_max":789,"o":"m 789 879 l 694 879 l 694 0 l 621 0 l 615 106 l 608 106 q 519 13 581 36 q 365 -11 457 -11 q 197 19 253 -11 q 118 127 140 50 q 96 354 96 204 q 118 581 96 504 q 197 688 140 657 q 364 719 253 719 q 519 695 461 719 q 603 614 576 671 l 610 614 l 610 879 l 411 879 l 411 956 l 610 956 l 610 1032 l 694 1032 l 694 956 l 789 956 l 789 879 m 589 158 q 606 242 603 197 q 610 367 610 288 q 606 469 610 429 q 592 539 603 508 q 524 615 572 592 q 392 639 476 639 q 252 619 294 639 q 195 542 210 600 q 181 354 181 485 q 196 165 181 222 q 254 89 211 108 q 396 69 297 69 q 589 158 557 69 z "},"ḍ":{"ha":822,"x_min":96,"x_max":694,"o":"m 365 -11 q 197 19 253 -11 q 118 127 140 50 q 96 354 96 204 q 118 581 96 504 q 197 688 140 657 q 364 719 253 719 q 519 695 461 719 q 603 614 576 671 l 610 614 l 610 1032 l 694 1032 l 694 0 l 621 0 l 615 106 l 608 106 q 519 13 581 36 q 365 -11 457 -11 m 396 69 q 589 158 557 69 q 606 242 603 197 q 610 367 610 288 q 606 469 610 429 q 592 539 603 508 q 524 615 572 592 q 392 639 476 639 q 252 619 294 639 q 195 542 210 600 q 181 354 181 485 q 196 165 181 222 q 254 89 211 108 q 396 69 297 69 m 360 -207 l 360 -86 l 463 -86 l 463 -207 l 360 -207 z "},"ǳ":{"ha":1519,"x_min":96,"x_max":1446,"o":"m 365 -11 q 197 19 253 -11 q 118 127 140 50 q 96 354 96 204 q 118 581 96 504 q 197 688 140 657 q 364 719 253 719 q 519 695 461 719 q 603 614 576 671 l 610 614 l 610 1032 l 694 1032 l 694 0 l 621 0 l 615 106 l 608 106 q 519 13 581 36 q 365 -11 457 -11 m 396 69 q 589 158 557 69 q 606 242 603 197 q 610 367 610 288 q 606 469 610 429 q 592 539 603 508 q 524 615 572 592 q 392 639 476 639 q 252 619 294 639 q 195 542 210 600 q 181 354 181 485 q 196 165 181 222 q 254 89 211 108 q 396 69 297 69 m 896 0 l 896 71 l 1332 631 l 913 631 l 913 708 l 1443 708 l 1443 638 l 1008 78 l 1446 78 l 1446 0 l 896 0 z "},"ǆ":{"ha":1519,"x_min":96,"x_max":1446,"o":"m 365 -11 q 197 19 253 -11 q 118 127 140 50 q 96 354 96 204 q 118 581 96 504 q 197 688 140 657 q 364 719 253 719 q 519 695 461 719 q 603 614 576 671 l 610 614 l 610 1032 l 694 1032 l 694 0 l 621 0 l 615 106 l 608 106 q 519 13 581 36 q 365 -11 457 -11 m 396 69 q 589 158 557 69 q 606 242 603 197 q 610 367 610 288 q 606 469 610 429 q 592 539 603 508 q 524 615 572 592 q 392 639 476 639 q 252 619 294 639 q 195 542 210 600 q 181 354 181 485 q 196 165 181 222 q 254 89 211 108 q 396 69 297 69 m 896 0 l 896 71 l 1332 631 l 913 631 l 913 708 l 1443 708 l 1443 638 l 1008 78 l 1446 78 l 1446 0 l 896 0 m 1129 838 l 985 1024 l 985 1032 l 1044 1032 l 1176 892 l 1308 1032 l 1368 1032 l 1368 1024 l 1224 838 l 1129 838 z "},"e":{"ha":778,"x_min":96,"x_max":682,"o":"m 682 324 l 181 324 q 196 158 181 208 q 260 87 211 107 q 424 67 310 67 q 542 72 476 67 q 654 83 607 76 l 654 8 q 544 -6 613 -1 q 407 -11 475 -11 q 203 21 268 -11 q 117 126 138 53 q 96 353 96 200 q 114 578 96 506 q 197 685 132 650 q 406 719 261 719 q 593 686 535 719 q 667 581 651 653 q 682 354 682 508 l 682 324 m 401 642 q 254 624 299 642 q 196 556 210 606 q 181 392 182 506 l 600 392 l 600 411 q 583 563 600 515 q 525 626 565 611 q 401 642 485 642 z "},"é":{"ha":778,"x_min":96,"x_max":682,"o":"m 682 324 l 181 324 q 196 158 181 208 q 260 87 211 107 q 424 67 310 67 q 542 72 476 67 q 654 83 607 76 l 654 8 q 544 -6 613 -1 q 407 -11 475 -11 q 203 21 268 -11 q 117 126 138 53 q 96 353 96 200 q 114 578 96 506 q 197 685 132 650 q 406 719 261 719 q 593 686 535 719 q 667 581 651 653 q 682 354 682 508 l 682 324 m 401 642 q 254 624 299 642 q 196 556 210 606 q 181 392 182 506 l 600 392 l 600 411 q 583 563 600 515 q 525 626 565 611 q 401 642 485 642 m 347 838 l 347 844 l 490 1032 l 588 1032 l 588 1025 l 411 838 l 347 838 z "},"ĕ":{"ha":778,"x_min":96,"x_max":682,"o":"m 682 324 l 181 324 q 196 158 181 208 q 260 87 211 107 q 424 67 310 67 q 542 72 476 67 q 654 83 607 76 l 654 8 q 544 -6 613 -1 q 407 -11 475 -11 q 203 21 268 -11 q 117 126 138 53 q 96 353 96 200 q 114 578 96 506 q 197 685 132 650 q 406 719 261 719 q 593 686 535 719 q 667 581 651 653 q 682 354 682 508 l 682 324 m 401 642 q 254 624 299 642 q 196 556 210 606 q 181 392 182 506 l 600 392 l 600 411 q 583 563 600 515 q 525 626 565 611 q 401 642 485 642 m 574 1032 q 563 922 574 961 q 513 858 553 882 q 388 833 472 833 q 263 858 303 833 q 213 922 222 882 q 203 1032 203 961 l 263 1032 q 269 950 263 976 q 301 908 275 924 q 388 893 328 893 q 474 908 447 893 q 508 951 501 924 q 514 1032 514 978 l 574 1032 z "},"ě":{"ha":778,"x_min":96,"x_max":682,"o":"m 682 324 l 181 324 q 196 158 181 208 q 260 87 211 107 q 424 67 310 67 q 542 72 476 67 q 654 83 607 76 l 654 8 q 544 -6 613 -1 q 407 -11 475 -11 q 203 21 268 -11 q 117 126 138 53 q 96 353 96 200 q 114 578 96 506 q 197 685 132 650 q 406 719 261 719 q 593 686 535 719 q 667 581 651 653 q 682 354 682 508 l 682 324 m 401 642 q 254 624 299 642 q 196 556 210 606 q 181 392 182 506 l 600 392 l 600 411 q 583 563 600 515 q 525 626 565 611 q 401 642 485 642 m 342 838 l 197 1024 l 197 1032 l 257 1032 l 389 892 l 521 1032 l 581 1032 l 581 1024 l 436 838 l 342 838 z "},"ê":{"ha":778,"x_min":96,"x_max":682,"o":"m 682 324 l 181 324 q 196 158 181 208 q 260 87 211 107 q 424 67 310 67 q 542 72 476 67 q 654 83 607 76 l 654 8 q 544 -6 613 -1 q 407 -11 475 -11 q 203 21 268 -11 q 117 126 138 53 q 96 353 96 200 q 114 578 96 506 q 197 685 132 650 q 406 719 261 719 q 593 686 535 719 q 667 581 651 653 q 682 354 682 508 l 682 324 m 401 642 q 254 624 299 642 q 196 556 210 606 q 181 392 182 506 l 600 392 l 600 411 q 583 563 600 515 q 525 626 565 611 q 401 642 485 642 m 199 838 l 199 846 l 343 1032 l 438 1032 l 582 846 l 582 838 l 522 838 l 390 978 l 258 838 l 199 838 z "},"ế":{"ha":778,"x_min":96,"x_max":710,"o":"m 682 324 l 181 324 q 196 158 181 208 q 260 87 211 107 q 424 67 310 67 q 542 72 476 67 q 654 83 607 76 l 654 8 q 544 -6 613 -1 q 407 -11 475 -11 q 203 21 268 -11 q 117 126 138 53 q 96 353 96 200 q 114 578 96 506 q 197 685 132 650 q 406 719 261 719 q 593 686 535 719 q 667 581 651 653 q 682 354 682 508 l 682 324 m 401 642 q 254 624 299 642 q 196 556 210 606 q 181 392 182 506 l 600 392 l 600 411 q 583 563 600 515 q 525 626 565 611 q 401 642 485 642 m 192 838 l 192 846 l 336 1032 l 431 1032 l 575 846 l 575 838 l 515 838 l 383 978 l 251 838 l 192 838 m 469 1046 l 469 1053 l 613 1240 l 710 1240 l 710 1233 l 533 1046 l 469 1046 z "},"ệ":{"ha":778,"x_min":96,"x_max":682,"o":"m 682 324 l 181 324 q 196 158 181 208 q 260 87 211 107 q 424 67 310 67 q 542 72 476 67 q 654 83 607 76 l 654 8 q 544 -6 613 -1 q 407 -11 475 -11 q 203 21 268 -11 q 117 126 138 53 q 96 353 96 200 q 114 578 96 506 q 197 685 132 650 q 406 719 261 719 q 593 686 535 719 q 667 581 651 653 q 682 354 682 508 l 682 324 m 401 642 q 254 624 299 642 q 196 556 210 606 q 181 392 182 506 l 600 392 l 600 411 q 583 563 600 515 q 525 626 565 611 q 401 642 485 642 m 338 -207 l 338 -86 l 440 -86 l 440 -207 l 338 -207 m 197 838 l 197 846 l 342 1032 l 436 1032 l 581 846 l 581 838 l 521 838 l 389 978 l 257 838 l 197 838 z "},"ề":{"ha":778,"x_min":96,"x_max":682,"o":"m 682 324 l 181 324 q 196 158 181 208 q 260 87 211 107 q 424 67 310 67 q 542 72 476 67 q 654 83 607 76 l 654 8 q 544 -6 613 -1 q 407 -11 475 -11 q 203 21 268 -11 q 117 126 138 53 q 96 353 96 200 q 114 578 96 506 q 197 685 132 650 q 406 719 261 719 q 593 686 535 719 q 667 581 651 653 q 682 354 682 508 l 682 324 m 401 642 q 254 624 299 642 q 196 556 210 606 q 181 392 182 506 l 600 392 l 600 411 q 583 563 600 515 q 525 626 565 611 q 401 642 485 642 m 192 838 l 192 846 l 336 1032 l 431 1032 l 575 846 l 575 838 l 515 838 l 383 978 l 251 838 l 192 838 m 521 1046 l 344 1233 l 344 1240 l 442 1240 l 585 1053 l 585 1046 l 521 1046 z "},"ể":{"ha":778,"x_min":96,"x_max":682,"o":"m 682 324 l 181 324 q 196 158 181 208 q 260 87 211 107 q 424 67 310 67 q 542 72 476 67 q 654 83 607 76 l 654 8 q 544 -6 613 -1 q 407 -11 475 -11 q 203 21 268 -11 q 117 126 138 53 q 96 353 96 200 q 114 578 96 506 q 197 685 132 650 q 406 719 261 719 q 593 686 535 719 q 667 581 651 653 q 682 354 682 508 l 682 324 m 401 642 q 254 624 299 642 q 196 556 210 606 q 181 392 182 506 l 600 392 l 600 411 q 583 563 600 515 q 525 626 565 611 q 401 642 485 642 m 197 838 l 197 846 l 342 1032 l 436 1032 l 581 846 l 581 838 l 521 838 l 389 978 l 257 838 l 197 838 m 447 1056 q 459 1104 447 1090 q 507 1128 471 1118 l 540 1138 q 604 1160 590 1150 q 618 1197 618 1171 q 607 1235 618 1224 q 573 1250 596 1247 q 500 1253 550 1253 q 346 1246 436 1253 l 346 1297 q 503 1307 408 1307 q 608 1300 571 1307 q 663 1272 644 1293 q 682 1206 682 1250 q 666 1139 682 1160 q 599 1104 650 1118 l 561 1093 q 519 1080 531 1085 q 504 1067 507 1075 q 501 1042 501 1060 l 447 1042 l 447 1056 z "},"ễ":{"ha":778,"x_min":96,"x_max":682,"o":"m 682 324 l 181 324 q 196 158 181 208 q 260 87 211 107 q 424 67 310 67 q 542 72 476 67 q 654 83 607 76 l 654 8 q 544 -6 613 -1 q 407 -11 475 -11 q 203 21 268 -11 q 117 126 138 53 q 96 353 96 200 q 114 578 96 506 q 197 685 132 650 q 406 719 261 719 q 593 686 535 719 q 667 581 651 653 q 682 354 682 508 l 682 324 m 401 642 q 254 624 299 642 q 196 556 210 606 q 181 392 182 506 l 600 392 l 600 411 q 583 563 600 515 q 525 626 565 611 q 401 642 485 642 m 194 838 l 194 846 l 339 1032 l 433 1032 l 578 846 l 578 838 l 518 838 l 386 978 l 254 838 l 194 838 m 633 1272 q 615 1156 633 1189 q 538 1124 597 1124 q 465 1133 500 1124 q 372 1160 429 1142 q 334 1171 363 1163 q 283 1183 306 1179 q 242 1188 260 1188 q 204 1171 213 1188 q 196 1108 196 1154 l 143 1108 q 150 1196 143 1165 q 177 1242 157 1226 q 238 1257 197 1257 q 308 1249 274 1257 q 404 1222 343 1240 q 478 1200 450 1207 q 535 1193 507 1193 q 572 1210 564 1193 q 581 1272 581 1226 l 633 1272 z "},"ȅ":{"ha":778,"x_min":72,"x_max":682,"o":"m 682 324 l 181 324 q 196 158 181 208 q 260 87 211 107 q 424 67 310 67 q 542 72 476 67 q 654 83 607 76 l 654 8 q 544 -6 613 -1 q 407 -11 475 -11 q 203 21 268 -11 q 117 126 138 53 q 96 353 96 200 q 114 578 96 506 q 197 685 132 650 q 406 719 261 719 q 593 686 535 719 q 667 581 651 653 q 682 354 682 508 l 682 324 m 401 642 q 254 624 299 642 q 196 556 210 606 q 181 392 182 506 l 600 392 l 600 411 q 583 563 600 515 q 525 626 565 611 q 401 642 485 642 m 301 842 l 243 842 l 72 1021 l 72 1028 l 161 1028 l 301 849 l 301 842 m 568 842 l 511 842 l 340 1021 l 340 1028 l 428 1028 l 568 849 l 568 842 z "},"ë":{"ha":778,"x_min":96,"x_max":682,"o":"m 682 324 l 181 324 q 196 158 181 208 q 260 87 211 107 q 424 67 310 67 q 542 72 476 67 q 654 83 607 76 l 654 8 q 544 -6 613 -1 q 407 -11 475 -11 q 203 21 268 -11 q 117 126 138 53 q 96 353 96 200 q 114 578 96 506 q 197 685 132 650 q 406 719 261 719 q 593 686 535 719 q 667 581 651 653 q 682 354 682 508 l 682 324 m 401 642 q 254 624 299 642 q 196 556 210 606 q 181 392 182 506 l 600 392 l 600 411 q 583 563 600 515 q 525 626 565 611 q 401 642 485 642 m 219 913 l 219 1015 l 306 1015 l 306 913 l 219 913 m 476 913 l 476 1015 l 563 1015 l 563 913 l 476 913 z "},"ė":{"ha":778,"x_min":96,"x_max":682,"o":"m 682 324 l 181 324 q 196 158 181 208 q 260 87 211 107 q 424 67 310 67 q 542 72 476 67 q 654 83 607 76 l 654 8 q 544 -6 613 -1 q 407 -11 475 -11 q 203 21 268 -11 q 117 126 138 53 q 96 353 96 200 q 114 578 96 506 q 197 685 132 650 q 406 719 261 719 q 593 686 535 719 q 667 581 651 653 q 682 354 682 508 l 682 324 m 401 642 q 254 624 299 642 q 196 556 210 606 q 181 392 182 506 l 600 392 l 600 411 q 583 563 600 515 q 525 626 565 611 q 401 642 485 642 m 346 913 l 346 1015 l 432 1015 l 432 913 l 346 913 z "},"ẹ":{"ha":778,"x_min":96,"x_max":682,"o":"m 682 324 l 181 324 q 196 158 181 208 q 260 87 211 107 q 424 67 310 67 q 542 72 476 67 q 654 83 607 76 l 654 8 q 544 -6 613 -1 q 407 -11 475 -11 q 203 21 268 -11 q 117 126 138 53 q 96 353 96 200 q 114 578 96 506 q 197 685 132 650 q 406 719 261 719 q 593 686 535 719 q 667 581 651 653 q 682 354 682 508 l 682 324 m 401 642 q 254 624 299 642 q 196 556 210 606 q 181 392 182 506 l 600 392 l 600 411 q 583 563 600 515 q 525 626 565 611 q 401 642 485 642 m 338 -207 l 338 -86 l 440 -86 l 440 -207 l 338 -207 z "},"è":{"ha":778,"x_min":96,"x_max":682,"o":"m 682 324 l 181 324 q 196 158 181 208 q 260 87 211 107 q 424 67 310 67 q 542 72 476 67 q 654 83 607 76 l 654 8 q 544 -6 613 -1 q 407 -11 475 -11 q 203 21 268 -11 q 117 126 138 53 q 96 353 96 200 q 114 578 96 506 q 197 685 132 650 q 406 719 261 719 q 593 686 535 719 q 667 581 651 653 q 682 354 682 508 l 682 324 m 401 642 q 254 624 299 642 q 196 556 210 606 q 181 392 182 506 l 600 392 l 600 411 q 583 563 600 515 q 525 626 565 611 q 401 642 485 642 m 383 838 l 207 1025 l 207 1032 l 304 1032 l 447 844 l 447 838 l 383 838 z "},"ẻ":{"ha":778,"x_min":96,"x_max":682,"o":"m 682 324 l 181 324 q 196 158 181 208 q 260 87 211 107 q 424 67 310 67 q 542 72 476 67 q 654 83 607 76 l 654 8 q 544 -6 613 -1 q 407 -11 475 -11 q 203 21 268 -11 q 117 126 138 53 q 96 353 96 200 q 114 578 96 506 q 197 685 132 650 q 406 719 261 719 q 593 686 535 719 q 667 581 651 653 q 682 354 682 508 l 682 324 m 401 642 q 254 624 299 642 q 196 556 210 606 q 181 392 182 506 l 600 392 l 600 411 q 583 563 600 515 q 525 626 565 611 q 401 642 485 642 m 322 857 q 334 906 322 892 q 382 929 346 919 l 415 939 q 479 962 465 951 q 493 999 493 972 q 482 1037 493 1025 q 448 1051 471 1049 q 375 1054 425 1054 q 221 1047 311 1054 l 221 1099 q 378 1108 283 1108 q 483 1101 446 1108 q 538 1073 519 1094 q 557 1007 557 1051 q 541 940 557 961 q 474 906 525 919 l 436 894 q 394 881 406 886 q 379 869 382 876 q 376 843 376 861 l 322 843 l 322 857 z "},"ȇ":{"ha":778,"x_min":96,"x_max":682,"o":"m 682 324 l 181 324 q 196 158 181 208 q 260 87 211 107 q 424 67 310 67 q 542 72 476 67 q 654 83 607 76 l 654 8 q 544 -6 613 -1 q 407 -11 475 -11 q 203 21 268 -11 q 117 126 138 53 q 96 353 96 200 q 114 578 96 506 q 197 685 132 650 q 406 719 261 719 q 593 686 535 719 q 667 581 651 653 q 682 354 682 508 l 682 324 m 401 642 q 254 624 299 642 q 196 556 210 606 q 181 392 182 506 l 600 392 l 600 411 q 583 563 600 515 q 525 626 565 611 q 401 642 485 642 m 203 842 q 213 952 203 913 q 264 1016 224 992 q 389 1040 304 1040 q 514 1016 474 1040 q 564 952 554 992 q 574 842 574 913 l 514 842 q 508 924 514 897 q 475 965 501 950 q 389 981 449 981 q 302 965 329 981 q 269 923 275 950 q 263 842 263 896 l 203 842 z "},"ē":{"ha":778,"x_min":96,"x_max":682,"o":"m 682 324 l 181 324 q 196 158 181 208 q 260 87 211 107 q 424 67 310 67 q 542 72 476 67 q 654 83 607 76 l 654 8 q 544 -6 613 -1 q 407 -11 475 -11 q 203 21 268 -11 q 117 126 138 53 q 96 353 96 200 q 114 578 96 506 q 197 685 132 650 q 406 719 261 719 q 593 686 535 719 q 667 581 651 653 q 682 354 682 508 l 682 324 m 401 642 q 254 624 299 642 q 196 556 210 606 q 181 392 182 506 l 600 392 l 600 411 q 583 563 600 515 q 525 626 565 611 q 401 642 485 642 m 225 946 l 225 1031 l 551 1031 l 551 946 l 225 946 z "},"ę":{"ha":778,"x_min":96,"x_max":682,"o":"m 682 324 l 181 324 q 196 158 181 208 q 260 87 211 107 q 424 67 310 67 q 542 72 476 67 q 654 83 607 76 l 654 8 q 585 -66 617 -19 q 553 -151 553 -112 q 569 -192 553 -176 q 618 -208 585 -208 q 642 -207 633 -208 l 642 -269 q 599 -272 625 -272 q 506 -244 535 -272 q 478 -172 478 -217 q 501 -86 478 -129 q 564 -4 524 -43 q 407 -11 483 -11 q 203 21 268 -11 q 117 126 138 53 q 96 353 96 200 q 114 578 96 506 q 197 685 132 650 q 406 719 261 719 q 593 686 535 719 q 667 581 651 653 q 682 354 682 508 l 682 324 m 401 642 q 254 624 299 642 q 196 556 210 606 q 181 392 182 506 l 600 392 l 600 411 q 583 563 600 515 q 525 626 565 611 q 401 642 485 642 z "},"ẽ":{"ha":778,"x_min":96,"x_max":682,"o":"m 682 324 l 181 324 q 196 158 181 208 q 260 87 211 107 q 424 67 310 67 q 542 72 476 67 q 654 83 607 76 l 654 8 q 544 -6 613 -1 q 407 -11 475 -11 q 203 21 268 -11 q 117 126 138 53 q 96 353 96 200 q 114 578 96 506 q 197 685 132 650 q 406 719 261 719 q 593 686 535 719 q 667 581 651 653 q 682 354 682 508 l 682 324 m 401 642 q 254 624 299 642 q 196 556 210 606 q 181 392 182 506 l 600 392 l 600 411 q 583 563 600 515 q 525 626 565 611 q 401 642 485 642 m 633 1032 q 615 916 633 949 q 538 883 597 883 q 465 892 500 883 q 372 919 429 901 q 334 931 363 922 q 283 943 306 939 q 242 947 260 947 q 204 931 213 947 q 196 868 196 914 l 143 868 q 150 956 143 925 q 177 1001 157 986 q 238 1017 197 1017 q 308 1008 274 1017 q 404 982 343 1000 q 478 960 450 967 q 535 953 507 953 q 572 969 564 953 q 581 1032 581 986 l 633 1032 z "},"ə":{"ha":778,"x_min":96,"x_max":682,"o":"m 371 719 q 575 688 510 719 q 661 582 640 656 q 682 356 682 508 q 664 131 682 203 q 581 24 646 58 q 372 -11 517 -11 q 185 22 243 -11 q 111 128 126 56 q 96 354 96 200 l 96 385 l 597 385 q 582 551 597 500 q 517 622 567 601 q 354 642 468 642 q 236 637 301 642 q 124 625 171 632 l 124 700 q 234 715 165 710 q 371 719 303 719 m 376 67 q 524 85 479 67 q 582 153 568 103 q 597 317 596 203 l 178 317 l 178 297 q 195 145 178 193 q 253 82 213 97 q 376 67 293 67 z "},"f":{"ha":500,"x_min":39,"x_max":456,"o":"m 185 631 l 39 631 l 39 708 l 185 708 l 185 838 q 212 967 185 925 q 294 1020 239 1008 q 456 1032 349 1032 l 456 960 q 338 951 376 960 q 285 921 300 943 q 269 853 269 899 l 269 708 l 456 708 l 456 631 l 269 631 l 269 0 l 185 0 l 185 631 z "},"g":{"ha":822,"x_min":96,"x_max":694,"o":"m 383 -286 q 129 -275 246 -286 l 129 -199 q 367 -208 256 -208 q 528 -185 478 -208 q 594 -106 578 -162 q 610 72 610 -49 l 610 97 l 603 97 q 519 16 578 40 q 365 -8 461 -8 q 197 22 253 -8 q 118 128 140 53 q 96 354 96 204 q 118 581 96 504 q 197 689 140 658 q 365 719 253 719 q 519 695 457 719 q 608 601 581 671 l 615 601 l 621 708 l 694 708 l 694 94 q 673 -136 694 -58 q 585 -250 651 -214 q 383 -286 519 -286 m 396 72 q 523 94 476 72 q 588 161 569 115 q 606 238 601 194 q 610 354 610 281 q 606 469 610 426 q 590 542 603 511 q 524 616 571 593 q 396 639 476 639 q 254 619 297 639 q 196 542 211 600 q 181 354 181 485 q 196 167 181 224 q 254 92 211 111 q 396 72 297 72 z "},"ǵ":{"ha":822,"x_min":96,"x_max":694,"o":"m 383 -286 q 129 -275 246 -286 l 129 -199 q 367 -208 256 -208 q 528 -185 478 -208 q 594 -106 578 -162 q 610 72 610 -49 l 610 97 l 603 97 q 519 16 578 40 q 365 -8 461 -8 q 197 22 253 -8 q 118 128 140 53 q 96 354 96 204 q 118 581 96 504 q 197 689 140 658 q 365 719 253 719 q 519 695 457 719 q 608 601 581 671 l 615 601 l 621 708 l 694 708 l 694 94 q 673 -136 694 -58 q 585 -250 651 -214 q 383 -286 519 -286 m 396 72 q 523 94 476 72 q 588 161 569 115 q 606 238 601 194 q 610 354 610 281 q 606 469 610 426 q 590 542 603 511 q 524 616 571 593 q 396 639 476 639 q 254 619 297 639 q 196 542 211 600 q 181 354 181 485 q 196 167 181 224 q 254 92 211 111 q 396 72 297 72 m 372 838 l 372 844 l 515 1032 l 613 1032 l 613 1025 l 436 838 l 372 838 z "},"ğ":{"ha":822,"x_min":96,"x_max":694,"o":"m 383 -286 q 129 -275 246 -286 l 129 -199 q 367 -208 256 -208 q 528 -185 478 -208 q 594 -106 578 -162 q 610 72 610 -49 l 610 97 l 603 97 q 519 16 578 40 q 365 -8 461 -8 q 197 22 253 -8 q 118 128 140 53 q 96 354 96 204 q 118 581 96 504 q 197 689 140 658 q 365 719 253 719 q 519 695 457 719 q 608 601 581 671 l 615 601 l 621 708 l 694 708 l 694 94 q 673 -136 694 -58 q 585 -250 651 -214 q 383 -286 519 -286 m 396 72 q 523 94 476 72 q 588 161 569 115 q 606 238 601 194 q 610 354 610 281 q 606 469 610 426 q 590 542 603 511 q 524 616 571 593 q 396 639 476 639 q 254 619 297 639 q 196 542 211 600 q 181 354 181 485 q 196 167 181 224 q 254 92 211 111 q 396 72 297 72 m 596 1032 q 585 922 596 961 q 535 858 575 882 q 410 833 494 833 q 285 858 325 833 q 235 922 244 882 q 225 1032 225 961 l 285 1032 q 291 950 285 976 q 324 908 297 924 q 410 893 350 893 q 497 908 469 893 q 530 951 524 924 q 536 1032 536 978 l 596 1032 z "},"ǧ":{"ha":822,"x_min":96,"x_max":694,"o":"m 383 -286 q 129 -275 246 -286 l 129 -199 q 367 -208 256 -208 q 528 -185 478 -208 q 594 -106 578 -162 q 610 72 610 -49 l 610 97 l 603 97 q 519 16 578 40 q 365 -8 461 -8 q 197 22 253 -8 q 118 128 140 53 q 96 354 96 204 q 118 581 96 504 q 197 689 140 658 q 365 719 253 719 q 519 695 457 719 q 608 601 581 671 l 615 601 l 621 708 l 694 708 l 694 94 q 673 -136 694 -58 q 585 -250 651 -214 q 383 -286 519 -286 m 396 72 q 523 94 476 72 q 588 161 569 115 q 606 238 601 194 q 610 354 610 281 q 606 469 610 426 q 590 542 603 511 q 524 616 571 593 q 396 639 476 639 q 254 619 297 639 q 196 542 211 600 q 181 354 181 485 q 196 167 181 224 q 254 92 211 111 q 396 72 297 72 m 364 838 l 219 1024 l 219 1032 l 279 1032 l 411 892 l 543 1032 l 603 1032 l 603 1024 l 458 838 l 364 838 z "},"ĝ":{"ha":822,"x_min":96,"x_max":694,"o":"m 383 -286 q 129 -275 246 -286 l 129 -199 q 367 -208 256 -208 q 528 -185 478 -208 q 594 -106 578 -162 q 610 72 610 -49 l 610 97 l 603 97 q 519 16 578 40 q 365 -8 461 -8 q 197 22 253 -8 q 118 128 140 53 q 96 354 96 204 q 118 581 96 504 q 197 689 140 658 q 365 719 253 719 q 519 695 457 719 q 608 601 581 671 l 615 601 l 621 708 l 694 708 l 694 94 q 673 -136 694 -58 q 585 -250 651 -214 q 383 -286 519 -286 m 396 72 q 523 94 476 72 q 588 161 569 115 q 606 238 601 194 q 610 354 610 281 q 606 469 610 426 q 590 542 603 511 q 524 616 571 593 q 396 639 476 639 q 254 619 297 639 q 196 542 211 600 q 181 354 181 485 q 196 167 181 224 q 254 92 211 111 q 396 72 297 72 m 219 838 l 219 846 l 364 1032 l 458 1032 l 603 846 l 603 838 l 543 838 l 411 978 l 279 838 l 219 838 z "},"ģ":{"ha":822,"x_min":96,"x_max":694,"o":"m 383 -286 q 129 -275 246 -286 l 129 -199 q 367 -208 256 -208 q 528 -185 478 -208 q 594 -106 578 -162 q 610 72 610 -49 l 610 97 l 603 97 q 519 16 578 40 q 365 -8 461 -8 q 197 22 253 -8 q 118 128 140 53 q 96 354 96 204 q 118 581 96 504 q 197 689 140 658 q 365 719 253 719 q 519 695 457 719 q 608 601 581 671 l 615 601 l 621 708 l 694 708 l 694 94 q 673 -136 694 -58 q 585 -250 651 -214 q 383 -286 519 -286 m 396 72 q 523 94 476 72 q 588 161 569 115 q 606 238 601 194 q 610 354 610 281 q 606 469 610 426 q 590 542 603 511 q 524 616 571 593 q 396 639 476 639 q 254 619 297 639 q 196 542 211 600 q 181 354 181 485 q 196 167 181 224 q 254 92 211 111 q 396 72 297 72 m 496 1056 q 433 1041 447 1056 q 419 981 419 1026 l 419 957 l 461 957 l 461 840 l 361 840 l 361 949 q 372 1044 361 1013 q 410 1088 382 1075 q 496 1100 438 1100 l 496 1056 z "},"ġ":{"ha":822,"x_min":96,"x_max":694,"o":"m 383 -286 q 129 -275 246 -286 l 129 -199 q 367 -208 256 -208 q 528 -185 478 -208 q 594 -106 578 -162 q 610 72 610 -49 l 610 97 l 603 97 q 519 16 578 40 q 365 -8 461 -8 q 197 22 253 -8 q 118 128 140 53 q 96 354 96 204 q 118 581 96 504 q 197 689 140 658 q 365 719 253 719 q 519 695 457 719 q 608 601 581 671 l 615 601 l 621 708 l 694 708 l 694 94 q 673 -136 694 -58 q 585 -250 651 -214 q 383 -286 519 -286 m 396 72 q 523 94 476 72 q 588 161 569 115 q 606 238 601 194 q 610 354 610 281 q 606 469 610 426 q 590 542 603 511 q 524 616 571 593 q 396 639 476 639 q 254 619 297 639 q 196 542 211 600 q 181 354 181 485 q 196 167 181 224 q 254 92 211 111 q 396 72 297 72 m 368 913 l 368 1015 l 454 1015 l 454 913 l 368 913 z "},"h":{"ha":835,"x_min":128,"x_max":706,"o":"m 621 415 q 607 563 621 518 q 553 624 593 608 q 426 639 514 639 q 281 606 328 639 q 224 519 235 574 q 213 367 213 465 l 213 0 l 128 0 l 128 1032 l 213 1032 l 213 611 l 219 611 q 294 690 240 660 q 456 719 347 719 q 616 692 563 719 q 688 606 669 664 q 706 444 706 549 l 706 0 l 621 0 l 621 415 z "},"ħ":{"ha":835,"x_min":35,"x_max":706,"o":"m 456 719 q 616 692 563 719 q 688 606 669 664 q 706 444 706 549 l 706 0 l 621 0 l 621 415 q 607 563 621 518 q 553 624 593 608 q 426 639 514 639 q 281 606 328 639 q 224 519 235 574 q 213 367 213 465 l 213 0 l 128 0 l 128 879 l 35 879 l 35 956 l 128 956 l 128 1032 l 213 1032 l 213 956 l 411 956 l 411 879 l 213 879 l 213 611 l 219 611 q 294 690 240 660 q 456 719 347 719 z "},"ĥ":{"ha":835,"x_min":-21,"x_max":706,"o":"m 621 415 q 607 563 621 518 q 553 624 593 608 q 426 639 514 639 q 281 606 328 639 q 224 519 235 574 q 213 367 213 465 l 213 0 l 128 0 l 128 1032 l 213 1032 l 213 611 l 219 611 q 294 690 240 660 q 456 719 347 719 q 616 692 563 719 q 688 606 669 664 q 706 444 706 549 l 706 0 l 621 0 l 621 415 m -21 1085 l -21 1093 l 124 1279 l 218 1279 l 363 1093 l 363 1085 l 303 1085 l 171 1225 l 39 1085 l -21 1085 z "},"ḥ":{"ha":835,"x_min":128,"x_max":706,"o":"m 621 415 q 607 563 621 518 q 553 624 593 608 q 426 639 514 639 q 281 606 328 639 q 224 519 235 574 q 213 367 213 465 l 213 0 l 128 0 l 128 1032 l 213 1032 l 213 611 l 219 611 q 294 690 240 660 q 456 719 347 719 q 616 692 563 719 q 688 606 669 664 q 706 444 706 549 l 706 0 l 621 0 l 621 415 m 365 -207 l 365 -86 l 468 -86 l 468 -207 l 365 -207 z "},"i":{"ha":342,"x_min":124,"x_max":218,"o":"m 124 922 l 124 1032 l 218 1032 l 218 922 l 124 922 m 128 0 l 128 708 l 213 708 l 213 0 l 128 0 z "},"ı":{"ha":342,"x_min":128,"x_max":213,"o":"m 128 0 l 128 708 l 213 708 l 213 0 l 128 0 z "},"í":{"ha":342,"x_min":125,"x_max":365,"o":"m 128 0 l 128 708 l 213 708 l 213 0 l 128 0 m 125 838 l 125 844 l 268 1032 l 365 1032 l 365 1025 l 189 838 l 125 838 z "},"ĭ":{"ha":342,"x_min":-15,"x_max":356,"o":"m 128 0 l 128 708 l 213 708 l 213 0 l 128 0 m 356 1032 q 345 922 356 961 q 294 858 335 882 q 169 833 254 833 q 44 858 85 833 q -6 922 4 882 q -15 1032 -15 961 l 44 1032 q 51 950 44 976 q 83 908 57 924 q 169 893 110 893 q 256 908 229 893 q 290 951 283 924 q 296 1032 296 978 l 356 1032 z "},"ǐ":{"ha":342,"x_min":-21,"x_max":363,"o":"m 128 0 l 128 708 l 213 708 l 213 0 l 128 0 m 124 838 l -21 1024 l -21 1032 l 39 1032 l 171 892 l 303 1032 l 363 1032 l 363 1024 l 218 838 l 124 838 z "},"î":{"ha":342,"x_min":-21,"x_max":363,"o":"m 128 0 l 128 708 l 213 708 l 213 0 l 128 0 m -21 838 l -21 846 l 124 1032 l 218 1032 l 363 846 l 363 838 l 303 838 l 171 978 l 39 838 l -21 838 z "},"ȉ":{"ha":342,"x_min":-146,"x_max":350,"o":"m 128 0 l 128 708 l 213 708 l 213 0 l 128 0 m 83 842 l 25 842 l -146 1021 l -146 1028 l -57 1028 l 83 849 l 83 842 m 350 842 l 293 842 l 122 1021 l 122 1028 l 210 1028 l 350 849 l 350 842 z "},"ï":{"ha":342,"x_min":0,"x_max":343,"o":"m 128 0 l 128 708 l 213 708 l 213 0 l 128 0 m 0 913 l 0 1015 l 86 1015 l 86 913 l 0 913 m 257 913 l 257 1015 l 343 1015 l 343 913 l 257 913 z "},"ị":{"ha":342,"x_min":89,"x_max":218,"o":"m 124 922 l 124 1032 l 218 1032 l 218 922 l 124 922 m 128 0 l 128 708 l 213 708 l 213 0 l 128 0 m 89 -207 l 89 -86 l 192 -86 l 192 -207 l 89 -207 z "},"ì":{"ha":342,"x_min":-24,"x_max":217,"o":"m 128 0 l 128 708 l 213 708 l 213 0 l 128 0 m 153 838 l -24 1025 l -24 1032 l 74 1032 l 217 844 l 217 838 l 153 838 z "},"ỉ":{"ha":342,"x_min":3,"x_max":339,"o":"m 128 0 l 128 708 l 213 708 l 213 0 l 128 0 m 104 857 q 116 906 104 892 q 164 929 128 919 l 197 939 q 261 962 247 951 q 275 999 275 972 q 264 1037 275 1025 q 230 1051 253 1049 q 157 1054 207 1054 q 3 1047 93 1054 l 3 1099 q 160 1108 65 1108 q 265 1101 228 1108 q 320 1073 301 1094 q 339 1007 339 1051 q 323 940 339 961 q 256 906 307 919 l 218 894 q 176 881 188 886 q 161 869 164 876 q 158 843 158 861 l 104 843 l 104 857 z "},"ȋ":{"ha":342,"x_min":-15,"x_max":356,"o":"m 128 0 l 128 708 l 213 708 l 213 0 l 128 0 m -15 842 q -5 952 -15 913 q 46 1016 6 992 q 171 1040 86 1040 q 296 1016 256 1040 q 346 952 336 992 q 356 842 356 913 l 296 842 q 290 924 296 897 q 257 965 283 950 q 171 981 231 981 q 84 965 111 981 q 51 923 57 950 q 44 842 44 896 l -15 842 z "},"ĳ":{"ha":683,"x_min":124,"x_max":560,"o":"m 124 922 l 124 1032 l 218 1032 l 218 922 l 124 922 m 128 0 l 128 708 l 213 708 l 213 0 l 128 0 m 465 922 l 465 1032 l 560 1032 l 560 922 l 465 922 m 333 -206 q 424 -199 396 -206 q 461 -176 453 -192 q 469 -128 469 -161 l 469 708 l 554 708 l 554 -107 q 533 -222 554 -186 q 467 -267 511 -257 q 333 -278 424 -278 l 333 -206 z "},"ī":{"ha":342,"x_min":7,"x_max":333,"o":"m 128 0 l 128 708 l 213 708 l 213 0 l 128 0 m 7 946 l 7 1031 l 333 1031 l 333 946 l 7 946 z "},"į":{"ha":342,"x_min":50,"x_max":214,"o":"m 128 1015 l 214 1015 l 214 913 l 128 913 l 128 1015 m 125 -150 q 140 -192 125 -176 q 190 -208 156 -208 q 214 -207 204 -208 l 214 -269 q 171 -272 194 -272 q 50 -169 50 -272 q 74 -83 50 -128 q 135 0 97 -37 l 128 0 l 128 708 l 213 708 l 213 0 q 153 -69 182 -25 q 125 -150 125 -114 z "},"ĩ":{"ha":342,"x_min":-75,"x_max":415,"o":"m 128 0 l 128 708 l 213 708 l 213 0 l 128 0 m 415 1032 q 397 916 415 949 q 319 883 379 883 q 247 892 282 883 q 154 919 211 901 q 116 931 144 922 q 65 943 88 939 q 24 947 42 947 q -14 931 -6 947 q -22 868 -22 914 l -75 868 q -68 956 -75 925 q -41 1001 -61 986 q 19 1017 -21 1017 q 90 1008 56 1017 q 186 982 125 1000 q 260 960 232 967 q 317 953 289 953 q 354 969 346 953 q 363 1032 363 986 l 415 1032 z "},"j":{"ha":342,"x_min":-8,"x_max":218,"o":"m 124 922 l 124 1032 l 218 1032 l 218 922 l 124 922 m -8 -206 q 83 -199 54 -206 q 119 -176 111 -192 q 128 -128 128 -161 l 128 708 l 213 708 l 213 -107 q 191 -222 213 -186 q 126 -267 169 -257 q -8 -278 82 -278 l -8 -206 z "},"ȷ":{"ha":342,"x_min":-8,"x_max":213,"o":"m -8 -206 q 83 -199 54 -206 q 119 -176 111 -192 q 128 -128 128 -161 l 128 708 l 213 708 l 213 -107 q 191 -222 213 -186 q 126 -267 169 -257 q -8 -278 82 -278 l -8 -206 z "},"ĵ":{"ha":342,"x_min":-21,"x_max":363,"o":"m -8 -206 q 83 -199 54 -206 q 119 -176 111 -192 q 128 -128 128 -161 l 128 708 l 213 708 l 213 -107 q 191 -222 213 -186 q 126 -267 169 -257 q -8 -278 82 -278 l -8 -206 m -21 838 l -21 846 l 124 1032 l 218 1032 l 363 846 l 363 838 l 303 838 l 171 978 l 39 838 l -21 838 z "},"k":{"ha":735,"x_min":128,"x_max":688,"o":"m 585 0 l 315 319 l 213 319 l 213 0 l 128 0 l 128 1032 l 213 1032 l 213 399 l 315 399 l 585 708 l 683 708 l 383 365 l 688 0 l 585 0 z "},"ķ":{"ha":735,"x_min":128,"x_max":688,"o":"m 585 0 l 315 319 l 213 319 l 213 0 l 128 0 l 128 1032 l 213 1032 l 213 399 l 315 399 l 585 708 l 683 708 l 383 365 l 688 0 l 585 0 m 300 -303 q 363 -288 349 -303 q 376 -226 376 -274 l 376 -203 l 335 -203 l 335 -86 l 435 -86 l 435 -194 q 424 -290 435 -258 q 386 -335 414 -322 q 300 -347 358 -347 l 300 -303 z "},"ĸ":{"ha":735,"x_min":128,"x_max":688,"o":"m 585 0 l 315 319 l 213 319 l 213 0 l 128 0 l 128 708 l 213 708 l 213 399 l 315 399 l 585 708 l 683 708 l 383 365 l 688 0 l 585 0 z "},"l":{"ha":342,"x_min":128,"x_max":213,"o":"m 128 0 l 128 1032 l 213 1032 l 213 0 l 128 0 z "},"ĺ":{"ha":342,"x_min":128,"x_max":372,"o":"m 128 0 l 128 1032 l 213 1032 l 213 0 l 128 0 m 132 1085 l 132 1092 l 275 1279 l 372 1279 l 372 1272 l 196 1085 l 132 1085 z "},"ľ":{"ha":346,"x_min":128,"x_max":385,"o":"m 128 0 l 128 1032 l 213 1032 l 213 0 l 128 0 m 282 621 l 300 843 l 300 956 l 385 956 l 385 843 l 339 621 l 282 621 z "},"ļ":{"ha":342,"x_min":103,"x_max":238,"o":"m 128 0 l 128 1032 l 213 1032 l 213 0 l 128 0 m 103 -303 q 165 -288 151 -303 q 179 -226 179 -274 l 179 -203 l 138 -203 l 138 -86 l 238 -86 l 238 -194 q 227 -290 238 -258 q 189 -335 217 -322 q 103 -347 161 -347 l 103 -303 z "},"ŀ":{"ha":364,"x_min":128,"x_max":406,"o":"m 128 0 l 128 1032 l 213 1032 l 213 0 l 128 0 m 303 356 l 303 476 l 406 476 l 406 356 l 303 356 z "},"ǉ":{"ha":683,"x_min":128,"x_max":560,"o":"m 128 0 l 128 1032 l 213 1032 l 213 0 l 128 0 m 465 922 l 465 1032 l 560 1032 l 560 922 l 465 922 m 333 -206 q 424 -199 396 -206 q 461 -176 453 -192 q 469 -128 469 -161 l 469 708 l 554 708 l 554 -107 q 533 -222 554 -186 q 467 -267 511 -257 q 333 -278 424 -278 l 333 -206 z "},"ł":{"ha":344,"x_min":43,"x_max":304,"o":"m 131 0 l 131 456 l 43 425 l 43 504 l 131 533 l 131 1032 l 215 1032 l 215 567 l 304 600 l 304 521 l 215 489 l 215 0 l 131 0 z "},"m":{"ha":1231,"x_min":128,"x_max":1103,"o":"m 1018 415 q 1006 563 1018 518 q 959 624 993 608 q 847 639 925 639 q 718 608 758 639 q 668 524 678 578 q 658 367 658 471 l 658 0 l 574 0 l 574 415 q 561 563 574 518 q 515 624 549 608 q 403 639 481 639 q 274 606 315 639 q 223 519 233 574 q 213 367 213 465 l 213 0 l 128 0 l 128 708 l 203 708 l 207 601 l 214 601 q 283 688 233 657 q 433 719 333 719 q 578 692 531 719 q 644 601 626 664 l 653 601 q 724 688 672 657 q 876 719 776 719 q 1021 692 972 719 q 1086 606 1069 664 q 1103 444 1103 549 l 1103 0 l 1018 0 l 1018 415 z "},"n":{"ha":835,"x_min":128,"x_max":706,"o":"m 621 415 q 607 563 621 518 q 553 624 593 608 q 426 639 514 639 q 281 606 328 639 q 224 519 235 574 q 213 367 213 465 l 213 0 l 128 0 l 128 708 l 203 708 l 207 601 l 214 601 q 291 688 236 657 q 457 719 346 719 q 616 692 563 719 q 688 606 669 664 q 706 444 706 549 l 706 0 l 621 0 l 621 415 z "},"ń":{"ha":835,"x_min":128,"x_max":706,"o":"m 621 415 q 607 563 621 518 q 553 624 593 608 q 426 639 514 639 q 281 606 328 639 q 224 519 235 574 q 213 367 213 465 l 213 0 l 128 0 l 128 708 l 203 708 l 207 601 l 214 601 q 291 688 236 657 q 457 719 346 719 q 616 692 563 719 q 688 606 669 664 q 706 444 706 549 l 706 0 l 621 0 l 621 415 m 378 838 l 378 844 l 521 1032 l 618 1032 l 618 1025 l 442 838 l 378 838 z "},"ŉ":{"ha":872,"x_min":8,"x_max":743,"o":"m 8 817 q 71 834 57 817 q 85 904 85 851 l 85 928 l 43 928 l 43 1032 l 143 1032 l 143 936 q 133 834 143 868 q 94 787 122 800 q 8 774 67 774 l 8 817 m 658 415 q 644 563 658 518 q 591 624 631 608 q 464 639 551 639 q 319 606 365 639 q 261 519 272 574 q 250 367 250 465 l 250 0 l 165 0 l 165 708 l 240 708 l 244 601 l 251 601 q 328 688 274 657 q 494 719 383 719 q 653 692 600 719 q 725 606 707 664 q 743 444 743 549 l 743 0 l 658 0 l 658 415 z "},"ň":{"ha":835,"x_min":128,"x_max":706,"o":"m 621 415 q 607 563 621 518 q 553 624 593 608 q 426 639 514 639 q 281 606 328 639 q 224 519 235 574 q 213 367 213 465 l 213 0 l 128 0 l 128 708 l 203 708 l 207 601 l 214 601 q 291 688 236 657 q 457 719 346 719 q 616 692 563 719 q 688 606 669 664 q 706 444 706 549 l 706 0 l 621 0 l 621 415 m 369 838 l 225 1024 l 225 1032 l 285 1032 l 417 892 l 549 1032 l 608 1032 l 608 1024 l 464 838 l 369 838 z "},"ņ":{"ha":835,"x_min":128,"x_max":706,"o":"m 621 415 q 607 563 621 518 q 553 624 593 608 q 426 639 514 639 q 281 606 328 639 q 224 519 235 574 q 213 367 213 465 l 213 0 l 128 0 l 128 708 l 203 708 l 207 601 l 214 601 q 291 688 236 657 q 457 719 346 719 q 616 692 563 719 q 688 606 669 664 q 706 444 706 549 l 706 0 l 621 0 l 621 415 m 349 -303 q 411 -288 397 -303 q 425 -226 425 -274 l 425 -203 l 383 -203 l 383 -86 l 483 -86 l 483 -194 q 473 -290 483 -258 q 435 -335 463 -322 q 349 -347 407 -347 l 349 -303 z "},"ṅ":{"ha":835,"x_min":128,"x_max":706,"o":"m 621 415 q 607 563 621 518 q 553 624 593 608 q 426 639 514 639 q 281 606 328 639 q 224 519 235 574 q 213 367 213 465 l 213 0 l 128 0 l 128 708 l 203 708 l 207 601 l 214 601 q 291 688 236 657 q 457 719 346 719 q 616 692 563 719 q 688 606 669 664 q 706 444 706 549 l 706 0 l 621 0 l 621 415 m 374 913 l 374 1015 l 460 1015 l 460 913 l 374 913 z "},"ŋ":{"ha":835,"x_min":128,"x_max":706,"o":"m 457 719 q 616 692 563 719 q 688 606 669 664 q 706 444 706 549 l 706 -107 q 684 -222 706 -186 q 619 -267 663 -257 q 485 -278 575 -278 l 485 -206 q 576 -199 547 -206 q 613 -176 604 -192 q 621 -128 621 -161 l 621 415 q 607 563 621 518 q 553 624 593 608 q 426 639 514 639 q 281 606 328 639 q 224 519 235 574 q 213 367 213 465 l 213 0 l 128 0 l 128 708 l 203 708 l 207 601 l 214 601 q 291 688 236 657 q 457 719 346 719 z "},"ɲ":{"ha":835,"x_min":-8,"x_max":706,"o":"m -8 -206 q 83 -199 54 -206 q 119 -176 111 -192 q 128 -128 128 -161 l 128 708 l 203 708 l 207 601 l 214 601 q 291 688 236 657 q 457 719 346 719 q 616 692 563 719 q 688 606 669 664 q 706 444 706 549 l 706 0 l 621 0 l 621 415 q 607 563 621 518 q 553 624 593 608 q 426 639 514 639 q 281 606 328 639 q 224 519 235 574 q 213 367 213 465 l 213 -107 q 191 -222 213 -186 q 126 -267 169 -257 q -8 -278 82 -278 l -8 -206 z "},"ǌ":{"ha":1176,"x_min":128,"x_max":1053,"o":"m 621 415 q 607 563 621 518 q 553 624 593 608 q 426 639 514 639 q 281 606 328 639 q 224 519 235 574 q 213 367 213 465 l 213 0 l 128 0 l 128 708 l 203 708 l 207 601 l 214 601 q 291 688 236 657 q 457 719 346 719 q 616 692 563 719 q 688 606 669 664 q 706 444 706 549 l 706 0 l 621 0 l 621 415 m 958 922 l 958 1032 l 1053 1032 l 1053 922 l 958 922 m 826 -206 q 917 -199 889 -206 q 954 -176 946 -192 q 963 -128 963 -161 l 963 708 l 1047 708 l 1047 -107 q 1026 -222 1047 -186 q 960 -267 1004 -257 q 826 -278 917 -278 l 826 -206 z "},"ñ":{"ha":835,"x_min":128,"x_max":706,"o":"m 621 415 q 607 563 621 518 q 553 624 593 608 q 426 639 514 639 q 281 606 328 639 q 224 519 235 574 q 213 367 213 465 l 213 0 l 128 0 l 128 708 l 203 708 l 207 601 l 214 601 q 291 688 236 657 q 457 719 346 719 q 616 692 563 719 q 688 606 669 664 q 706 444 706 549 l 706 0 l 621 0 l 621 415 m 663 1032 q 644 916 663 949 q 567 883 626 883 q 494 892 529 883 q 401 919 458 901 q 363 931 392 922 q 312 943 335 939 q 271 947 289 947 q 233 931 242 947 q 225 868 225 914 l 172 868 q 179 956 172 925 q 206 1001 186 986 q 267 1017 226 1017 q 338 1008 303 1017 q 433 982 372 1000 q 508 960 479 967 q 564 953 536 953 q 601 969 593 953 q 610 1032 610 986 l 663 1032 z "},"o":{"ha":803,"x_min":96,"x_max":707,"o":"m 401 -11 q 193 18 256 -11 q 113 119 131 47 q 96 354 96 190 q 113 590 96 518 q 193 690 131 661 q 401 719 256 719 q 610 690 547 719 q 690 590 672 661 q 707 354 707 518 q 690 119 707 190 q 610 18 672 47 q 401 -11 547 -11 m 401 67 q 558 87 514 67 q 611 160 601 107 q 621 354 621 213 q 611 548 621 496 q 558 621 601 600 q 401 642 514 642 q 245 621 289 642 q 191 548 201 600 q 181 354 181 496 q 191 160 181 213 q 245 87 201 107 q 401 67 289 67 z "},"ó":{"ha":803,"x_min":96,"x_max":707,"o":"m 401 -11 q 193 18 256 -11 q 113 119 131 47 q 96 354 96 190 q 113 590 96 518 q 193 690 131 661 q 401 719 256 719 q 610 690 547 719 q 690 590 672 661 q 707 354 707 518 q 690 119 707 190 q 610 18 672 47 q 401 -11 547 -11 m 401 67 q 558 87 514 67 q 611 160 601 107 q 621 354 621 213 q 611 548 621 496 q 558 621 601 600 q 401 642 514 642 q 245 621 289 642 q 191 548 201 600 q 181 354 181 496 q 191 160 181 213 q 245 87 201 107 q 401 67 289 67 m 354 838 l 354 844 l 497 1032 l 594 1032 l 594 1025 l 418 838 l 354 838 z "},"ŏ":{"ha":803,"x_min":96,"x_max":707,"o":"m 401 -11 q 193 18 256 -11 q 113 119 131 47 q 96 354 96 190 q 113 590 96 518 q 193 690 131 661 q 401 719 256 719 q 610 690 547 719 q 690 590 672 661 q 707 354 707 518 q 690 119 707 190 q 610 18 672 47 q 401 -11 547 -11 m 401 67 q 558 87 514 67 q 611 160 601 107 q 621 354 621 213 q 611 548 621 496 q 558 621 601 600 q 401 642 514 642 q 245 621 289 642 q 191 548 201 600 q 181 354 181 496 q 191 160 181 213 q 245 87 201 107 q 401 67 289 67 m 586 1032 q 576 922 586 961 q 525 858 565 882 q 400 833 485 833 q 275 858 315 833 q 225 922 235 882 q 215 1032 215 961 l 275 1032 q 281 950 275 976 q 314 908 288 924 q 400 893 340 893 q 487 908 460 893 q 520 951 514 924 q 526 1032 526 978 l 586 1032 z "},"ǒ":{"ha":803,"x_min":96,"x_max":707,"o":"m 401 -11 q 193 18 256 -11 q 113 119 131 47 q 96 354 96 190 q 113 590 96 518 q 193 690 131 661 q 401 719 256 719 q 610 690 547 719 q 690 590 672 661 q 707 354 707 518 q 690 119 707 190 q 610 18 672 47 q 401 -11 547 -11 m 401 67 q 558 87 514 67 q 611 160 601 107 q 621 354 621 213 q 611 548 621 496 q 558 621 601 600 q 401 642 514 642 q 245 621 289 642 q 191 548 201 600 q 181 354 181 496 q 191 160 181 213 q 245 87 201 107 q 401 67 289 67 m 354 838 l 210 1024 l 210 1032 l 269 1032 l 401 892 l 533 1032 l 593 1032 l 593 1024 l 449 838 l 354 838 z "},"ô":{"ha":803,"x_min":96,"x_max":707,"o":"m 401 -11 q 193 18 256 -11 q 113 119 131 47 q 96 354 96 190 q 113 590 96 518 q 193 690 131 661 q 401 719 256 719 q 610 690 547 719 q 690 590 672 661 q 707 354 707 518 q 690 119 707 190 q 610 18 672 47 q 401 -11 547 -11 m 401 67 q 558 87 514 67 q 611 160 601 107 q 621 354 621 213 q 611 548 621 496 q 558 621 601 600 q 401 642 514 642 q 245 621 289 642 q 191 548 201 600 q 181 354 181 496 q 191 160 181 213 q 245 87 201 107 q 401 67 289 67 m 210 838 l 210 846 l 354 1032 l 449 1032 l 593 846 l 593 838 l 533 838 l 401 978 l 269 838 l 210 838 z "},"ố":{"ha":803,"x_min":96,"x_max":722,"o":"m 401 -11 q 193 18 256 -11 q 113 119 131 47 q 96 354 96 190 q 113 590 96 518 q 193 690 131 661 q 401 719 256 719 q 610 690 547 719 q 690 590 672 661 q 707 354 707 518 q 690 119 707 190 q 610 18 672 47 q 401 -11 547 -11 m 401 67 q 558 87 514 67 q 611 160 601 107 q 621 354 621 213 q 611 548 621 496 q 558 621 601 600 q 401 642 514 642 q 245 621 289 642 q 191 548 201 600 q 181 354 181 496 q 191 160 181 213 q 245 87 201 107 q 401 67 289 67 m 204 838 l 204 846 l 349 1032 l 443 1032 l 588 846 l 588 838 l 528 838 l 396 978 l 264 838 l 204 838 m 482 1046 l 482 1053 l 625 1240 l 722 1240 l 722 1233 l 546 1046 l 482 1046 z "},"ộ":{"ha":803,"x_min":96,"x_max":707,"o":"m 401 -11 q 193 18 256 -11 q 113 119 131 47 q 96 354 96 190 q 113 590 96 518 q 193 690 131 661 q 401 719 256 719 q 610 690 547 719 q 690 590 672 661 q 707 354 707 518 q 690 119 707 190 q 610 18 672 47 q 401 -11 547 -11 m 401 67 q 558 87 514 67 q 611 160 601 107 q 621 354 621 213 q 611 548 621 496 q 558 621 601 600 q 401 642 514 642 q 245 621 289 642 q 191 548 201 600 q 181 354 181 496 q 191 160 181 213 q 245 87 201 107 q 401 67 289 67 m 350 -207 l 350 -86 l 453 -86 l 453 -207 l 350 -207 m 210 838 l 210 846 l 354 1032 l 449 1032 l 593 846 l 593 838 l 533 838 l 401 978 l 269 838 l 210 838 z "},"ồ":{"ha":803,"x_min":96,"x_max":707,"o":"m 401 -11 q 193 18 256 -11 q 113 119 131 47 q 96 354 96 190 q 113 590 96 518 q 193 690 131 661 q 401 719 256 719 q 610 690 547 719 q 690 590 672 661 q 707 354 707 518 q 690 119 707 190 q 610 18 672 47 q 401 -11 547 -11 m 401 67 q 558 87 514 67 q 611 160 601 107 q 621 354 621 213 q 611 548 621 496 q 558 621 601 600 q 401 642 514 642 q 245 621 289 642 q 191 548 201 600 q 181 354 181 496 q 191 160 181 213 q 245 87 201 107 q 401 67 289 67 m 204 838 l 204 846 l 349 1032 l 443 1032 l 588 846 l 588 838 l 528 838 l 396 978 l 264 838 l 204 838 m 533 1046 l 357 1233 l 357 1240 l 454 1240 l 597 1053 l 597 1046 l 533 1046 z "},"ổ":{"ha":803,"x_min":96,"x_max":707,"o":"m 401 -11 q 193 18 256 -11 q 113 119 131 47 q 96 354 96 190 q 113 590 96 518 q 193 690 131 661 q 401 719 256 719 q 610 690 547 719 q 690 590 672 661 q 707 354 707 518 q 690 119 707 190 q 610 18 672 47 q 401 -11 547 -11 m 401 67 q 558 87 514 67 q 611 160 601 107 q 621 354 621 213 q 611 548 621 496 q 558 621 601 600 q 401 642 514 642 q 245 621 289 642 q 191 548 201 600 q 181 354 181 496 q 191 160 181 213 q 245 87 201 107 q 401 67 289 67 m 210 838 l 210 846 l 354 1032 l 449 1032 l 593 846 l 593 838 l 533 838 l 401 978 l 269 838 l 210 838 m 460 1056 q 472 1104 460 1090 q 519 1128 483 1118 l 553 1138 q 617 1160 603 1150 q 631 1197 631 1171 q 619 1235 631 1224 q 585 1250 608 1247 q 513 1253 563 1253 q 358 1246 449 1253 l 358 1297 q 515 1307 421 1307 q 620 1300 583 1307 q 676 1272 657 1293 q 694 1206 694 1250 q 678 1139 694 1160 q 611 1104 663 1118 l 574 1093 q 531 1080 543 1085 q 517 1067 519 1075 q 514 1042 514 1060 l 460 1042 l 460 1056 z "},"ỗ":{"ha":803,"x_min":96,"x_max":707,"o":"m 401 -11 q 193 18 256 -11 q 113 119 131 47 q 96 354 96 190 q 113 590 96 518 q 193 690 131 661 q 401 719 256 719 q 610 690 547 719 q 690 590 672 661 q 707 354 707 518 q 690 119 707 190 q 610 18 672 47 q 401 -11 547 -11 m 401 67 q 558 87 514 67 q 611 160 601 107 q 621 354 621 213 q 611 548 621 496 q 558 621 601 600 q 401 642 514 642 q 245 621 289 642 q 191 548 201 600 q 181 354 181 496 q 191 160 181 213 q 245 87 201 107 q 401 67 289 67 m 207 838 l 207 846 l 351 1032 l 446 1032 l 590 846 l 590 838 l 531 838 l 399 978 l 267 838 l 207 838 m 646 1272 q 628 1156 646 1189 q 550 1124 610 1124 q 477 1133 513 1124 q 385 1160 442 1142 q 347 1171 375 1163 q 295 1183 318 1179 q 254 1188 272 1188 q 217 1171 225 1188 q 208 1108 208 1154 l 156 1108 q 163 1196 156 1165 q 190 1242 169 1226 q 250 1257 210 1257 q 321 1249 286 1257 q 417 1222 356 1240 q 491 1200 463 1207 q 547 1193 519 1193 q 585 1210 576 1193 q 593 1272 593 1226 l 646 1272 z "},"ȍ":{"ha":803,"x_min":85,"x_max":707,"o":"m 401 -11 q 193 18 256 -11 q 113 119 131 47 q 96 354 96 190 q 113 590 96 518 q 193 690 131 661 q 401 719 256 719 q 610 690 547 719 q 690 590 672 661 q 707 354 707 518 q 690 119 707 190 q 610 18 672 47 q 401 -11 547 -11 m 401 67 q 558 87 514 67 q 611 160 601 107 q 621 354 621 213 q 611 548 621 496 q 558 621 601 600 q 401 642 514 642 q 245 621 289 642 q 191 548 201 600 q 181 354 181 496 q 191 160 181 213 q 245 87 201 107 q 401 67 289 67 m 314 842 l 256 842 l 85 1021 l 85 1028 l 174 1028 l 314 849 l 314 842 m 581 842 l 524 842 l 353 1021 l 353 1028 l 440 1028 l 581 849 l 581 842 z "},"ö":{"ha":803,"x_min":96,"x_max":707,"o":"m 401 -11 q 193 18 256 -11 q 113 119 131 47 q 96 354 96 190 q 113 590 96 518 q 193 690 131 661 q 401 719 256 719 q 610 690 547 719 q 690 590 672 661 q 707 354 707 518 q 690 119 707 190 q 610 18 672 47 q 401 -11 547 -11 m 401 67 q 558 87 514 67 q 611 160 601 107 q 621 354 621 213 q 611 548 621 496 q 558 621 601 600 q 401 642 514 642 q 245 621 289 642 q 191 548 201 600 q 181 354 181 496 q 191 160 181 213 q 245 87 201 107 q 401 67 289 67 m 229 913 l 229 1015 l 315 1015 l 315 913 l 229 913 m 486 913 l 486 1015 l 572 1015 l 572 913 l 486 913 z "},"ọ":{"ha":803,"x_min":96,"x_max":707,"o":"m 401 -11 q 193 18 256 -11 q 113 119 131 47 q 96 354 96 190 q 113 590 96 518 q 193 690 131 661 q 401 719 256 719 q 610 690 547 719 q 690 590 672 661 q 707 354 707 518 q 690 119 707 190 q 610 18 672 47 q 401 -11 547 -11 m 401 67 q 558 87 514 67 q 611 160 601 107 q 621 354 621 213 q 611 548 621 496 q 558 621 601 600 q 401 642 514 642 q 245 621 289 642 q 191 548 201 600 q 181 354 181 496 q 191 160 181 213 q 245 87 201 107 q 401 67 289 67 m 350 -207 l 350 -86 l 453 -86 l 453 -207 l 350 -207 z "},"ò":{"ha":803,"x_min":96,"x_max":707,"o":"m 401 -11 q 193 18 256 -11 q 113 119 131 47 q 96 354 96 190 q 113 590 96 518 q 193 690 131 661 q 401 719 256 719 q 610 690 547 719 q 690 590 672 661 q 707 354 707 518 q 690 119 707 190 q 610 18 672 47 q 401 -11 547 -11 m 401 67 q 558 87 514 67 q 611 160 601 107 q 621 354 621 213 q 611 548 621 496 q 558 621 601 600 q 401 642 514 642 q 245 621 289 642 q 191 548 201 600 q 181 354 181 496 q 191 160 181 213 q 245 87 201 107 q 401 67 289 67 m 394 838 l 218 1025 l 218 1032 l 315 1032 l 458 844 l 458 838 l 394 838 z "},"ỏ":{"ha":803,"x_min":96,"x_max":707,"o":"m 401 -11 q 193 18 256 -11 q 113 119 131 47 q 96 354 96 190 q 113 590 96 518 q 193 690 131 661 q 401 719 256 719 q 610 690 547 719 q 690 590 672 661 q 707 354 707 518 q 690 119 707 190 q 610 18 672 47 q 401 -11 547 -11 m 401 67 q 558 87 514 67 q 611 160 601 107 q 621 354 621 213 q 611 548 621 496 q 558 621 601 600 q 401 642 514 642 q 245 621 289 642 q 191 548 201 600 q 181 354 181 496 q 191 160 181 213 q 245 87 201 107 q 401 67 289 67 m 335 857 q 347 906 335 892 q 394 929 358 919 l 428 939 q 492 962 478 951 q 506 999 506 972 q 494 1037 506 1025 q 460 1051 483 1049 q 388 1054 438 1054 q 233 1047 324 1054 l 233 1099 q 390 1108 296 1108 q 495 1101 458 1108 q 551 1073 532 1094 q 569 1007 569 1051 q 553 940 569 961 q 486 906 538 919 l 449 894 q 406 881 418 886 q 392 869 394 876 q 389 843 389 861 l 335 843 l 335 857 z "},"ơ":{"ha":803,"x_min":96,"x_max":772,"o":"m 772 842 l 772 806 q 763 719 772 749 q 727 676 753 689 q 651 660 701 663 q 697 555 686 622 q 707 354 707 488 q 690 119 707 190 q 610 18 672 47 q 401 -11 547 -11 q 193 18 256 -11 q 113 119 131 47 q 96 354 96 190 q 113 590 96 518 q 193 690 131 661 q 401 719 256 719 q 551 708 500 719 l 632 708 q 681 716 665 708 q 701 741 696 724 q 706 796 706 758 l 706 842 l 772 842 m 401 67 q 558 87 514 67 q 611 160 601 107 q 621 354 621 213 q 611 548 621 496 q 558 621 601 600 q 401 642 514 642 q 245 621 289 642 q 191 548 201 600 q 181 354 181 496 q 191 160 181 213 q 245 87 201 107 q 401 67 289 67 z "},"ớ":{"ha":803,"x_min":96,"x_max":772,"o":"m 772 842 l 772 806 q 763 719 772 749 q 727 676 753 689 q 651 660 701 663 q 697 555 686 622 q 707 354 707 488 q 690 119 707 190 q 610 18 672 47 q 401 -11 547 -11 q 193 18 256 -11 q 113 119 131 47 q 96 354 96 190 q 113 590 96 518 q 193 690 131 661 q 401 719 256 719 q 551 708 500 719 l 632 708 q 681 716 665 708 q 701 741 696 724 q 706 796 706 758 l 706 842 l 772 842 m 401 67 q 558 87 514 67 q 611 160 601 107 q 621 354 621 213 q 611 548 621 496 q 558 621 601 600 q 401 642 514 642 q 245 621 289 642 q 191 548 201 600 q 181 354 181 496 q 191 160 181 213 q 245 87 201 107 q 401 67 289 67 m 363 838 l 363 844 l 506 1032 l 603 1032 l 603 1025 l 426 838 l 363 838 z "},"ợ":{"ha":803,"x_min":96,"x_max":772,"o":"m 772 842 l 772 806 q 763 719 772 749 q 727 676 753 689 q 651 660 701 663 q 697 555 686 622 q 707 354 707 488 q 690 119 707 190 q 610 18 672 47 q 401 -11 547 -11 q 193 18 256 -11 q 113 119 131 47 q 96 354 96 190 q 113 590 96 518 q 193 690 131 661 q 401 719 256 719 q 551 708 500 719 l 632 708 q 681 716 665 708 q 701 741 696 724 q 706 796 706 758 l 706 842 l 772 842 m 401 67 q 558 87 514 67 q 611 160 601 107 q 621 354 621 213 q 611 548 621 496 q 558 621 601 600 q 401 642 514 642 q 245 621 289 642 q 191 548 201 600 q 181 354 181 496 q 191 160 181 213 q 245 87 201 107 q 401 67 289 67 m 350 -207 l 350 -86 l 453 -86 l 453 -207 l 350 -207 z "},"ờ":{"ha":803,"x_min":96,"x_max":772,"o":"m 772 842 l 772 806 q 763 719 772 749 q 727 676 753 689 q 651 660 701 663 q 697 555 686 622 q 707 354 707 488 q 690 119 707 190 q 610 18 672 47 q 401 -11 547 -11 q 193 18 256 -11 q 113 119 131 47 q 96 354 96 190 q 113 590 96 518 q 193 690 131 661 q 401 719 256 719 q 551 708 500 719 l 632 708 q 681 716 665 708 q 701 741 696 724 q 706 796 706 758 l 706 842 l 772 842 m 401 67 q 558 87 514 67 q 611 160 601 107 q 621 354 621 213 q 611 548 621 496 q 558 621 601 600 q 401 642 514 642 q 245 621 289 642 q 191 548 201 600 q 181 354 181 496 q 191 160 181 213 q 245 87 201 107 q 401 67 289 67 m 386 838 l 210 1025 l 210 1032 l 307 1032 l 450 844 l 450 838 l 386 838 z "},"ở":{"ha":803,"x_min":96,"x_max":772,"o":"m 772 842 l 772 806 q 763 719 772 749 q 727 676 753 689 q 651 660 701 663 q 697 555 686 622 q 707 354 707 488 q 690 119 707 190 q 610 18 672 47 q 401 -11 547 -11 q 193 18 256 -11 q 113 119 131 47 q 96 354 96 190 q 113 590 96 518 q 193 690 131 661 q 401 719 256 719 q 551 708 500 719 l 632 708 q 681 716 665 708 q 701 741 696 724 q 706 796 706 758 l 706 842 l 772 842 m 401 67 q 558 87 514 67 q 611 160 601 107 q 621 354 621 213 q 611 548 621 496 q 558 621 601 600 q 401 642 514 642 q 245 621 289 642 q 191 548 201 600 q 181 354 181 496 q 191 160 181 213 q 245 87 201 107 q 401 67 289 67 m 335 857 q 347 906 335 892 q 394 929 358 919 l 428 939 q 492 962 478 951 q 506 999 506 972 q 494 1037 506 1025 q 460 1051 483 1049 q 388 1054 438 1054 q 233 1047 324 1054 l 233 1099 q 390 1108 296 1108 q 495 1101 458 1108 q 551 1073 532 1094 q 569 1007 569 1051 q 553 940 569 961 q 486 906 538 919 l 449 894 q 406 881 418 886 q 392 869 394 876 q 389 843 389 861 l 335 843 l 335 857 z "},"ỡ":{"ha":803,"x_min":96,"x_max":772,"o":"m 772 842 l 772 806 q 763 719 772 749 q 727 676 753 689 q 651 660 701 663 q 697 555 686 622 q 707 354 707 488 q 690 119 707 190 q 610 18 672 47 q 401 -11 547 -11 q 193 18 256 -11 q 113 119 131 47 q 96 354 96 190 q 113 590 96 518 q 193 690 131 661 q 401 719 256 719 q 551 708 500 719 l 632 708 q 681 716 665 708 q 701 741 696 724 q 706 796 706 758 l 706 842 l 772 842 m 401 67 q 558 87 514 67 q 611 160 601 107 q 621 354 621 213 q 611 548 621 496 q 558 621 601 600 q 401 642 514 642 q 245 621 289 642 q 191 548 201 600 q 181 354 181 496 q 191 160 181 213 q 245 87 201 107 q 401 67 289 67 m 646 1032 q 628 916 646 949 q 550 883 610 883 q 477 892 513 883 q 385 919 442 901 q 347 931 375 922 q 295 943 318 939 q 254 947 272 947 q 217 931 225 947 q 208 868 208 914 l 156 868 q 163 956 156 925 q 190 1001 169 986 q 250 1017 210 1017 q 321 1008 286 1017 q 417 982 356 1000 q 491 960 463 967 q 547 953 519 953 q 585 969 576 953 q 593 1032 593 986 l 646 1032 z "},"ő":{"ha":803,"x_min":96,"x_max":742,"o":"m 401 -11 q 193 18 256 -11 q 113 119 131 47 q 96 354 96 190 q 113 590 96 518 q 193 690 131 661 q 401 719 256 719 q 610 690 547 719 q 690 590 672 661 q 707 354 707 518 q 690 119 707 190 q 610 18 672 47 q 401 -11 547 -11 m 401 67 q 558 87 514 67 q 611 160 601 107 q 621 354 621 213 q 611 548 621 496 q 558 621 601 600 q 401 642 514 642 q 245 621 289 642 q 191 548 201 600 q 181 354 181 496 q 191 160 181 213 q 245 87 201 107 q 401 67 289 67 m 246 842 l 246 849 l 386 1028 l 474 1028 l 474 1021 l 303 842 l 246 842 m 513 842 l 513 849 l 653 1028 l 742 1028 l 742 1021 l 571 842 l 513 842 z "},"ȏ":{"ha":803,"x_min":96,"x_max":707,"o":"m 401 -11 q 193 18 256 -11 q 113 119 131 47 q 96 354 96 190 q 113 590 96 518 q 193 690 131 661 q 401 719 256 719 q 610 690 547 719 q 690 590 672 661 q 707 354 707 518 q 690 119 707 190 q 610 18 672 47 q 401 -11 547 -11 m 401 67 q 558 87 514 67 q 611 160 601 107 q 621 354 621 213 q 611 548 621 496 q 558 621 601 600 q 401 642 514 642 q 245 621 289 642 q 191 548 201 600 q 181 354 181 496 q 191 160 181 213 q 245 87 201 107 q 401 67 289 67 m 215 842 q 226 952 215 913 q 276 1016 236 992 q 401 1040 317 1040 q 526 1016 486 1040 q 576 952 567 992 q 586 842 586 913 l 526 842 q 520 924 526 897 q 488 965 514 950 q 401 981 461 981 q 315 965 342 981 q 281 923 288 950 q 275 842 275 896 l 215 842 z "},"ō":{"ha":803,"x_min":96,"x_max":707,"o":"m 401 -11 q 193 18 256 -11 q 113 119 131 47 q 96 354 96 190 q 113 590 96 518 q 193 690 131 661 q 401 719 256 719 q 610 690 547 719 q 690 590 672 661 q 707 354 707 518 q 690 119 707 190 q 610 18 672 47 q 401 -11 547 -11 m 401 67 q 558 87 514 67 q 611 160 601 107 q 621 354 621 213 q 611 548 621 496 q 558 621 601 600 q 401 642 514 642 q 245 621 289 642 q 191 548 201 600 q 181 354 181 496 q 191 160 181 213 q 245 87 201 107 q 401 67 289 67 m 238 946 l 238 1031 l 564 1031 l 564 946 l 238 946 z "},"ǫ":{"ha":803,"x_min":96,"x_max":707,"o":"m 401 719 q 610 690 547 719 q 690 590 672 661 q 707 354 707 518 q 694 138 707 208 q 635 35 681 68 q 563 -50 596 6 q 529 -150 529 -106 q 593 -208 529 -208 q 618 -207 610 -208 l 618 -269 q 574 -272 601 -272 q 481 -244 510 -272 q 453 -169 453 -217 q 472 -86 453 -129 q 524 -4 490 -43 q 401 -11 482 -11 q 193 18 256 -11 q 113 119 131 47 q 96 354 96 190 q 113 590 96 518 q 193 690 131 661 q 401 719 256 719 m 401 67 q 558 87 514 67 q 611 160 601 107 q 621 354 621 213 q 611 548 621 496 q 558 621 601 600 q 401 642 514 642 q 245 621 289 642 q 191 548 201 600 q 181 354 181 496 q 191 160 181 213 q 245 87 201 107 q 401 67 289 67 z "},"ø":{"ha":803,"x_min":96,"x_max":707,"o":"m 636 674 q 694 570 681 640 q 707 354 707 500 q 690 119 707 190 q 610 18 672 47 q 401 -11 547 -11 q 222 7 285 -11 l 171 -76 l 97 -76 l 165 35 q 108 138 121 68 q 96 354 96 207 q 113 590 96 518 q 193 690 131 661 q 401 719 256 719 q 578 701 515 719 l 629 785 l 706 785 l 636 674 m 181 354 q 186 189 181 239 q 214 111 192 139 l 533 631 q 401 642 493 642 q 245 621 289 642 q 191 548 201 600 q 181 354 181 496 m 401 67 q 558 87 514 67 q 611 160 601 107 q 621 354 621 213 q 616 519 621 469 q 589 597 611 569 l 267 79 q 401 67 308 67 z "},"ǿ":{"ha":803,"x_min":96,"x_max":707,"o":"m 636 674 q 694 570 681 640 q 707 354 707 500 q 690 119 707 190 q 610 18 672 47 q 401 -11 547 -11 q 222 7 285 -11 l 171 -76 l 97 -76 l 165 35 q 108 138 121 68 q 96 354 96 207 q 113 590 96 518 q 193 690 131 661 q 401 719 256 719 q 578 701 515 719 l 629 785 l 706 785 l 636 674 m 181 354 q 186 189 181 239 q 214 111 192 139 l 533 631 q 401 642 493 642 q 245 621 289 642 q 191 548 201 600 q 181 354 181 496 m 401 67 q 558 87 514 67 q 611 160 601 107 q 621 354 621 213 q 616 519 621 469 q 589 597 611 569 l 267 79 q 401 67 308 67 m 363 838 l 363 844 l 506 1032 l 603 1032 l 603 1025 l 426 838 l 363 838 z "},"õ":{"ha":803,"x_min":96,"x_max":707,"o":"m 401 -11 q 193 18 256 -11 q 113 119 131 47 q 96 354 96 190 q 113 590 96 518 q 193 690 131 661 q 401 719 256 719 q 610 690 547 719 q 690 590 672 661 q 707 354 707 518 q 690 119 707 190 q 610 18 672 47 q 401 -11 547 -11 m 401 67 q 558 87 514 67 q 611 160 601 107 q 621 354 621 213 q 611 548 621 496 q 558 621 601 600 q 401 642 514 642 q 245 621 289 642 q 191 548 201 600 q 181 354 181 496 q 191 160 181 213 q 245 87 201 107 q 401 67 289 67 m 646 1032 q 628 916 646 949 q 550 883 610 883 q 477 892 513 883 q 385 919 442 901 q 347 931 375 922 q 295 943 318 939 q 254 947 272 947 q 217 931 225 947 q 208 868 208 914 l 156 868 q 163 956 156 925 q 190 1001 169 986 q 250 1017 210 1017 q 321 1008 286 1017 q 417 982 356 1000 q 491 960 463 967 q 547 953 519 953 q 585 969 576 953 q 593 1032 593 986 l 646 1032 z "},"œ":{"ha":1306,"x_min":96,"x_max":1208,"o":"m 1208 324 l 707 324 q 722 158 707 208 q 787 87 738 107 q 950 67 836 67 q 1068 72 1003 67 q 1181 83 1133 76 l 1181 8 q 1070 -6 1139 -1 q 933 -11 1001 -11 q 758 11 819 -11 q 665 89 696 33 q 581 10 640 32 q 401 -11 521 -11 q 193 18 256 -11 q 113 119 131 47 q 96 354 96 190 q 113 590 96 518 q 193 690 131 661 q 401 719 256 719 q 579 698 519 719 q 665 622 639 676 q 755 697 693 674 q 932 719 817 719 q 1119 686 1061 719 q 1193 581 1178 653 q 1208 354 1208 508 l 1208 324 m 401 67 q 558 87 514 67 q 611 160 601 107 q 621 354 621 213 q 611 548 621 496 q 558 621 601 600 q 401 642 514 642 q 245 621 289 642 q 191 548 201 600 q 181 354 181 496 q 191 160 181 213 q 245 87 201 107 q 401 67 289 67 m 928 642 q 781 624 825 642 q 722 556 736 606 q 707 392 708 506 l 1125 392 l 1125 411 q 1108 563 1125 515 q 1051 626 1092 611 q 928 642 1011 642 z "},"p":{"ha":822,"x_min":128,"x_max":726,"o":"m 128 708 l 203 708 l 207 601 l 214 601 q 303 695 242 671 q 457 719 365 719 q 626 689 569 719 q 704 582 682 658 q 726 354 726 506 q 705 128 726 204 q 627 20 683 51 q 460 -11 571 -11 q 304 13 363 -11 q 219 94 246 38 l 213 94 l 213 -278 l 128 -278 l 128 708 m 426 69 q 569 89 526 69 q 627 165 613 108 q 642 354 642 222 q 627 543 642 486 q 569 619 613 600 q 426 639 526 639 q 298 617 344 639 q 233 544 251 594 q 216 467 219 510 q 213 354 213 425 q 216 244 213 288 q 229 172 219 200 q 297 94 250 118 q 426 69 344 69 z "},"þ":{"ha":822,"x_min":128,"x_max":726,"o":"m 128 1032 l 213 1032 l 213 611 l 219 611 q 304 695 246 671 q 457 719 363 719 q 626 689 569 719 q 704 582 682 658 q 726 354 726 506 q 705 128 726 204 q 627 20 683 51 q 460 -11 571 -11 q 304 13 363 -11 q 219 94 246 38 l 213 94 l 213 -264 l 128 -264 l 128 1032 m 426 69 q 569 89 526 69 q 627 165 613 108 q 642 354 642 222 q 627 543 642 486 q 569 619 613 600 q 426 639 526 639 q 299 617 346 639 q 232 543 251 594 q 216 469 219 511 q 213 354 213 426 q 228 178 213 222 q 296 94 249 119 q 426 69 343 69 z "},"q":{"ha":824,"x_min":96,"x_max":694,"o":"m 610 94 l 603 94 q 519 13 576 38 q 364 -11 461 -11 q 197 19 253 -11 q 118 126 140 50 q 96 354 96 203 q 118 581 96 504 q 197 688 140 657 q 365 719 254 719 q 519 695 457 719 q 608 601 581 671 l 615 601 l 621 708 l 694 708 l 694 -278 l 610 -278 l 610 94 m 396 69 q 525 93 478 69 q 592 168 572 117 q 606 242 603 200 q 610 354 610 283 q 606 472 610 428 q 586 554 601 515 q 396 639 554 639 q 254 619 297 639 q 196 542 211 600 q 181 354 181 485 q 196 166 181 224 q 254 89 211 108 q 396 69 297 69 z "},"r":{"ha":493,"x_min":128,"x_max":454,"o":"m 128 708 l 201 708 l 207 567 l 214 567 q 297 686 238 653 q 454 719 357 719 l 454 629 q 305 597 357 629 q 233 502 253 565 q 213 335 213 439 l 213 0 l 128 0 l 128 708 z "},"ŕ":{"ha":493,"x_min":128,"x_max":454,"o":"m 128 708 l 201 708 l 207 567 l 214 567 q 297 686 238 653 q 454 719 357 719 l 454 629 q 305 597 357 629 q 233 502 253 565 q 213 335 213 439 l 213 0 l 128 0 l 128 708 m 208 838 l 208 844 l 351 1032 l 449 1032 l 449 1025 l 272 838 l 208 838 z "},"ř":{"ha":493,"x_min":56,"x_max":454,"o":"m 128 708 l 201 708 l 207 567 l 214 567 q 297 686 238 653 q 454 719 357 719 l 454 629 q 305 597 357 629 q 233 502 253 565 q 213 335 213 439 l 213 0 l 128 0 l 128 708 m 200 838 l 56 1024 l 56 1032 l 115 1032 l 247 892 l 379 1032 l 439 1032 l 439 1024 l 294 838 l 200 838 z "},"ŗ":{"ha":493,"x_min":103,"x_max":454,"o":"m 128 708 l 201 708 l 207 567 l 214 567 q 297 686 238 653 q 454 719 357 719 l 454 629 q 305 597 357 629 q 233 502 253 565 q 213 335 213 439 l 213 0 l 128 0 l 128 708 m 103 -303 q 165 -288 151 -303 q 179 -226 179 -274 l 179 -203 l 138 -203 l 138 -86 l 238 -86 l 238 -194 q 227 -290 238 -258 q 189 -335 217 -322 q 103 -347 161 -347 l 103 -303 z "},"ȑ":{"ha":493,"x_min":-69,"x_max":454,"o":"m 128 708 l 201 708 l 207 567 l 214 567 q 297 686 238 653 q 454 719 357 719 l 454 629 q 305 597 357 629 q 233 502 253 565 q 213 335 213 439 l 213 0 l 128 0 l 128 708 m 160 842 l 101 842 l -69 1021 l -69 1028 l 19 1028 l 160 849 l 160 842 m 426 842 l 369 842 l 199 1021 l 199 1028 l 286 1028 l 426 849 l 426 842 z "},"ṛ":{"ha":493,"x_min":119,"x_max":454,"o":"m 128 708 l 201 708 l 207 567 l 214 567 q 297 686 238 653 q 454 719 357 719 l 454 629 q 305 597 357 629 q 233 502 253 565 q 213 335 213 439 l 213 0 l 128 0 l 128 708 m 119 -207 l 119 -86 l 222 -86 l 222 -207 l 119 -207 z "},"ȓ":{"ha":493,"x_min":61,"x_max":454,"o":"m 128 708 l 201 708 l 207 567 l 214 567 q 297 686 238 653 q 454 719 357 719 l 454 629 q 305 597 357 629 q 233 502 253 565 q 213 335 213 439 l 213 0 l 128 0 l 128 708 m 61 842 q 72 952 61 913 q 122 1016 82 992 q 247 1040 163 1040 q 372 1016 332 1040 q 422 952 413 992 q 432 842 432 913 l 372 842 q 366 924 372 897 q 333 965 360 950 q 247 981 307 981 q 160 965 188 981 q 127 923 133 950 q 121 842 121 896 l 61 842 z "},"s":{"ha":693,"x_min":82,"x_max":610,"o":"m 354 -11 q 226 -6 297 -11 q 104 6 156 -1 l 104 82 q 240 70 186 74 q 358 67 293 67 q 469 78 433 67 q 517 116 506 90 q 528 192 528 142 q 519 267 528 243 q 492 298 511 290 q 431 310 474 306 l 238 329 q 142 356 175 336 q 95 413 108 376 q 82 514 82 450 q 113 649 82 604 q 201 706 144 693 q 356 719 258 719 q 466 714 406 719 q 571 701 526 708 l 571 625 q 344 642 469 642 q 242 635 278 642 q 186 602 207 628 q 165 521 165 576 q 174 452 165 474 q 201 422 182 431 q 263 410 221 414 l 457 389 q 551 366 519 382 q 596 311 582 350 q 610 193 610 272 q 583 65 610 108 q 502 5 556 21 q 354 -11 449 -11 z "},"ś":{"ha":693,"x_min":82,"x_max":610,"o":"m 354 -11 q 226 -6 297 -11 q 104 6 156 -1 l 104 82 q 240 70 186 74 q 358 67 293 67 q 469 78 433 67 q 517 116 506 90 q 528 192 528 142 q 519 267 528 243 q 492 298 511 290 q 431 310 474 306 l 238 329 q 142 356 175 336 q 95 413 108 376 q 82 514 82 450 q 113 649 82 604 q 201 706 144 693 q 356 719 258 719 q 466 714 406 719 q 571 701 526 708 l 571 625 q 344 642 469 642 q 242 635 278 642 q 186 602 207 628 q 165 521 165 576 q 174 452 165 474 q 201 422 182 431 q 263 410 221 414 l 457 389 q 551 366 519 382 q 596 311 582 350 q 610 193 610 272 q 583 65 610 108 q 502 5 556 21 q 354 -11 449 -11 m 308 838 l 308 844 l 451 1032 l 549 1032 l 549 1025 l 372 838 l 308 838 z "},"ꞌ":{"ha":176,"x_min":46,"x_max":131,"o":"m 46 399 l 46 1032 l 131 1032 l 131 708 l 104 399 l 46 399 z "},"š":{"ha":693,"x_min":82,"x_max":610,"o":"m 354 -11 q 226 -6 297 -11 q 104 6 156 -1 l 104 82 q 240 70 186 74 q 358 67 293 67 q 469 78 433 67 q 517 116 506 90 q 528 192 528 142 q 519 267 528 243 q 492 298 511 290 q 431 310 474 306 l 238 329 q 142 356 175 336 q 95 413 108 376 q 82 514 82 450 q 113 649 82 604 q 201 706 144 693 q 356 719 258 719 q 466 714 406 719 q 571 701 526 708 l 571 625 q 344 642 469 642 q 242 635 278 642 q 186 602 207 628 q 165 521 165 576 q 174 452 165 474 q 201 422 182 431 q 263 410 221 414 l 457 389 q 551 366 519 382 q 596 311 582 350 q 610 193 610 272 q 583 65 610 108 q 502 5 556 21 q 354 -11 449 -11 m 304 838 l 160 1024 l 160 1032 l 219 1032 l 351 892 l 483 1032 l 543 1032 l 543 1024 l 399 838 l 304 838 z "},"ş":{"ha":693,"x_min":82,"x_max":610,"o":"m 610 193 q 585 68 610 111 q 511 8 561 25 q 376 -11 461 -10 l 321 -264 l 233 -264 l 233 -257 l 313 -11 q 104 6 182 -6 l 104 82 q 240 70 186 74 q 358 67 293 67 q 469 78 433 67 q 517 116 506 90 q 528 192 528 142 q 519 267 528 243 q 492 298 511 290 q 431 310 474 306 l 238 329 q 142 356 175 336 q 95 413 108 376 q 82 514 82 450 q 113 649 82 604 q 201 706 144 693 q 356 719 258 719 q 466 714 406 719 q 571 701 526 708 l 571 625 q 344 642 469 642 q 242 635 278 642 q 186 602 207 628 q 165 521 165 576 q 174 452 165 474 q 201 422 182 431 q 263 410 221 414 l 457 389 q 551 366 519 382 q 596 311 582 350 q 610 193 610 272 z "},"ŝ":{"ha":693,"x_min":82,"x_max":610,"o":"m 354 -11 q 226 -6 297 -11 q 104 6 156 -1 l 104 82 q 240 70 186 74 q 358 67 293 67 q 469 78 433 67 q 517 116 506 90 q 528 192 528 142 q 519 267 528 243 q 492 298 511 290 q 431 310 474 306 l 238 329 q 142 356 175 336 q 95 413 108 376 q 82 514 82 450 q 113 649 82 604 q 201 706 144 693 q 356 719 258 719 q 466 714 406 719 q 571 701 526 708 l 571 625 q 344 642 469 642 q 242 635 278 642 q 186 602 207 628 q 165 521 165 576 q 174 452 165 474 q 201 422 182 431 q 263 410 221 414 l 457 389 q 551 366 519 382 q 596 311 582 350 q 610 193 610 272 q 583 65 610 108 q 502 5 556 21 q 354 -11 449 -11 m 156 838 l 156 846 l 300 1032 l 394 1032 l 539 846 l 539 838 l 479 838 l 347 978 l 215 838 l 156 838 z "},"ș":{"ha":693,"x_min":82,"x_max":610,"o":"m 354 -11 q 226 -6 297 -11 q 104 6 156 -1 l 104 82 q 240 70 186 74 q 358 67 293 67 q 469 78 433 67 q 517 116 506 90 q 528 192 528 142 q 519 267 528 243 q 492 298 511 290 q 431 310 474 306 l 238 329 q 142 356 175 336 q 95 413 108 376 q 82 514 82 450 q 113 649 82 604 q 201 706 144 693 q 356 719 258 719 q 466 714 406 719 q 571 701 526 708 l 571 625 q 344 642 469 642 q 242 635 278 642 q 186 602 207 628 q 165 521 165 576 q 174 452 165 474 q 201 422 182 431 q 263 410 221 414 l 457 389 q 551 366 519 382 q 596 311 582 350 q 610 193 610 272 q 583 65 610 108 q 502 5 556 21 q 354 -11 449 -11 m 279 -303 q 342 -288 328 -303 q 356 -226 356 -274 l 356 -203 l 314 -203 l 314 -86 l 414 -86 l 414 -194 q 403 -290 414 -258 q 365 -335 393 -322 q 279 -347 338 -347 l 279 -303 z "},"ṣ":{"ha":693,"x_min":82,"x_max":610,"o":"m 354 -11 q 226 -6 297 -11 q 104 6 156 -1 l 104 82 q 240 70 186 74 q 358 67 293 67 q 469 78 433 67 q 517 116 506 90 q 528 192 528 142 q 519 267 528 243 q 492 298 511 290 q 431 310 474 306 l 238 329 q 142 356 175 336 q 95 413 108 376 q 82 514 82 450 q 113 649 82 604 q 201 706 144 693 q 356 719 258 719 q 466 714 406 719 q 571 701 526 708 l 571 625 q 344 642 469 642 q 242 635 278 642 q 186 602 207 628 q 165 521 165 576 q 174 452 165 474 q 201 422 182 431 q 263 410 221 414 l 457 389 q 551 366 519 382 q 596 311 582 350 q 610 193 610 272 q 583 65 610 108 q 502 5 556 21 q 354 -11 449 -11 m 296 -207 l 296 -86 l 399 -86 l 399 -207 l 296 -207 z "},"ß":{"ha":847,"x_min":128,"x_max":750,"o":"m 354 0 l 354 78 l 442 78 q 592 92 549 78 q 651 157 636 107 q 665 329 665 207 q 646 476 665 426 q 581 546 626 526 q 450 565 536 565 l 400 565 l 400 643 l 450 643 q 607 677 561 643 q 653 796 653 711 q 634 898 653 863 q 569 949 615 933 q 433 964 522 964 q 305 946 351 964 q 235 878 258 928 q 213 731 213 828 l 213 0 l 128 0 l 128 743 q 157 913 128 849 q 255 1010 186 978 q 443 1042 324 1042 q 622 1015 558 1042 q 712 936 686 989 q 738 799 738 883 q 699 671 738 715 q 576 613 660 626 l 576 607 q 708 530 665 592 q 750 336 750 468 q 729 134 750 204 q 649 32 708 64 q 469 0 589 0 l 354 0 z "},"ſ":{"ha":453,"x_min":39,"x_max":456,"o":"m 185 631 l 39 631 l 39 708 l 185 708 l 185 838 q 212 967 185 925 q 294 1020 239 1008 q 456 1032 349 1032 l 456 960 q 338 951 376 960 q 285 921 300 943 q 269 853 269 899 l 269 0 l 185 0 l 185 631 z "},"t":{"ha":479,"x_min":39,"x_max":440,"o":"m 185 0 l 185 631 l 39 631 l 39 708 l 185 708 l 185 914 l 269 914 l 269 708 l 440 708 l 440 631 l 269 631 l 269 0 l 185 0 z "},"ŧ":{"ha":479,"x_min":39,"x_max":442,"o":"m 442 397 l 442 321 l 269 321 l 269 0 l 185 0 l 185 321 l 42 321 l 42 397 l 185 397 l 185 631 l 39 631 l 39 708 l 185 708 l 185 914 l 269 914 l 269 708 l 440 708 l 440 631 l 269 631 l 269 397 l 442 397 z "},"ť":{"ha":504,"x_min":39,"x_max":597,"o":"m 185 0 l 185 631 l 39 631 l 39 708 l 185 708 l 185 914 l 269 914 l 269 708 l 440 708 l 440 631 l 269 631 l 269 0 l 185 0 m 494 621 l 513 843 l 513 956 l 597 956 l 597 843 l 551 621 l 494 621 z "},"ţ":{"ha":479,"x_min":39,"x_max":440,"o":"m 269 708 l 440 708 l 440 631 l 269 631 l 269 0 l 258 0 l 201 -264 l 114 -264 l 114 -257 l 196 0 l 185 0 l 185 631 l 39 631 l 39 708 l 185 708 l 185 914 l 269 914 l 269 708 z "},"ț":{"ha":479,"x_min":39,"x_max":440,"o":"m 185 0 l 185 631 l 39 631 l 39 708 l 185 708 l 185 914 l 269 914 l 269 708 l 440 708 l 440 631 l 269 631 l 269 0 l 185 0 m 160 -303 q 222 -288 208 -303 q 236 -226 236 -274 l 236 -203 l 194 -203 l 194 -86 l 294 -86 l 294 -194 q 284 -290 294 -258 q 246 -335 274 -322 q 160 -347 218 -347 l 160 -303 z "},"ṭ":{"ha":479,"x_min":39,"x_max":440,"o":"m 185 0 l 185 631 l 39 631 l 39 708 l 185 708 l 185 914 l 269 914 l 269 708 l 440 708 l 440 631 l 269 631 l 269 0 l 185 0 m 176 -207 l 176 -86 l 279 -86 l 279 -207 l 176 -207 z "},"u":{"ha":835,"x_min":128,"x_max":706,"o":"m 628 107 l 619 107 q 544 20 599 51 q 378 -11 489 -11 q 219 17 272 -11 q 147 102 165 44 q 128 264 128 160 l 128 708 l 213 708 l 213 293 q 227 145 213 190 q 281 85 242 100 q 408 69 319 69 q 553 102 507 69 q 610 188 599 135 q 621 342 621 242 l 621 708 l 706 708 l 706 0 l 632 0 l 628 107 z "},"ú":{"ha":835,"x_min":128,"x_max":706,"o":"m 628 107 l 619 107 q 544 20 599 51 q 378 -11 489 -11 q 219 17 272 -11 q 147 102 165 44 q 128 264 128 160 l 128 708 l 213 708 l 213 293 q 227 145 213 190 q 281 85 242 100 q 408 69 319 69 q 553 102 507 69 q 610 188 599 135 q 621 342 621 242 l 621 708 l 706 708 l 706 0 l 632 0 l 628 107 m 381 838 l 381 844 l 524 1032 l 621 1032 l 621 1025 l 444 838 l 381 838 z "},"ŭ":{"ha":835,"x_min":128,"x_max":706,"o":"m 628 107 l 619 107 q 544 20 599 51 q 378 -11 489 -11 q 219 17 272 -11 q 147 102 165 44 q 128 264 128 160 l 128 708 l 213 708 l 213 293 q 227 145 213 190 q 281 85 242 100 q 408 69 319 69 q 553 102 507 69 q 610 188 599 135 q 621 342 621 242 l 621 708 l 706 708 l 706 0 l 632 0 l 628 107 m 601 1032 q 591 922 601 961 q 540 858 581 882 q 415 833 500 833 q 290 858 331 833 q 240 922 250 882 q 231 1032 231 961 l 290 1032 q 297 950 290 976 q 329 908 303 924 q 415 893 356 893 q 502 908 475 893 q 535 951 529 924 q 542 1032 542 978 l 601 1032 z "},"ǔ":{"ha":835,"x_min":128,"x_max":706,"o":"m 628 107 l 619 107 q 544 20 599 51 q 378 -11 489 -11 q 219 17 272 -11 q 147 102 165 44 q 128 264 128 160 l 128 708 l 213 708 l 213 293 q 227 145 213 190 q 281 85 242 100 q 408 69 319 69 q 553 102 507 69 q 610 188 599 135 q 621 342 621 242 l 621 708 l 706 708 l 706 0 l 632 0 l 628 107 m 369 838 l 225 1024 l 225 1032 l 285 1032 l 417 892 l 549 1032 l 608 1032 l 608 1024 l 464 838 l 369 838 z "}}}
